G04 #@! TF.FileFunction,Copper,L1,Top,Signal*
%FSLAX46Y46*%
G04 Gerber Fmt 4.6, Leading zero omitted, Abs format (unit mm)*
G04 Created by KiCad (PCBNEW 4.0.6) date 07/03/17 18:41:58*
%MOMM*%
%LPD*%
G01*
G04 APERTURE LIST*
%ADD10C,0.100000*%
%ADD11O,2.641600X1.320800*%
%ADD12O,4.000000X2.000000*%
%ADD13O,2.000000X4.000000*%
%ADD14R,0.700000X1.300000*%
%ADD15R,1.300000X0.700000*%
%ADD16R,1.600000X1.600000*%
%ADD17C,1.600000*%
%ADD18R,1.200000X1.200000*%
%ADD19C,2.000000*%
%ADD20R,1.700000X1.700000*%
%ADD21O,1.700000X1.700000*%
%ADD22C,4.064000*%
%ADD23C,1.200000*%
%ADD24R,1.397000X1.397000*%
%ADD25C,1.397000*%
%ADD26C,0.600000*%
%ADD27C,0.250000*%
%ADD28C,0.500000*%
G04 APERTURE END LIST*
D10*
D11*
X114935000Y-38100000D03*
X114935000Y-40640000D03*
X114935000Y-43180000D03*
X114935000Y-45720000D03*
X114935000Y-48260000D03*
X114935000Y-50800000D03*
X114935000Y-53340000D03*
X114935000Y-55880000D03*
X114935000Y-58420000D03*
X114935000Y-60960000D03*
X114935000Y-63500000D03*
X114935000Y-66040000D03*
X114935000Y-68580000D03*
X114935000Y-71120000D03*
X114935000Y-73660000D03*
X114935000Y-76200000D03*
X130175000Y-76200000D03*
X130175000Y-73660000D03*
X130175000Y-71120000D03*
X130175000Y-68580000D03*
X130175000Y-66040000D03*
X130175000Y-63500000D03*
X130175000Y-60960000D03*
X130175000Y-58420000D03*
X130175000Y-55880000D03*
X130175000Y-53340000D03*
X130175000Y-50800000D03*
X130175000Y-48260000D03*
X130175000Y-45720000D03*
X130175000Y-43180000D03*
X130175000Y-40640000D03*
X130175000Y-38100000D03*
X91059000Y-38735000D03*
X91059000Y-41275000D03*
X91059000Y-43815000D03*
X91059000Y-46355000D03*
X91059000Y-48895000D03*
X91059000Y-51435000D03*
X91059000Y-53975000D03*
X91059000Y-56515000D03*
X91059000Y-59055000D03*
X91059000Y-61595000D03*
X91059000Y-64135000D03*
X91059000Y-66675000D03*
X91059000Y-69215000D03*
X91059000Y-71755000D03*
X91059000Y-74295000D03*
X91059000Y-76835000D03*
X91059000Y-79375000D03*
X91059000Y-81915000D03*
X91059000Y-84455000D03*
X91059000Y-86995000D03*
X91059000Y-89535000D03*
X91059000Y-92075000D03*
X91059000Y-94615000D03*
X91059000Y-97155000D03*
X106299000Y-97155000D03*
X106299000Y-94615000D03*
X106299000Y-92075000D03*
X106299000Y-89535000D03*
X106299000Y-86995000D03*
X106299000Y-84455000D03*
X106299000Y-81915000D03*
X106299000Y-79375000D03*
X106299000Y-76835000D03*
X106299000Y-74295000D03*
X106299000Y-71755000D03*
X106299000Y-69215000D03*
X106299000Y-66675000D03*
X106299000Y-64135000D03*
X106299000Y-61595000D03*
X106299000Y-59055000D03*
X106299000Y-56515000D03*
X106299000Y-53975000D03*
X106299000Y-51435000D03*
X106299000Y-48895000D03*
X106299000Y-46355000D03*
X106299000Y-43815000D03*
X106299000Y-41275000D03*
X106299000Y-38735000D03*
X139065000Y-38735000D03*
X139065000Y-41275000D03*
X139065000Y-43815000D03*
X139065000Y-46355000D03*
X139065000Y-48895000D03*
X139065000Y-51435000D03*
X139065000Y-53975000D03*
X139065000Y-56515000D03*
X139065000Y-59055000D03*
X139065000Y-61595000D03*
X139065000Y-64135000D03*
X139065000Y-66675000D03*
X139065000Y-69215000D03*
X139065000Y-71755000D03*
X139065000Y-74295000D03*
X139065000Y-76835000D03*
X154305000Y-76835000D03*
X154305000Y-74295000D03*
X154305000Y-71755000D03*
X154305000Y-69215000D03*
X154305000Y-66675000D03*
X154305000Y-64135000D03*
X154305000Y-61595000D03*
X154305000Y-59055000D03*
X154305000Y-56515000D03*
X154305000Y-53975000D03*
X154305000Y-51435000D03*
X154305000Y-48895000D03*
X154305000Y-46355000D03*
X154305000Y-43815000D03*
X154305000Y-41275000D03*
X154305000Y-38735000D03*
D12*
X155194000Y-119201000D03*
X155194000Y-125301000D03*
D13*
X159994000Y-122301000D03*
D14*
X92898000Y-111125000D03*
X90998000Y-111125000D03*
D15*
X121920000Y-87945000D03*
X121920000Y-86045000D03*
X142875000Y-87945000D03*
X142875000Y-86045000D03*
X137795000Y-87945000D03*
X137795000Y-86045000D03*
X116205000Y-87945000D03*
X116205000Y-86045000D03*
D16*
X90424000Y-126873000D03*
D17*
X90424000Y-119253000D03*
X105664000Y-119253000D03*
X105664000Y-126873000D03*
D18*
X132715000Y-85895000D03*
X132715000Y-88095000D03*
X127635000Y-85895000D03*
X127635000Y-88095000D03*
D14*
X146370000Y-88265000D03*
X148270000Y-88265000D03*
D15*
X96266000Y-110175000D03*
X96266000Y-112075000D03*
D14*
X158435000Y-59055000D03*
X160335000Y-59055000D03*
X158435000Y-64135000D03*
X160335000Y-64135000D03*
D19*
X162052000Y-78414000D03*
X162052000Y-73914000D03*
X168552000Y-78414000D03*
X168552000Y-73914000D03*
D20*
X164465000Y-36830000D03*
D21*
X167005000Y-36830000D03*
X164465000Y-39370000D03*
X167005000Y-39370000D03*
X164465000Y-41910000D03*
X167005000Y-41910000D03*
X164465000Y-44450000D03*
X167005000Y-44450000D03*
X164465000Y-46990000D03*
X167005000Y-46990000D03*
X164465000Y-49530000D03*
X167005000Y-49530000D03*
X164465000Y-52070000D03*
X167005000Y-52070000D03*
X164465000Y-54610000D03*
X167005000Y-54610000D03*
X164465000Y-57150000D03*
X167005000Y-57150000D03*
X164465000Y-59690000D03*
X167005000Y-59690000D03*
D20*
X166624000Y-95250000D03*
D21*
X164084000Y-95250000D03*
X166624000Y-92710000D03*
X164084000Y-92710000D03*
X166624000Y-90170000D03*
X164084000Y-90170000D03*
X166624000Y-87630000D03*
X164084000Y-87630000D03*
X166624000Y-85090000D03*
X164084000Y-85090000D03*
D22*
X92710000Y-102235000D03*
X159385000Y-38100000D03*
X151765000Y-91440000D03*
D18*
X164465000Y-66040000D03*
D23*
X166465000Y-66040000D03*
D24*
X114935000Y-111125000D03*
D25*
X117475000Y-111125000D03*
X114935000Y-113665000D03*
X117475000Y-113665000D03*
X114935000Y-116205000D03*
X117475000Y-116205000D03*
X114935000Y-118745000D03*
X117475000Y-118745000D03*
X114935000Y-121285000D03*
X117475000Y-121285000D03*
X114935000Y-123825000D03*
X117475000Y-126365000D03*
X117475000Y-123825000D03*
X120015000Y-126365000D03*
X120015000Y-123825000D03*
X122555000Y-126365000D03*
X122555000Y-123825000D03*
X125095000Y-126365000D03*
X125095000Y-123825000D03*
X127635000Y-126365000D03*
X127635000Y-123825000D03*
X130175000Y-126365000D03*
X130175000Y-123825000D03*
X132715000Y-126365000D03*
X132715000Y-123825000D03*
X135255000Y-126365000D03*
X135255000Y-123825000D03*
X137795000Y-126365000D03*
X137795000Y-123825000D03*
X140335000Y-126365000D03*
X140335000Y-123825000D03*
X142875000Y-126365000D03*
X145415000Y-123825000D03*
X142875000Y-123825000D03*
X145415000Y-121285000D03*
X142875000Y-121285000D03*
X145415000Y-118745000D03*
X142875000Y-118745000D03*
X145415000Y-116205000D03*
X142875000Y-116205000D03*
X145415000Y-113665000D03*
X142875000Y-113665000D03*
X145415000Y-111125000D03*
X142875000Y-111125000D03*
X145415000Y-108585000D03*
X142875000Y-108585000D03*
X145415000Y-106045000D03*
X142875000Y-106045000D03*
X145415000Y-103505000D03*
X142875000Y-103505000D03*
X145415000Y-100965000D03*
X142875000Y-100965000D03*
X145415000Y-98425000D03*
X142875000Y-95885000D03*
X142875000Y-98425000D03*
X140335000Y-95885000D03*
X140335000Y-98425000D03*
X137795000Y-95885000D03*
X137795000Y-98425000D03*
X135255000Y-95885000D03*
X135255000Y-98425000D03*
X132715000Y-95885000D03*
X132715000Y-98425000D03*
X130175000Y-95885000D03*
X130175000Y-98425000D03*
X127635000Y-95885000D03*
X127635000Y-98425000D03*
X125095000Y-95885000D03*
X125095000Y-98425000D03*
X122555000Y-95885000D03*
X122555000Y-98425000D03*
X120015000Y-95885000D03*
X120015000Y-98425000D03*
X117475000Y-95885000D03*
X114935000Y-98425000D03*
X117475000Y-98425000D03*
X114935000Y-100965000D03*
X117475000Y-100965000D03*
X114935000Y-103505000D03*
X117475000Y-103505000D03*
X114935000Y-106045000D03*
X117475000Y-106045000D03*
X114935000Y-108585000D03*
X117475000Y-108585000D03*
D20*
X164592000Y-105029000D03*
D21*
X167132000Y-105029000D03*
X164592000Y-107569000D03*
X167132000Y-107569000D03*
X164592000Y-110109000D03*
X167132000Y-110109000D03*
X164592000Y-112649000D03*
X167132000Y-112649000D03*
X164592000Y-115189000D03*
X167132000Y-115189000D03*
X164592000Y-117729000D03*
X167132000Y-117729000D03*
X164592000Y-120269000D03*
X167132000Y-120269000D03*
X164592000Y-122809000D03*
X167132000Y-122809000D03*
X164592000Y-125349000D03*
X167132000Y-125349000D03*
X164592000Y-127889000D03*
X167132000Y-127889000D03*
D26*
X120506500Y-37114500D03*
X133563600Y-91674500D03*
X115479800Y-89580500D03*
X96675100Y-83185000D03*
X118631200Y-82057300D03*
X113289100Y-39260500D03*
X136453600Y-126365000D03*
X88761300Y-129397300D03*
X112213900Y-49189400D03*
X95019000Y-49824400D03*
X126254000Y-62514500D03*
X124653800Y-65854600D03*
X148213900Y-68229500D03*
X143164000Y-71755000D03*
X118623600Y-104896400D03*
X120280500Y-90690300D03*
X145415000Y-107386400D03*
X147063700Y-107386400D03*
X137795000Y-106516500D03*
X138642500Y-122676400D03*
X144523700Y-76209900D03*
X140885900Y-76209900D03*
X120280500Y-76200000D03*
X144523700Y-87945000D03*
X118673600Y-106045000D03*
X131022500Y-106516500D03*
X131022500Y-122676400D03*
X166465000Y-75724500D03*
X142875000Y-107386400D03*
X136103600Y-107386400D03*
X134856500Y-77820500D03*
X128354200Y-83403600D03*
X130800100Y-92299600D03*
X140383500Y-92299600D03*
X145481200Y-72615500D03*
X94731800Y-92075000D03*
X127729100Y-74564200D03*
X141808700Y-70200500D03*
X91059000Y-88374500D03*
X126816600Y-73917300D03*
X149464100Y-100965000D03*
X95808100Y-73025000D03*
X125854000Y-58549300D03*
X96559400Y-59984400D03*
X124028700Y-78389500D03*
X111748200Y-108992400D03*
X145415000Y-93049700D03*
X149564200Y-110673800D03*
X109225800Y-110175000D03*
X160335000Y-62984900D03*
X127635000Y-93049700D03*
X146613600Y-118450900D03*
X111748200Y-99816400D03*
X106924100Y-75674500D03*
X111748200Y-77314300D03*
X158119000Y-91540000D03*
X158119000Y-98425000D03*
X111748200Y-89224600D03*
X150314300Y-98425000D03*
X110370400Y-112395000D03*
X110370400Y-89535000D03*
X106299000Y-88374500D03*
X110498000Y-88374500D03*
X154122100Y-81764500D03*
X154122100Y-116205000D03*
X123170300Y-81764500D03*
X118673600Y-111125000D03*
X141358600Y-118386100D03*
X101094000Y-107584900D03*
X101094000Y-75624900D03*
X107239200Y-107584900D03*
X106299000Y-70594500D03*
X119505300Y-74129900D03*
X119505300Y-85719700D03*
X99766600Y-66675000D03*
X99766600Y-105021400D03*
X144073600Y-118745000D03*
X100391700Y-116471200D03*
X103419400Y-117896400D03*
X147063700Y-60040500D03*
X147063700Y-104396300D03*
X129135200Y-105762200D03*
X112548300Y-111260000D03*
X117980600Y-63500000D03*
X122526500Y-65229500D03*
X121395000Y-116205000D03*
X121142300Y-64604400D03*
X154747200Y-83289800D03*
X154747200Y-102656400D03*
X119998800Y-102481400D03*
X117355100Y-89542600D03*
X117355100Y-86045000D03*
X170340400Y-45814900D03*
X163053900Y-39370000D03*
X147688800Y-65405000D03*
X122555000Y-131464600D03*
X170965500Y-131464600D03*
X139311400Y-86045000D03*
X130175000Y-108358400D03*
X139311400Y-108358400D03*
X162802100Y-86454900D03*
X139311400Y-84344800D03*
X145415000Y-122626400D03*
X159194300Y-119800900D03*
X133465100Y-90494800D03*
X140111500Y-90494800D03*
X140111500Y-86045000D03*
X163129300Y-88994900D03*
X124265400Y-112842800D03*
X124265400Y-100391500D03*
X118530700Y-88917500D03*
X113739100Y-109926400D03*
X158435000Y-57904900D03*
X161944200Y-102031300D03*
X161897600Y-110109000D03*
X140335000Y-105071400D03*
X161301900Y-82389600D03*
X137795000Y-82389600D03*
X162962900Y-112191300D03*
X135255000Y-110416100D03*
X168132100Y-108933900D03*
X151399100Y-111473900D03*
X151399100Y-115006400D03*
X127635000Y-115006400D03*
X125095000Y-94686400D03*
X126308300Y-97533700D03*
X126308300Y-109783600D03*
X161331900Y-110848800D03*
X160185500Y-93336100D03*
X126645200Y-117096300D03*
X162932900Y-118918900D03*
X160069300Y-100916500D03*
X170007400Y-120269000D03*
X96172700Y-98425000D03*
X131691400Y-101856300D03*
X119373700Y-99941400D03*
X119298700Y-120261400D03*
D27*
X114935000Y-37114500D02*
X114935000Y-38100000D01*
X117831100Y-37114500D02*
X114935000Y-37114500D01*
X117831100Y-37114500D02*
X118631200Y-37114500D01*
X118631200Y-37114500D02*
X120506500Y-37114500D01*
X135745700Y-38735000D02*
X139065000Y-38735000D01*
X134125200Y-37114500D02*
X135745700Y-38735000D01*
X120506500Y-37114500D02*
X134125200Y-37114500D01*
X117573800Y-91674500D02*
X115479800Y-89580500D01*
X133563600Y-91674500D02*
X117573800Y-91674500D01*
X117503500Y-83185000D02*
X118631200Y-82057300D01*
X96675100Y-83185000D02*
X117503500Y-83185000D01*
X114935000Y-40640000D02*
X114935000Y-39654500D01*
X135341000Y-41275000D02*
X135791100Y-41275000D01*
X133720500Y-39654500D02*
X135341000Y-41275000D01*
X114935000Y-39654500D02*
X133720500Y-39654500D01*
X139065000Y-41275000D02*
X135791100Y-41275000D01*
X134866100Y-129397300D02*
X88761300Y-129397300D01*
X136453600Y-127809800D02*
X134866100Y-129397300D01*
X136453600Y-126365000D02*
X136453600Y-127809800D01*
X113289100Y-43180000D02*
X114935000Y-43180000D01*
X113289100Y-39260500D02*
X113289100Y-43180000D01*
X154305000Y-40255000D02*
X154305000Y-41275000D01*
X154055000Y-40005000D02*
X154305000Y-40255000D01*
X137230400Y-40005000D02*
X154055000Y-40005000D01*
X136429800Y-39204400D02*
X137230400Y-40005000D01*
X114227600Y-39204400D02*
X136429800Y-39204400D01*
X114171500Y-39260500D02*
X114227600Y-39204400D01*
X113289100Y-39260500D02*
X114171500Y-39260500D01*
X135197800Y-46355000D02*
X139065000Y-46355000D01*
X133577300Y-44734500D02*
X135197800Y-46355000D01*
X114935000Y-44734500D02*
X133577300Y-44734500D01*
X114935000Y-45720000D02*
X114935000Y-44734500D01*
X95194000Y-49999400D02*
X95019000Y-49824400D01*
X111403900Y-49999400D02*
X95194000Y-49999400D01*
X112213900Y-49189400D02*
X111403900Y-49999400D01*
X136969000Y-48895000D02*
X139065000Y-48895000D01*
X135348500Y-47274500D02*
X136969000Y-48895000D01*
X114935000Y-47274500D02*
X135348500Y-47274500D01*
X114935000Y-48260000D02*
X114935000Y-47274500D01*
X94064500Y-48895000D02*
X91059000Y-48895000D01*
X95334500Y-47625000D02*
X94064500Y-48895000D01*
X112521500Y-47625000D02*
X95334500Y-47625000D01*
X113156500Y-48260000D02*
X112521500Y-47625000D01*
X114935000Y-48260000D02*
X113156500Y-48260000D01*
X114935000Y-50800000D02*
X114935000Y-49814500D01*
X136969000Y-51435000D02*
X139065000Y-51435000D01*
X135348500Y-49814500D02*
X136969000Y-51435000D01*
X114935000Y-49814500D02*
X135348500Y-49814500D01*
X89316900Y-46355000D02*
X91059000Y-46355000D01*
X89066900Y-46605000D02*
X89316900Y-46355000D01*
X89066900Y-49655800D02*
X89066900Y-46605000D01*
X89860700Y-50449500D02*
X89066900Y-49655800D01*
X112663800Y-50449500D02*
X89860700Y-50449500D01*
X113014300Y-50800000D02*
X112663800Y-50449500D01*
X114935000Y-50800000D02*
X113014300Y-50800000D01*
X114935000Y-53340000D02*
X114935000Y-52354500D01*
X135948500Y-53975000D02*
X139065000Y-53975000D01*
X134328000Y-52354500D02*
X135948500Y-53975000D01*
X114935000Y-52354500D02*
X134328000Y-52354500D01*
X89149400Y-43815000D02*
X91059000Y-43815000D01*
X88355600Y-44608800D02*
X89149400Y-43815000D01*
X88355600Y-51402000D02*
X88355600Y-44608800D01*
X89943100Y-52989500D02*
X88355600Y-51402000D01*
X111944400Y-52989500D02*
X89943100Y-52989500D01*
X112294900Y-53340000D02*
X111944400Y-52989500D01*
X114935000Y-53340000D02*
X112294900Y-53340000D01*
X136684400Y-56515000D02*
X139065000Y-56515000D01*
X135063900Y-54894500D02*
X136684400Y-56515000D01*
X114935000Y-54894500D02*
X135063900Y-54894500D01*
X114935000Y-55880000D02*
X114935000Y-54894500D01*
X134973900Y-59055000D02*
X139065000Y-59055000D01*
X133353400Y-57434500D02*
X134973900Y-59055000D01*
X114935000Y-57434500D02*
X133353400Y-57434500D01*
X114935000Y-58420000D02*
X114935000Y-57434500D01*
X133081300Y-61595000D02*
X139065000Y-61595000D01*
X131460800Y-59974500D02*
X133081300Y-61595000D01*
X114935000Y-59974500D02*
X131460800Y-59974500D01*
X114935000Y-60960000D02*
X114935000Y-59974500D01*
X114935000Y-62514500D02*
X124653800Y-62514500D01*
X114935000Y-63500000D02*
X114935000Y-62514500D01*
X135713300Y-64135000D02*
X139065000Y-64135000D01*
X125853800Y-62514500D02*
X126254000Y-62514500D01*
X124653800Y-62514500D02*
X125453900Y-62514500D01*
X125853800Y-62514500D02*
X125453900Y-62514500D01*
X132110300Y-62514500D02*
X126254000Y-62514500D01*
X133730800Y-64135000D02*
X132110300Y-62514500D01*
X135713300Y-64135000D02*
X133730800Y-64135000D01*
X119487200Y-65854600D02*
X124653800Y-65854600D01*
X119301800Y-66040000D02*
X119487200Y-65854600D01*
X114935000Y-66040000D02*
X119301800Y-66040000D01*
X135741700Y-66675000D02*
X139065000Y-66675000D01*
X134121200Y-65054500D02*
X135741700Y-66675000D01*
X125453900Y-65054500D02*
X134121200Y-65054500D01*
X124653800Y-65854600D02*
X125453900Y-65054500D01*
X133441400Y-69215000D02*
X139065000Y-69215000D01*
X131820900Y-67594500D02*
X133441400Y-69215000D01*
X114935000Y-67594500D02*
X131820900Y-67594500D01*
X114935000Y-68580000D02*
X114935000Y-67594500D01*
X144234800Y-68229500D02*
X148213900Y-68229500D01*
X143249300Y-69215000D02*
X144234800Y-68229500D01*
X139065000Y-69215000D02*
X143249300Y-69215000D01*
X165640100Y-55974900D02*
X167005000Y-54610000D01*
X158871600Y-55974900D02*
X165640100Y-55974900D01*
X157284100Y-57562400D02*
X158871600Y-55974900D01*
X157284100Y-66642000D02*
X157284100Y-57562400D01*
X155696600Y-68229500D02*
X157284100Y-66642000D01*
X148213900Y-68229500D02*
X155696600Y-68229500D01*
X133419300Y-71755000D02*
X139065000Y-71755000D01*
X131798800Y-70134500D02*
X133419300Y-71755000D01*
X114935000Y-70134500D02*
X131798800Y-70134500D01*
X114935000Y-71120000D02*
X114935000Y-70134500D01*
X139065000Y-71755000D02*
X143164000Y-71755000D01*
X168180100Y-53245100D02*
X167005000Y-52070000D01*
X168180100Y-67594500D02*
X168180100Y-53245100D01*
X165005100Y-70769500D02*
X168180100Y-67594500D01*
X144149500Y-70769500D02*
X165005100Y-70769500D01*
X143164000Y-71755000D02*
X144149500Y-70769500D01*
X134101300Y-74295000D02*
X137419100Y-74295000D01*
X132480800Y-72674500D02*
X134101300Y-74295000D01*
X114935000Y-72674500D02*
X132480800Y-72674500D01*
X114935000Y-73660000D02*
X114935000Y-72674500D01*
X139065000Y-74295000D02*
X137419100Y-74295000D01*
X169012400Y-51537400D02*
X167005000Y-49530000D01*
X169012400Y-68547500D02*
X169012400Y-51537400D01*
X165837400Y-71722500D02*
X169012400Y-68547500D01*
X160854900Y-71722500D02*
X165837400Y-71722500D01*
X159267900Y-73309500D02*
X160854900Y-71722500D01*
X139065000Y-73309500D02*
X159267900Y-73309500D01*
X139065000Y-74295000D02*
X139065000Y-73309500D01*
D28*
X99886100Y-74295000D02*
X91059000Y-74295000D01*
X102426100Y-71755000D02*
X99886100Y-74295000D01*
X106299000Y-71755000D02*
X102426100Y-71755000D01*
X145415000Y-107386400D02*
X147063700Y-107386400D01*
X144023600Y-126365000D02*
X144023600Y-125301000D01*
X142875000Y-126365000D02*
X144023600Y-126365000D01*
X116083600Y-119893600D02*
X114935000Y-118745000D01*
X116083600Y-121983500D02*
X116083600Y-119893600D01*
X116533700Y-122433600D02*
X116083600Y-121983500D01*
X126993700Y-121926300D02*
X128385100Y-121926300D01*
X125095000Y-123825000D02*
X126993700Y-121926300D01*
X128385100Y-106516500D02*
X131022500Y-106516500D01*
X118623600Y-104896400D02*
X118623600Y-104896400D01*
X118623600Y-97276400D02*
X118623600Y-104896400D01*
X120015000Y-95885000D02*
X118623600Y-97276400D01*
X123703600Y-122433600D02*
X116533700Y-122433600D01*
X125095000Y-123825000D02*
X123703600Y-122433600D01*
X108456000Y-71755000D02*
X106299000Y-71755000D01*
X111631000Y-74930000D02*
X108456000Y-71755000D01*
X111631000Y-75406300D02*
X111631000Y-74930000D01*
X112424700Y-76200000D02*
X111631000Y-75406300D01*
X114935000Y-76200000D02*
X112424700Y-76200000D01*
X144523700Y-76209900D02*
X140885900Y-76209900D01*
X114935000Y-76200000D02*
X120280500Y-76200000D01*
X167005000Y-57150000D02*
X164465000Y-57150000D01*
X160682000Y-127889000D02*
X164592000Y-127889000D01*
X158094000Y-125301000D02*
X160682000Y-127889000D01*
X155194000Y-125301000D02*
X158094000Y-125301000D01*
X142875000Y-87945000D02*
X144523700Y-87945000D01*
X141086700Y-122676400D02*
X138642500Y-122676400D01*
X141483600Y-123073300D02*
X141086700Y-122676400D01*
X141483600Y-124973600D02*
X141483600Y-123073300D01*
X142875000Y-126365000D02*
X141483600Y-124973600D01*
X119145100Y-106516500D02*
X118673600Y-106045000D01*
X128385100Y-106516500D02*
X119145100Y-106516500D01*
X133765100Y-87044900D02*
X132715000Y-88095000D01*
X141583700Y-87044900D02*
X133765100Y-87044900D01*
X141833700Y-87294900D02*
X141583700Y-87044900D01*
X141833700Y-87945000D02*
X141833700Y-87294900D01*
X142875000Y-87945000D02*
X141833700Y-87945000D01*
X155194000Y-125301000D02*
X144023600Y-125301000D01*
X138642500Y-122676400D02*
X131022500Y-122676400D01*
X110103400Y-122433600D02*
X105664000Y-126873000D01*
X116533700Y-122433600D02*
X110103400Y-122433600D01*
X130119700Y-90690300D02*
X120280500Y-90690300D01*
X132715000Y-88095000D02*
X130119700Y-90690300D01*
X137795000Y-106516500D02*
X131022500Y-106516500D01*
X129135200Y-122676400D02*
X131022500Y-122676400D01*
X128385100Y-121926300D02*
X129135200Y-122676400D01*
X152371900Y-75724500D02*
X166465000Y-75724500D01*
X151886500Y-76209900D02*
X152371900Y-75724500D01*
X144523700Y-76209900D02*
X151886500Y-76209900D01*
D27*
X142875000Y-107386400D02*
X136103600Y-107386400D01*
X128979200Y-80929500D02*
X128529100Y-80479400D01*
X131747500Y-80929500D02*
X128979200Y-80929500D01*
X134856500Y-77820500D02*
X131747500Y-80929500D01*
X169877100Y-49862100D02*
X167005000Y-46990000D01*
X169877100Y-75247500D02*
X169877100Y-49862100D01*
X168289600Y-76835000D02*
X169877100Y-75247500D01*
X154305000Y-76835000D02*
X168289600Y-76835000D01*
X89398200Y-97155000D02*
X91059000Y-97155000D01*
X89148200Y-96905000D02*
X89398200Y-97155000D01*
X89148200Y-94138800D02*
X89148200Y-96905000D01*
X89942000Y-93345000D02*
X89148200Y-94138800D01*
X94462500Y-93345000D02*
X89942000Y-93345000D01*
X96050000Y-91757500D02*
X94462500Y-93345000D01*
X96050000Y-82517000D02*
X96050000Y-91757500D01*
X97637500Y-80929500D02*
X96050000Y-82517000D01*
X128079000Y-80929500D02*
X97637500Y-80929500D01*
X128529100Y-80479400D02*
X128079000Y-80929500D01*
X128529100Y-76200000D02*
X130175000Y-76200000D01*
X128529100Y-80479400D02*
X128529100Y-76200000D01*
X142119500Y-77820500D02*
X134856500Y-77820500D01*
X143105000Y-76835000D02*
X142119500Y-77820500D01*
X154305000Y-76835000D02*
X143105000Y-76835000D01*
X133441400Y-75280500D02*
X144650200Y-75280500D01*
X131820900Y-73660000D02*
X133441400Y-75280500D01*
X130175000Y-73660000D02*
X131820900Y-73660000D01*
X144650200Y-75280500D02*
X145575400Y-75280500D01*
X145575400Y-75280500D02*
X146650600Y-75280500D01*
X150163700Y-75280500D02*
X146650600Y-75280500D01*
X151149200Y-74295000D02*
X150163700Y-75280500D01*
X154305000Y-74295000D02*
X151149200Y-74295000D01*
X130800100Y-92299600D02*
X140383500Y-92299600D01*
X96473700Y-94615000D02*
X91059000Y-94615000D01*
X102823700Y-88265000D02*
X96473700Y-94615000D01*
X102823700Y-87312500D02*
X102823700Y-88265000D01*
X104411200Y-85725000D02*
X102823700Y-87312500D01*
X109850800Y-85725000D02*
X104411200Y-85725000D01*
X110605900Y-84969900D02*
X109850800Y-85725000D01*
X126787900Y-84969900D02*
X110605900Y-84969900D01*
X128354200Y-83403600D02*
X126787900Y-84969900D01*
X130175000Y-71120000D02*
X130175000Y-72224400D01*
X137223600Y-72740500D02*
X142538900Y-72740500D01*
X136707500Y-72224400D02*
X137223600Y-72740500D01*
X130175000Y-72224400D02*
X136707500Y-72224400D01*
X149520200Y-71755000D02*
X150608800Y-71755000D01*
X154305000Y-71755000D02*
X151859000Y-71755000D01*
X151859000Y-71755000D02*
X150608800Y-71755000D01*
X145356100Y-72740500D02*
X145481200Y-72615500D01*
X142538900Y-72740500D02*
X145356100Y-72740500D01*
X145606200Y-72740500D02*
X145481200Y-72615500D01*
X147871200Y-72740500D02*
X145606200Y-72740500D01*
X148856700Y-71755000D02*
X147871200Y-72740500D01*
X149520200Y-71755000D02*
X148856700Y-71755000D01*
X127729100Y-77304400D02*
X127729100Y-74564200D01*
X124554100Y-80479400D02*
X127729100Y-77304400D01*
X96319300Y-80479400D02*
X124554100Y-80479400D01*
X94731800Y-82066900D02*
X96319300Y-80479400D01*
X94731800Y-92075000D02*
X94731800Y-82066900D01*
X130175000Y-68580000D02*
X130175000Y-69684400D01*
X134127400Y-70200500D02*
X141786100Y-70200500D01*
X133611300Y-69684400D02*
X134127400Y-70200500D01*
X130175000Y-69684400D02*
X133611300Y-69684400D01*
X141786100Y-70200500D02*
X141808700Y-70200500D01*
X147714500Y-70200500D02*
X141808700Y-70200500D01*
X148700000Y-69215000D02*
X147714500Y-70200500D01*
X154305000Y-69215000D02*
X148700000Y-69215000D01*
X123712600Y-73917300D02*
X126816600Y-73917300D01*
X119690500Y-77939400D02*
X123712600Y-73917300D01*
X89849400Y-77939400D02*
X119690500Y-77939400D01*
X89055600Y-78733200D02*
X89849400Y-77939400D01*
X89055600Y-87580800D02*
X89055600Y-78733200D01*
X89849400Y-88374500D02*
X89055600Y-87580800D01*
X91059000Y-88374500D02*
X89849400Y-88374500D01*
X154305000Y-66675000D02*
X151233900Y-66675000D01*
X149464100Y-100965000D02*
X145415000Y-100965000D01*
X130175000Y-67144400D02*
X130175000Y-66040000D01*
X133633500Y-67144400D02*
X130175000Y-67144400D01*
X134149600Y-67660500D02*
X133633500Y-67144400D01*
X143617400Y-67660500D02*
X134149600Y-67660500D01*
X144602900Y-66675000D02*
X143617400Y-67660500D01*
X151233900Y-66675000D02*
X144602900Y-66675000D01*
X111541700Y-67144400D02*
X130175000Y-67144400D01*
X110741100Y-67945000D02*
X111541700Y-67144400D01*
X100888100Y-67945000D02*
X110741100Y-67945000D01*
X95808100Y-73025000D02*
X100888100Y-67945000D01*
X130175000Y-60960000D02*
X130175000Y-62064400D01*
X143646700Y-61595000D02*
X154305000Y-61595000D01*
X142661200Y-62580500D02*
X143646700Y-61595000D01*
X135518600Y-62580500D02*
X142661200Y-62580500D01*
X135002500Y-62064400D02*
X135518600Y-62580500D01*
X130175000Y-62064400D02*
X135002500Y-62064400D01*
X89202600Y-56515000D02*
X91059000Y-56515000D01*
X88805700Y-56911900D02*
X89202600Y-56515000D01*
X88805700Y-59022000D02*
X88805700Y-56911900D01*
X90393200Y-60609500D02*
X88805700Y-59022000D01*
X110035300Y-60609500D02*
X90393200Y-60609500D01*
X111490200Y-62064400D02*
X110035300Y-60609500D01*
X123454900Y-62064400D02*
X111490200Y-62064400D01*
X124559300Y-60960000D02*
X123454900Y-62064400D01*
X130175000Y-60960000D02*
X124559300Y-60960000D01*
X130175000Y-55880000D02*
X130175000Y-56984400D01*
X152295900Y-56515000D02*
X154305000Y-56515000D01*
X151310400Y-57500500D02*
X152295900Y-56515000D01*
X136206900Y-57500500D02*
X151310400Y-57500500D01*
X135690800Y-56984400D02*
X136206900Y-57500500D01*
X130175000Y-56984400D02*
X135690800Y-56984400D01*
X99801300Y-59055000D02*
X91059000Y-59055000D01*
X101071300Y-57785000D02*
X99801300Y-59055000D01*
X112483900Y-57785000D02*
X101071300Y-57785000D01*
X113284500Y-56984400D02*
X112483900Y-57785000D01*
X130175000Y-56984400D02*
X113284500Y-56984400D01*
X130175000Y-53340000D02*
X130175000Y-54444400D01*
X150548300Y-53975000D02*
X154305000Y-53975000D01*
X149562800Y-54960500D02*
X150548300Y-53975000D01*
X137392500Y-54960500D02*
X149562800Y-54960500D01*
X136876400Y-54444400D02*
X137392500Y-54960500D01*
X130175000Y-54444400D02*
X136876400Y-54444400D01*
X99801300Y-53975000D02*
X91059000Y-53975000D01*
X101071300Y-55245000D02*
X99801300Y-53975000D01*
X112529100Y-55245000D02*
X101071300Y-55245000D01*
X113329700Y-54444400D02*
X112529100Y-55245000D01*
X118730600Y-54444400D02*
X113329700Y-54444400D01*
X119835000Y-53340000D02*
X118730600Y-54444400D01*
X130175000Y-53340000D02*
X119835000Y-53340000D01*
X130175000Y-50800000D02*
X130175000Y-51904400D01*
X146706900Y-51435000D02*
X154305000Y-51435000D01*
X145721400Y-52420500D02*
X146706900Y-51435000D01*
X137106700Y-52420500D02*
X145721400Y-52420500D01*
X136590600Y-51904400D02*
X137106700Y-52420500D01*
X130175000Y-51904400D02*
X136590600Y-51904400D01*
X103386800Y-51435000D02*
X91059000Y-51435000D01*
X104491200Y-52539400D02*
X103386800Y-51435000D01*
X112521500Y-52539400D02*
X104491200Y-52539400D01*
X113156500Y-51904400D02*
X112521500Y-52539400D01*
X124847300Y-51904400D02*
X113156500Y-51904400D01*
X125951700Y-50800000D02*
X124847300Y-51904400D01*
X130175000Y-50800000D02*
X125951700Y-50800000D01*
X130175000Y-48260000D02*
X130175000Y-49364400D01*
X146869400Y-48895000D02*
X154305000Y-48895000D01*
X145883900Y-49880500D02*
X146869400Y-48895000D01*
X137677200Y-49880500D02*
X145883900Y-49880500D01*
X137161100Y-49364400D02*
X137677200Y-49880500D01*
X130175000Y-49364400D02*
X137161100Y-49364400D01*
X96734400Y-60159400D02*
X96559400Y-59984400D01*
X110395800Y-60159400D02*
X96734400Y-60159400D01*
X111030800Y-59524400D02*
X110395800Y-60159400D01*
X124878900Y-59524400D02*
X111030800Y-59524400D01*
X125854000Y-58549300D02*
X124878900Y-59524400D01*
X88958000Y-66675000D02*
X91059000Y-66675000D01*
X87370500Y-65087500D02*
X88958000Y-66675000D01*
X87370500Y-43623300D02*
X87370500Y-65087500D01*
X88164200Y-42829500D02*
X87370500Y-43623300D01*
X108413300Y-42829500D02*
X88164200Y-42829500D01*
X112388900Y-46805100D02*
X108413300Y-42829500D01*
X130175000Y-46805100D02*
X112388900Y-46805100D01*
X130175000Y-45720000D02*
X130175000Y-46805100D01*
X151346000Y-43815000D02*
X154305000Y-43815000D01*
X150360500Y-42829500D02*
X151346000Y-43815000D01*
X132446300Y-42829500D02*
X150360500Y-42829500D01*
X132095800Y-43180000D02*
X132446300Y-42829500D01*
X130175000Y-43180000D02*
X132095800Y-43180000D01*
X101499300Y-79375000D02*
X91059000Y-79375000D01*
X102484800Y-78389500D02*
X101499300Y-79375000D01*
X124028700Y-78389500D02*
X102484800Y-78389500D01*
D28*
X160335000Y-62984900D02*
X160335000Y-64135000D01*
X89258400Y-69215000D02*
X91059000Y-69215000D01*
X89008400Y-69465000D02*
X89258400Y-69215000D01*
X89008400Y-74930800D02*
X89008400Y-69465000D01*
X89802100Y-75724500D02*
X89008400Y-74930800D01*
X95391100Y-75724500D02*
X89802100Y-75724500D01*
X96501600Y-76835000D02*
X95391100Y-75724500D01*
X106299000Y-76835000D02*
X96501600Y-76835000D01*
X145415000Y-98425000D02*
X150314300Y-98425000D01*
X147677700Y-111125000D02*
X145415000Y-111125000D01*
X148128900Y-110673800D02*
X147677700Y-111125000D01*
X149564200Y-110673800D02*
X148128900Y-110673800D01*
X147363700Y-119201000D02*
X146613600Y-118450900D01*
X155194000Y-119201000D02*
X147363700Y-119201000D01*
X116326400Y-99816400D02*
X117475000Y-100965000D01*
X111748200Y-99816400D02*
X116326400Y-99816400D01*
X110108400Y-75674500D02*
X111748200Y-77314300D01*
X106924100Y-75674500D02*
X110108400Y-75674500D01*
X162876000Y-49530000D02*
X164465000Y-49530000D01*
X156526000Y-43180000D02*
X162876000Y-49530000D01*
X156526000Y-39131900D02*
X156526000Y-43180000D01*
X156129100Y-38735000D02*
X156526000Y-39131900D01*
X154305000Y-38735000D02*
X156129100Y-38735000D01*
X159489000Y-90170000D02*
X158119000Y-91540000D01*
X164084000Y-90170000D02*
X159489000Y-90170000D01*
X152443300Y-98425000D02*
X158119000Y-98425000D01*
X114184900Y-89224600D02*
X111748200Y-89224600D01*
X114184900Y-88738800D02*
X114184900Y-89224600D01*
X114978700Y-87945000D02*
X114184900Y-88738800D01*
X116205000Y-87945000D02*
X114978700Y-87945000D01*
X110408400Y-108992400D02*
X109225800Y-110175000D01*
X111748200Y-108992400D02*
X110408400Y-108992400D01*
X141583700Y-93049700D02*
X141133600Y-92599600D01*
X145415000Y-93049700D02*
X141583700Y-93049700D01*
X94507100Y-110175000D02*
X96266000Y-110175000D01*
X94357000Y-110024900D02*
X94507100Y-110175000D01*
X92898000Y-110024900D02*
X94357000Y-110024900D01*
X92898000Y-111125000D02*
X92898000Y-110024900D01*
X121920000Y-87945000D02*
X121920000Y-87945000D01*
X120119800Y-87945000D02*
X121920000Y-87945000D01*
X120119800Y-87945000D02*
X120119800Y-87945000D01*
X116205000Y-87945000D02*
X120119800Y-87945000D01*
X146370000Y-92094700D02*
X146370000Y-88265000D01*
X145415000Y-93049700D02*
X146370000Y-92094700D01*
X139546100Y-87945000D02*
X137795000Y-87945000D01*
X141133600Y-89532500D02*
X139546100Y-87945000D01*
X141133600Y-92599600D02*
X141133600Y-89532500D01*
X92898000Y-116779000D02*
X90424000Y-119253000D01*
X92898000Y-111125000D02*
X92898000Y-116779000D01*
X96266000Y-110175000D02*
X109225800Y-110175000D01*
X141133600Y-93049700D02*
X127635000Y-93049700D01*
X141133600Y-92599600D02*
X141133600Y-93049700D01*
X152443300Y-98425000D02*
X150314300Y-98425000D01*
X115573300Y-93049700D02*
X111748200Y-89224600D01*
X127635000Y-93049700D02*
X115573300Y-93049700D01*
D27*
X116205000Y-112395000D02*
X117475000Y-113665000D01*
X110370400Y-112395000D02*
X116205000Y-112395000D01*
X110370400Y-89535000D02*
X106299000Y-89535000D01*
X106299000Y-88374500D02*
X110498000Y-88374500D01*
X123170300Y-82778500D02*
X123170300Y-81764500D01*
X154122100Y-116205000D02*
X145415000Y-116205000D01*
X155950900Y-46355000D02*
X154305000Y-46355000D01*
X155950900Y-43173200D02*
X155950900Y-46355000D01*
X155157200Y-42379400D02*
X155950900Y-43173200D01*
X133690000Y-42379400D02*
X155157200Y-42379400D01*
X131950600Y-40640000D02*
X133690000Y-42379400D01*
X130175000Y-40640000D02*
X131950600Y-40640000D01*
X121493800Y-84455000D02*
X106299000Y-84455000D01*
X123170300Y-82778500D02*
X121493800Y-84455000D01*
X154122100Y-81764500D02*
X123170300Y-81764500D01*
X114935000Y-109855000D02*
X114935000Y-108585000D01*
X116205000Y-109855000D02*
X114935000Y-109855000D01*
X117475000Y-111125000D02*
X116205000Y-109855000D01*
X124026700Y-118386100D02*
X141358600Y-118386100D01*
X122439200Y-116798600D02*
X124026700Y-118386100D01*
X122439200Y-114890600D02*
X122439200Y-116798600D01*
X118673600Y-111125000D02*
X122439200Y-114890600D01*
X112798400Y-107584900D02*
X107239200Y-107584900D01*
X113798500Y-108585000D02*
X112798400Y-107584900D01*
X114935000Y-108585000D02*
X113798500Y-108585000D01*
X105664000Y-107584900D02*
X101094000Y-107584900D01*
X104203000Y-74295000D02*
X106299000Y-74295000D01*
X102873100Y-75624900D02*
X104203000Y-74295000D01*
X101094000Y-75624900D02*
X102873100Y-75624900D01*
X105664000Y-107584900D02*
X107239200Y-107584900D01*
X118705200Y-74930000D02*
X119505300Y-74129900D01*
X113541300Y-74930000D02*
X118705200Y-74930000D01*
X112747600Y-74136300D02*
X113541300Y-74930000D01*
X112747600Y-73769500D02*
X112747600Y-74136300D01*
X109572600Y-70594500D02*
X112747600Y-73769500D01*
X106299000Y-70594500D02*
X109572600Y-70594500D01*
X120700300Y-86045000D02*
X121920000Y-86045000D01*
X120375000Y-85719700D02*
X120700300Y-86045000D01*
X119505300Y-85719700D02*
X120375000Y-85719700D01*
X123074900Y-128385100D02*
X125095000Y-126365000D01*
X95067600Y-128385100D02*
X123074900Y-128385100D01*
X88717600Y-122035100D02*
X95067600Y-128385100D01*
X88717600Y-117202200D02*
X88717600Y-122035100D01*
X90998000Y-114921800D02*
X88717600Y-117202200D01*
X90998000Y-111125000D02*
X90998000Y-114921800D01*
X99766600Y-66675000D02*
X106299000Y-66675000D01*
X94173000Y-105021400D02*
X99766600Y-105021400D01*
X90998000Y-108196400D02*
X94173000Y-105021400D01*
X90998000Y-111125000D02*
X90998000Y-108196400D01*
X101191800Y-117271300D02*
X100391700Y-116471200D01*
X120269000Y-117271300D02*
X101191800Y-117271300D01*
X122809000Y-119811300D02*
X120269000Y-117271300D01*
X143676700Y-119811300D02*
X122809000Y-119811300D01*
X144073600Y-119414400D02*
X143676700Y-119811300D01*
X144073600Y-118745000D02*
X144073600Y-119414400D01*
X119292400Y-121285000D02*
X142875000Y-121285000D01*
X118498600Y-120491300D02*
X119292400Y-121285000D01*
X118498600Y-118118300D02*
X118498600Y-120491300D01*
X118101700Y-117721400D02*
X118498600Y-118118300D01*
X103594400Y-117721400D02*
X118101700Y-117721400D01*
X103419400Y-117896400D02*
X103594400Y-117721400D01*
X130175000Y-59524400D02*
X130175000Y-58420000D01*
X134715900Y-59524400D02*
X130175000Y-59524400D01*
X135232000Y-60040500D02*
X134715900Y-59524400D01*
X135232000Y-60040500D02*
X146888700Y-60040500D01*
X146888700Y-60040500D02*
X147063700Y-60040500D01*
X152209000Y-59055000D02*
X154305000Y-59055000D01*
X151223500Y-60040500D02*
X152209000Y-59055000D01*
X147951400Y-60040500D02*
X151223500Y-60040500D01*
X147951400Y-60040500D02*
X147063700Y-60040500D01*
X130851100Y-104046300D02*
X129135200Y-105762200D01*
X141143200Y-104046300D02*
X130851100Y-104046300D01*
X141668300Y-104571300D02*
X141143200Y-104046300D01*
X146888700Y-104571300D02*
X141668300Y-104571300D01*
X147063700Y-104396300D02*
X146888700Y-104571300D01*
X112470200Y-116205000D02*
X114935000Y-116205000D01*
X109295200Y-113030000D02*
X112470200Y-116205000D01*
X109295200Y-112053800D02*
X109295200Y-113030000D01*
X110089000Y-111260000D02*
X109295200Y-112053800D01*
X112548300Y-111260000D02*
X110089000Y-111260000D01*
X117980600Y-63500000D02*
X130175000Y-63500000D01*
X109428200Y-61595000D02*
X106299000Y-61595000D01*
X112603200Y-64770000D02*
X109428200Y-61595000D01*
X119164700Y-64770000D02*
X112603200Y-64770000D01*
X119624200Y-65229500D02*
X119164700Y-64770000D01*
X122526500Y-65229500D02*
X119624200Y-65229500D01*
X121395000Y-116205000D02*
X117475000Y-116205000D01*
X143402000Y-64135000D02*
X154305000Y-64135000D01*
X142032400Y-65504600D02*
X143402000Y-64135000D01*
X136163400Y-65504600D02*
X142032400Y-65504600D01*
X135263200Y-64604400D02*
X136163400Y-65504600D01*
X121142300Y-64604400D02*
X135263200Y-64604400D01*
X154572200Y-102481400D02*
X119998800Y-102481400D01*
X154747200Y-102656400D02*
X154572200Y-102481400D01*
X164823800Y-83289800D02*
X166624000Y-85090000D01*
X154747200Y-83289800D02*
X164823800Y-83289800D01*
X128754600Y-89542600D02*
X117355100Y-89542600D01*
X130342100Y-87955100D02*
X128754600Y-89542600D01*
X130342100Y-86464800D02*
X130342100Y-87955100D01*
X133517100Y-83289800D02*
X130342100Y-86464800D01*
X154747200Y-83289800D02*
X133517100Y-83289800D01*
X117355100Y-86045000D02*
X116205000Y-86045000D01*
X123825000Y-125095000D02*
X122555000Y-123825000D01*
X138024900Y-125095000D02*
X123825000Y-125095000D01*
X138818600Y-125888800D02*
X138024900Y-125095000D01*
X138818600Y-127763700D02*
X138818600Y-125888800D01*
X140406100Y-129351200D02*
X138818600Y-127763700D01*
X167989700Y-129351200D02*
X140406100Y-129351200D01*
X171164700Y-126176200D02*
X167989700Y-129351200D01*
X171164700Y-43909900D02*
X171164700Y-126176200D01*
X167989700Y-40734900D02*
X171164700Y-43909900D01*
X165640100Y-40734900D02*
X167989700Y-40734900D01*
X164465000Y-41910000D02*
X165640100Y-40734900D01*
X165829900Y-45814900D02*
X164465000Y-44450000D01*
X170340400Y-45814900D02*
X165829900Y-45814900D01*
X155564400Y-65405000D02*
X147688800Y-65405000D01*
X156358100Y-64611300D02*
X155564400Y-65405000D01*
X156358100Y-55022400D02*
X156358100Y-64611300D01*
X157945600Y-53434900D02*
X156358100Y-55022400D01*
X164846400Y-53434900D02*
X157945600Y-53434900D01*
X165640100Y-52641200D02*
X164846400Y-53434900D01*
X165640100Y-48751800D02*
X165640100Y-52641200D01*
X165243200Y-48354900D02*
X165640100Y-48751800D01*
X163847700Y-48354900D02*
X165243200Y-48354900D01*
X163053900Y-47561200D02*
X163847700Y-48354900D01*
X163053900Y-39370000D02*
X163053900Y-47561200D01*
X122555000Y-131464600D02*
X170965500Y-131464600D01*
X130175000Y-108358400D02*
X139311400Y-108358400D01*
X160692000Y-84344800D02*
X139311400Y-84344800D01*
X162802100Y-86454900D02*
X160692000Y-84344800D01*
X139311400Y-86045000D02*
X137795000Y-86045000D01*
X156368800Y-122626400D02*
X159194300Y-119800900D01*
X145415000Y-122626400D02*
X156368800Y-122626400D01*
X162052000Y-73914000D02*
X168552000Y-73914000D01*
X158435000Y-65246300D02*
X158435000Y-64135000D01*
X159228800Y-66040000D02*
X158435000Y-65246300D01*
X164465000Y-66040000D02*
X159228800Y-66040000D01*
X133465100Y-90494800D02*
X140111500Y-90494800D01*
X142875000Y-86045000D02*
X140111500Y-86045000D01*
X149524200Y-88994900D02*
X163129300Y-88994900D01*
X148828900Y-89690200D02*
X149524200Y-88994900D01*
X147716900Y-89690200D02*
X148828900Y-89690200D01*
X147320000Y-89293300D02*
X147716900Y-89690200D01*
X147320000Y-87632500D02*
X147320000Y-89293300D01*
X145732500Y-86045000D02*
X147320000Y-87632500D01*
X142875000Y-86045000D02*
X145732500Y-86045000D01*
X127627600Y-116205000D02*
X142875000Y-116205000D01*
X124265400Y-112842800D02*
X127627600Y-116205000D01*
X125689500Y-88095000D02*
X127635000Y-88095000D01*
X124864400Y-87269900D02*
X125689500Y-88095000D01*
X112710600Y-87269900D02*
X124864400Y-87269900D01*
X111123100Y-88857400D02*
X112710600Y-87269900D01*
X111123100Y-91236300D02*
X111123100Y-88857400D01*
X114298100Y-94411300D02*
X111123100Y-91236300D01*
X121091800Y-94411300D02*
X114298100Y-94411300D01*
X121488700Y-94808200D02*
X121091800Y-94411300D01*
X121488700Y-99597700D02*
X121488700Y-94808200D01*
X122282500Y-100391500D02*
X121488700Y-99597700D01*
X124265400Y-100391500D02*
X122282500Y-100391500D01*
X123621300Y-99491300D02*
X122555000Y-98425000D01*
X138271300Y-99491300D02*
X123621300Y-99491300D01*
X139065000Y-98697600D02*
X138271300Y-99491300D01*
X139065000Y-95655200D02*
X139065000Y-98697600D01*
X139858800Y-94861400D02*
X139065000Y-95655200D01*
X161979600Y-94861400D02*
X139858800Y-94861400D01*
X162766100Y-94074900D02*
X161979600Y-94861400D01*
X165259100Y-94074900D02*
X162766100Y-94074900D01*
X166624000Y-92710000D02*
X165259100Y-94074900D01*
X148270000Y-86557400D02*
X148270000Y-88265000D01*
X146682500Y-84969900D02*
X148270000Y-86557400D01*
X133640100Y-84969900D02*
X146682500Y-84969900D01*
X132715000Y-85895000D02*
X133640100Y-84969900D01*
X128560100Y-86820100D02*
X127635000Y-85895000D01*
X128560100Y-88842500D02*
X128560100Y-86820100D01*
X128310100Y-89092500D02*
X128560100Y-88842500D01*
X118705700Y-89092500D02*
X128310100Y-89092500D01*
X118530700Y-88917500D02*
X118705700Y-89092500D01*
X107335600Y-112075000D02*
X96266000Y-112075000D01*
X108600700Y-110809900D02*
X107335600Y-112075000D01*
X111081400Y-110809900D02*
X108600700Y-110809900D01*
X111964900Y-109926400D02*
X111081400Y-110809900D01*
X113739100Y-109926400D02*
X111964900Y-109926400D01*
X158435000Y-57904900D02*
X158435000Y-59055000D01*
X164465000Y-59690000D02*
X167005000Y-59690000D01*
X160335000Y-60050700D02*
X160335000Y-59055000D01*
X160731900Y-60447600D02*
X160335000Y-60050700D01*
X161996300Y-60447600D02*
X160731900Y-60447600D01*
X162753900Y-59690000D02*
X161996300Y-60447600D01*
X164465000Y-59690000D02*
X162753900Y-59690000D01*
X143941300Y-102031300D02*
X142875000Y-100965000D01*
X161944200Y-102031300D02*
X143941300Y-102031300D01*
X167132000Y-100126300D02*
X167132000Y-105029000D01*
X163957000Y-96951300D02*
X167132000Y-100126300D01*
X143941300Y-96951300D02*
X163957000Y-96951300D01*
X142875000Y-95885000D02*
X143941300Y-96951300D01*
X162993100Y-105970100D02*
X164592000Y-107569000D01*
X162993100Y-101078800D02*
X162993100Y-105970100D01*
X161405600Y-99491300D02*
X162993100Y-101078800D01*
X143941300Y-99491300D02*
X161405600Y-99491300D01*
X142875000Y-98425000D02*
X143941300Y-99491300D01*
X165767100Y-106204100D02*
X167132000Y-107569000D01*
X165767100Y-100576400D02*
X165767100Y-106204100D01*
X162592100Y-97401400D02*
X165767100Y-100576400D01*
X141851400Y-97401400D02*
X162592100Y-97401400D01*
X140335000Y-95885000D02*
X141851400Y-97401400D01*
X140385000Y-105021400D02*
X140335000Y-105071400D01*
X156810000Y-105021400D02*
X140385000Y-105021400D01*
X161897600Y-110109000D02*
X156810000Y-105021400D01*
X161301900Y-82389600D02*
X137795000Y-82389600D01*
X165767100Y-111473900D02*
X164592000Y-112649000D01*
X167963500Y-111473900D02*
X165767100Y-111473900D01*
X168757200Y-110680200D02*
X167963500Y-111473900D01*
X168757200Y-93122400D02*
X168757200Y-110680200D01*
X167169700Y-91534900D02*
X168757200Y-93122400D01*
X162954200Y-91534900D02*
X167169700Y-91534900D01*
X161366700Y-93122400D02*
X162954200Y-91534900D01*
X161366700Y-93617600D02*
X161366700Y-93122400D01*
X160572900Y-94411300D02*
X161366700Y-93617600D01*
X136728700Y-94411300D02*
X160572900Y-94411300D01*
X135255000Y-95885000D02*
X136728700Y-94411300D01*
X137030200Y-112191300D02*
X135255000Y-110416100D01*
X162962900Y-112191300D02*
X137030200Y-112191300D01*
X162186200Y-111473900D02*
X151399100Y-111473900D01*
X162980000Y-110680200D02*
X162186200Y-111473900D01*
X162980000Y-109727700D02*
X162980000Y-110680200D01*
X163773700Y-108933900D02*
X162980000Y-109727700D01*
X168132100Y-108933900D02*
X163773700Y-108933900D01*
X151399100Y-115006400D02*
X127635000Y-115006400D01*
X126308300Y-95083300D02*
X126308300Y-97533700D01*
X125911400Y-94686400D02*
X126308300Y-95083300D01*
X125095000Y-94686400D02*
X125911400Y-94686400D01*
X154303900Y-110848800D02*
X161331900Y-110848800D01*
X153238700Y-109783600D02*
X154303900Y-110848800D01*
X126308300Y-109783600D02*
X153238700Y-109783600D01*
X124478800Y-93961200D02*
X122555000Y-95885000D01*
X159560400Y-93961200D02*
X124478800Y-93961200D01*
X160185500Y-93336100D02*
X159560400Y-93961200D01*
X162932900Y-118065100D02*
X162932900Y-118918900D01*
X162139100Y-117271300D02*
X162932900Y-118065100D01*
X126820200Y-117271300D02*
X162139100Y-117271300D01*
X126645200Y-117096300D02*
X126820200Y-117271300D01*
X118498600Y-94861400D02*
X117475000Y-95885000D01*
X120641700Y-94861400D02*
X118498600Y-94861400D01*
X121038600Y-95258300D02*
X120641700Y-94861400D01*
X121038600Y-100437500D02*
X121038600Y-95258300D01*
X121832400Y-101231200D02*
X121038600Y-100437500D01*
X140960100Y-101231200D02*
X121832400Y-101231200D01*
X142249900Y-99941400D02*
X140960100Y-101231200D01*
X159094200Y-99941400D02*
X142249900Y-99941400D01*
X160069300Y-100916500D02*
X159094200Y-99941400D01*
X170007400Y-120269000D02*
X167132000Y-120269000D01*
X96172700Y-98425000D02*
X114935000Y-98425000D01*
X116205000Y-104775000D02*
X114935000Y-103505000D01*
X116205000Y-106317600D02*
X116205000Y-104775000D01*
X116998800Y-107111300D02*
X116205000Y-106317600D01*
X123482000Y-107111300D02*
X116998800Y-107111300D01*
X125069500Y-108698800D02*
X123482000Y-107111300D01*
X125069500Y-109466400D02*
X125069500Y-108698800D01*
X128244500Y-112641400D02*
X125069500Y-109466400D01*
X157259500Y-112641400D02*
X128244500Y-112641400D01*
X158632000Y-114013900D02*
X157259500Y-112641400D01*
X165370200Y-114013900D02*
X158632000Y-114013900D01*
X165767100Y-114410800D02*
X165370200Y-114013900D01*
X165767100Y-121444100D02*
X165767100Y-114410800D01*
X167132000Y-122809000D02*
X165767100Y-121444100D01*
X119373700Y-101062600D02*
X119373700Y-99941400D01*
X120167500Y-101856300D02*
X119373700Y-101062600D01*
X131691400Y-101856300D02*
X120167500Y-101856300D01*
X162906600Y-125349000D02*
X164592000Y-125349000D01*
X161319100Y-123761500D02*
X162906600Y-125349000D01*
X161319100Y-120261200D02*
X161319100Y-123761500D01*
X159731600Y-118673700D02*
X161319100Y-120261200D01*
X158670400Y-118673700D02*
X159731600Y-118673700D01*
X156367800Y-120976200D02*
X158670400Y-118673700D01*
X147196000Y-120976200D02*
X156367800Y-120976200D01*
X146481200Y-120261400D02*
X147196000Y-120976200D01*
X119298700Y-120261400D02*
X146481200Y-120261400D01*
X165956900Y-124173900D02*
X167132000Y-125349000D01*
X163411300Y-124173900D02*
X165956900Y-124173900D01*
X161823800Y-122586400D02*
X163411300Y-124173900D01*
X161823800Y-119308900D02*
X161823800Y-122586400D01*
X160236300Y-117721400D02*
X161823800Y-119308900D01*
X124895900Y-117721400D02*
X160236300Y-117721400D01*
X123308400Y-116133900D02*
X124895900Y-117721400D01*
X123308400Y-110736400D02*
X123308400Y-116133900D01*
X120133400Y-107561400D02*
X123308400Y-110736400D01*
X115331900Y-107561400D02*
X120133400Y-107561400D01*
X114935000Y-107164500D02*
X115331900Y-107561400D01*
X114935000Y-106045000D02*
X114935000Y-107164500D01*
M02*
