G04 #@! TF.FileFunction,Legend,Top*
%FSLAX46Y46*%
G04 Gerber Fmt 4.6, Leading zero omitted, Abs format (unit mm)*
G04 Created by KiCad (PCBNEW 4.0.6) date 07/03/17 18:28:41*
%MOMM*%
%LPD*%
G01*
G04 APERTURE LIST*
%ADD10C,0.100000*%
%ADD11C,0.300000*%
%ADD12C,0.152400*%
%ADD13C,0.203200*%
%ADD14C,0.120000*%
%ADD15C,0.150000*%
%ADD16C,0.142240*%
%ADD17C,0.177800*%
%ADD18C,0.101600*%
%ADD19C,0.065024*%
G04 APERTURE END LIST*
D10*
D11*
X97076430Y-102913571D02*
X96219287Y-102913571D01*
X96647859Y-102913571D02*
X96647859Y-101413571D01*
X96505002Y-101627857D01*
X96362144Y-101770714D01*
X96219287Y-101842143D01*
X97933573Y-102056429D02*
X97790715Y-101985000D01*
X97719287Y-101913571D01*
X97647858Y-101770714D01*
X97647858Y-101699286D01*
X97719287Y-101556429D01*
X97790715Y-101485000D01*
X97933573Y-101413571D01*
X98219287Y-101413571D01*
X98362144Y-101485000D01*
X98433573Y-101556429D01*
X98505001Y-101699286D01*
X98505001Y-101770714D01*
X98433573Y-101913571D01*
X98362144Y-101985000D01*
X98219287Y-102056429D01*
X97933573Y-102056429D01*
X97790715Y-102127857D01*
X97719287Y-102199286D01*
X97647858Y-102342143D01*
X97647858Y-102627857D01*
X97719287Y-102770714D01*
X97790715Y-102842143D01*
X97933573Y-102913571D01*
X98219287Y-102913571D01*
X98362144Y-102842143D01*
X98433573Y-102770714D01*
X98505001Y-102627857D01*
X98505001Y-102342143D01*
X98433573Y-102199286D01*
X98362144Y-102127857D01*
X98219287Y-102056429D01*
X100290715Y-102913571D02*
X100290715Y-101413571D01*
X100790715Y-102485000D01*
X101290715Y-101413571D01*
X101290715Y-102913571D01*
X101933572Y-102485000D02*
X102647858Y-102485000D01*
X101790715Y-102913571D02*
X102290715Y-101413571D01*
X102790715Y-102913571D01*
X103576429Y-102199286D02*
X103576429Y-102913571D01*
X103076429Y-101413571D02*
X103576429Y-102199286D01*
X104076429Y-101413571D01*
X105647857Y-101556429D02*
X105719286Y-101485000D01*
X105862143Y-101413571D01*
X106219286Y-101413571D01*
X106362143Y-101485000D01*
X106433572Y-101556429D01*
X106505000Y-101699286D01*
X106505000Y-101842143D01*
X106433572Y-102056429D01*
X105576429Y-102913571D01*
X106505000Y-102913571D01*
X107433571Y-101413571D02*
X107576428Y-101413571D01*
X107719285Y-101485000D01*
X107790714Y-101556429D01*
X107862143Y-101699286D01*
X107933571Y-101985000D01*
X107933571Y-102342143D01*
X107862143Y-102627857D01*
X107790714Y-102770714D01*
X107719285Y-102842143D01*
X107576428Y-102913571D01*
X107433571Y-102913571D01*
X107290714Y-102842143D01*
X107219285Y-102770714D01*
X107147857Y-102627857D01*
X107076428Y-102342143D01*
X107076428Y-101985000D01*
X107147857Y-101699286D01*
X107219285Y-101556429D01*
X107290714Y-101485000D01*
X107433571Y-101413571D01*
X109362142Y-102913571D02*
X108504999Y-102913571D01*
X108933571Y-102913571D02*
X108933571Y-101413571D01*
X108790714Y-101627857D01*
X108647856Y-101770714D01*
X108504999Y-101842143D01*
X109862142Y-101413571D02*
X110862142Y-101413571D01*
X110219285Y-102913571D01*
X86810001Y-106723571D02*
X86810001Y-105223571D01*
X87310001Y-106295000D01*
X87810001Y-105223571D01*
X87810001Y-106723571D01*
X89381430Y-106580714D02*
X89310001Y-106652143D01*
X89095715Y-106723571D01*
X88952858Y-106723571D01*
X88738573Y-106652143D01*
X88595715Y-106509286D01*
X88524287Y-106366429D01*
X88452858Y-106080714D01*
X88452858Y-105866429D01*
X88524287Y-105580714D01*
X88595715Y-105437857D01*
X88738573Y-105295000D01*
X88952858Y-105223571D01*
X89095715Y-105223571D01*
X89310001Y-105295000D01*
X89381430Y-105366429D01*
X90667144Y-105223571D02*
X90381430Y-105223571D01*
X90238573Y-105295000D01*
X90167144Y-105366429D01*
X90024287Y-105580714D01*
X89952858Y-105866429D01*
X89952858Y-106437857D01*
X90024287Y-106580714D01*
X90095715Y-106652143D01*
X90238573Y-106723571D01*
X90524287Y-106723571D01*
X90667144Y-106652143D01*
X90738573Y-106580714D01*
X90810001Y-106437857D01*
X90810001Y-106080714D01*
X90738573Y-105937857D01*
X90667144Y-105866429D01*
X90524287Y-105795000D01*
X90238573Y-105795000D01*
X90095715Y-105866429D01*
X90024287Y-105937857D01*
X89952858Y-106080714D01*
X91667144Y-105866429D02*
X91524286Y-105795000D01*
X91452858Y-105723571D01*
X91381429Y-105580714D01*
X91381429Y-105509286D01*
X91452858Y-105366429D01*
X91524286Y-105295000D01*
X91667144Y-105223571D01*
X91952858Y-105223571D01*
X92095715Y-105295000D01*
X92167144Y-105366429D01*
X92238572Y-105509286D01*
X92238572Y-105580714D01*
X92167144Y-105723571D01*
X92095715Y-105795000D01*
X91952858Y-105866429D01*
X91667144Y-105866429D01*
X91524286Y-105937857D01*
X91452858Y-106009286D01*
X91381429Y-106152143D01*
X91381429Y-106437857D01*
X91452858Y-106580714D01*
X91524286Y-106652143D01*
X91667144Y-106723571D01*
X91952858Y-106723571D01*
X92095715Y-106652143D01*
X92167144Y-106580714D01*
X92238572Y-106437857D01*
X92238572Y-106152143D01*
X92167144Y-106009286D01*
X92095715Y-105937857D01*
X91952858Y-105866429D01*
X93167143Y-105223571D02*
X93310000Y-105223571D01*
X93452857Y-105295000D01*
X93524286Y-105366429D01*
X93595715Y-105509286D01*
X93667143Y-105795000D01*
X93667143Y-106152143D01*
X93595715Y-106437857D01*
X93524286Y-106580714D01*
X93452857Y-106652143D01*
X93310000Y-106723571D01*
X93167143Y-106723571D01*
X93024286Y-106652143D01*
X92952857Y-106580714D01*
X92881429Y-106437857D01*
X92810000Y-106152143D01*
X92810000Y-105795000D01*
X92881429Y-105509286D01*
X92952857Y-105366429D01*
X93024286Y-105295000D01*
X93167143Y-105223571D01*
X94595714Y-105223571D02*
X94738571Y-105223571D01*
X94881428Y-105295000D01*
X94952857Y-105366429D01*
X95024286Y-105509286D01*
X95095714Y-105795000D01*
X95095714Y-106152143D01*
X95024286Y-106437857D01*
X94952857Y-106580714D01*
X94881428Y-106652143D01*
X94738571Y-106723571D01*
X94595714Y-106723571D01*
X94452857Y-106652143D01*
X94381428Y-106580714D01*
X94310000Y-106437857D01*
X94238571Y-106152143D01*
X94238571Y-105795000D01*
X94310000Y-105509286D01*
X94381428Y-105366429D01*
X94452857Y-105295000D01*
X94595714Y-105223571D01*
X95952857Y-105866429D02*
X95809999Y-105795000D01*
X95738571Y-105723571D01*
X95667142Y-105580714D01*
X95667142Y-105509286D01*
X95738571Y-105366429D01*
X95809999Y-105295000D01*
X95952857Y-105223571D01*
X96238571Y-105223571D01*
X96381428Y-105295000D01*
X96452857Y-105366429D01*
X96524285Y-105509286D01*
X96524285Y-105580714D01*
X96452857Y-105723571D01*
X96381428Y-105795000D01*
X96238571Y-105866429D01*
X95952857Y-105866429D01*
X95809999Y-105937857D01*
X95738571Y-106009286D01*
X95667142Y-106152143D01*
X95667142Y-106437857D01*
X95738571Y-106580714D01*
X95809999Y-106652143D01*
X95952857Y-106723571D01*
X96238571Y-106723571D01*
X96381428Y-106652143D01*
X96452857Y-106580714D01*
X96524285Y-106437857D01*
X96524285Y-106152143D01*
X96452857Y-106009286D01*
X96381428Y-105937857D01*
X96238571Y-105866429D01*
X98309999Y-106723571D02*
X98309999Y-105723571D01*
X98309999Y-105866429D02*
X98381427Y-105795000D01*
X98524285Y-105723571D01*
X98738570Y-105723571D01*
X98881427Y-105795000D01*
X98952856Y-105937857D01*
X98952856Y-106723571D01*
X98952856Y-105937857D02*
X99024285Y-105795000D01*
X99167142Y-105723571D01*
X99381427Y-105723571D01*
X99524285Y-105795000D01*
X99595713Y-105937857D01*
X99595713Y-106723571D01*
X101024285Y-106723571D02*
X100309999Y-106723571D01*
X100309999Y-105223571D01*
X101524285Y-106723571D02*
X101524285Y-105723571D01*
X101524285Y-105223571D02*
X101452856Y-105295000D01*
X101524285Y-105366429D01*
X101595713Y-105295000D01*
X101524285Y-105223571D01*
X101524285Y-105366429D01*
X102238571Y-105723571D02*
X102238571Y-106723571D01*
X102238571Y-105866429D02*
X102309999Y-105795000D01*
X102452857Y-105723571D01*
X102667142Y-105723571D01*
X102809999Y-105795000D01*
X102881428Y-105937857D01*
X102881428Y-106723571D01*
X104238571Y-105723571D02*
X104238571Y-106723571D01*
X103595714Y-105723571D02*
X103595714Y-106509286D01*
X103667142Y-106652143D01*
X103810000Y-106723571D01*
X104024285Y-106723571D01*
X104167142Y-106652143D01*
X104238571Y-106580714D01*
X104810000Y-106723571D02*
X105595714Y-105723571D01*
X104810000Y-105723571D02*
X105595714Y-106723571D01*
X107167143Y-105723571D02*
X107524286Y-106723571D01*
X107881428Y-105723571D01*
X108738571Y-105223571D02*
X108881428Y-105223571D01*
X109024285Y-105295000D01*
X109095714Y-105366429D01*
X109167143Y-105509286D01*
X109238571Y-105795000D01*
X109238571Y-106152143D01*
X109167143Y-106437857D01*
X109095714Y-106580714D01*
X109024285Y-106652143D01*
X108881428Y-106723571D01*
X108738571Y-106723571D01*
X108595714Y-106652143D01*
X108524285Y-106580714D01*
X108452857Y-106437857D01*
X108381428Y-106152143D01*
X108381428Y-105795000D01*
X108452857Y-105509286D01*
X108524285Y-105366429D01*
X108595714Y-105295000D01*
X108738571Y-105223571D01*
X109881428Y-106580714D02*
X109952856Y-106652143D01*
X109881428Y-106723571D01*
X109809999Y-106652143D01*
X109881428Y-106580714D01*
X109881428Y-106723571D01*
X111381428Y-106723571D02*
X110524285Y-106723571D01*
X110952857Y-106723571D02*
X110952857Y-105223571D01*
X110810000Y-105437857D01*
X110667142Y-105580714D01*
X110524285Y-105652143D01*
D12*
X129286000Y-77470000D02*
X129286000Y-36830000D01*
X115824000Y-36830000D02*
X115824000Y-77470000D01*
X129286000Y-77470000D02*
X115824000Y-77470000D01*
X129286000Y-36830000D02*
X123571000Y-36830000D01*
X115824000Y-36830000D02*
X121539000Y-36830000D01*
X121539000Y-36830000D02*
G75*
G03X123571000Y-36830000I1016000J0D01*
G01*
X92075000Y-38100000D02*
X92075000Y-97790000D01*
X92075000Y-97790000D02*
X105283000Y-97790000D01*
X105283000Y-97790000D02*
X105283000Y-38100000D01*
X105283000Y-38100000D02*
X99568000Y-38100000D01*
X92075000Y-38100000D02*
X97536000Y-38100000D01*
X97536000Y-38100000D02*
G75*
G03X99568000Y-38100000I1016000J0D01*
G01*
X153416000Y-78105000D02*
X153416000Y-37465000D01*
X139954000Y-37465000D02*
X139954000Y-78105000D01*
X153416000Y-78105000D02*
X139954000Y-78105000D01*
X153416000Y-37465000D02*
X147701000Y-37465000D01*
X139954000Y-37465000D02*
X145669000Y-37465000D01*
X145669000Y-37465000D02*
G75*
G03X147701000Y-37465000I1016000J0D01*
G01*
D13*
X150894000Y-132701000D02*
X159494000Y-132701000D01*
X150894000Y-118401000D02*
X150894000Y-132701000D01*
X152494000Y-118401000D02*
X150894000Y-118401000D01*
X159494000Y-118401000D02*
X157894000Y-118401000D01*
X159494000Y-132701000D02*
X159494000Y-124751000D01*
X159494000Y-120001000D02*
X159494000Y-118401000D01*
D14*
X91348000Y-110245000D02*
X92548000Y-110245000D01*
X92548000Y-112005000D02*
X91348000Y-112005000D01*
X122800000Y-86395000D02*
X122800000Y-87595000D01*
X121040000Y-87595000D02*
X121040000Y-86395000D01*
X143755000Y-86395000D02*
X143755000Y-87595000D01*
X141995000Y-87595000D02*
X141995000Y-86395000D01*
X138675000Y-86395000D02*
X138675000Y-87595000D01*
X136915000Y-87595000D02*
X136915000Y-86395000D01*
X117085000Y-86395000D02*
X117085000Y-87595000D01*
X115325000Y-87595000D02*
X115325000Y-86395000D01*
X87594000Y-117363000D02*
X87594000Y-129513000D01*
X107744000Y-116613000D02*
X88344000Y-116613000D01*
X108494000Y-128763000D02*
X108494000Y-117363000D01*
X87594000Y-129513000D02*
X107744000Y-129513000D01*
X107744000Y-129513000D02*
G75*
G03X108494000Y-128763000I0J750000D01*
G01*
X108494000Y-117363000D02*
G75*
G03X107744000Y-116613000I-750000J0D01*
G01*
X88344000Y-116613000D02*
G75*
G03X87594000Y-117363000I0J-750000D01*
G01*
X132015000Y-88795000D02*
X133415000Y-88795000D01*
X133415000Y-88795000D02*
X133415000Y-85995000D01*
X132015000Y-88795000D02*
X132015000Y-85995000D01*
X126935000Y-88795000D02*
X128335000Y-88795000D01*
X128335000Y-88795000D02*
X128335000Y-85995000D01*
X126935000Y-88795000D02*
X126935000Y-85995000D01*
X147920000Y-89145000D02*
X146720000Y-89145000D01*
X146720000Y-87385000D02*
X147920000Y-87385000D01*
X95386000Y-111725000D02*
X95386000Y-110525000D01*
X97146000Y-110525000D02*
X97146000Y-111725000D01*
X159985000Y-59935000D02*
X158785000Y-59935000D01*
X158785000Y-58175000D02*
X159985000Y-58175000D01*
X159985000Y-65015000D02*
X158785000Y-65015000D01*
X158785000Y-63255000D02*
X159985000Y-63255000D01*
X163052000Y-79414000D02*
X167552000Y-79414000D01*
X161802000Y-75414000D02*
X161802000Y-76914000D01*
X167552000Y-72914000D02*
X163052000Y-72914000D01*
X168802000Y-76914000D02*
X168802000Y-75414000D01*
X163135000Y-38100000D02*
X163135000Y-61020000D01*
X163135000Y-61020000D02*
X168335000Y-61020000D01*
X168335000Y-61020000D02*
X168335000Y-35500000D01*
X168335000Y-35500000D02*
X165735000Y-35500000D01*
X165735000Y-35500000D02*
X165735000Y-38100000D01*
X165735000Y-38100000D02*
X163135000Y-38100000D01*
X163135000Y-36830000D02*
X163135000Y-35500000D01*
X163135000Y-35500000D02*
X164465000Y-35500000D01*
X167954000Y-93980000D02*
X167954000Y-83760000D01*
X167954000Y-83760000D02*
X162754000Y-83760000D01*
X162754000Y-83760000D02*
X162754000Y-96580000D01*
X162754000Y-96580000D02*
X165354000Y-96580000D01*
X165354000Y-96580000D02*
X165354000Y-93980000D01*
X165354000Y-93980000D02*
X167954000Y-93980000D01*
X167954000Y-95250000D02*
X167954000Y-96580000D01*
X167954000Y-96580000D02*
X166624000Y-96580000D01*
X94996000Y-102235000D02*
G75*
G03X94996000Y-102235000I-2286000J0D01*
G01*
X161671000Y-38100000D02*
G75*
G03X161671000Y-38100000I-2286000J0D01*
G01*
X154051000Y-91440000D02*
G75*
G03X154051000Y-91440000I-2286000J0D01*
G01*
X167404361Y-65260911D02*
G75*
G03X163526005Y-65260000I-1939361J-779089D01*
G01*
X167404361Y-66819089D02*
G75*
G02X163526005Y-66820000I-1939361J779089D01*
G01*
X167404361Y-66819089D02*
G75*
G03X167403995Y-65260000I-1939361J779089D01*
G01*
X165465000Y-63990000D02*
X165465000Y-68090000D01*
X165505000Y-63990000D02*
X165505000Y-68090000D01*
X165545000Y-63991000D02*
X165545000Y-68089000D01*
X165585000Y-63993000D02*
X165585000Y-68087000D01*
X165625000Y-63996000D02*
X165625000Y-68084000D01*
X165665000Y-63999000D02*
X165665000Y-68081000D01*
X165705000Y-64003000D02*
X165705000Y-65260000D01*
X165705000Y-66820000D02*
X165705000Y-68077000D01*
X165745000Y-64008000D02*
X165745000Y-65260000D01*
X165745000Y-66820000D02*
X165745000Y-68072000D01*
X165785000Y-64014000D02*
X165785000Y-65260000D01*
X165785000Y-66820000D02*
X165785000Y-68066000D01*
X165825000Y-64021000D02*
X165825000Y-65260000D01*
X165825000Y-66820000D02*
X165825000Y-68059000D01*
X165865000Y-64028000D02*
X165865000Y-65260000D01*
X165865000Y-66820000D02*
X165865000Y-68052000D01*
X165905000Y-64036000D02*
X165905000Y-65260000D01*
X165905000Y-66820000D02*
X165905000Y-68044000D01*
X165945000Y-64045000D02*
X165945000Y-65260000D01*
X165945000Y-66820000D02*
X165945000Y-68035000D01*
X165985000Y-64055000D02*
X165985000Y-65260000D01*
X165985000Y-66820000D02*
X165985000Y-68025000D01*
X166025000Y-64066000D02*
X166025000Y-65260000D01*
X166025000Y-66820000D02*
X166025000Y-68014000D01*
X166065000Y-64077000D02*
X166065000Y-65260000D01*
X166065000Y-66820000D02*
X166065000Y-68003000D01*
X166105000Y-64090000D02*
X166105000Y-65260000D01*
X166105000Y-66820000D02*
X166105000Y-67990000D01*
X166145000Y-64103000D02*
X166145000Y-65260000D01*
X166145000Y-66820000D02*
X166145000Y-67977000D01*
X166186000Y-64117000D02*
X166186000Y-65260000D01*
X166186000Y-66820000D02*
X166186000Y-67963000D01*
X166226000Y-64133000D02*
X166226000Y-65260000D01*
X166226000Y-66820000D02*
X166226000Y-67947000D01*
X166266000Y-64149000D02*
X166266000Y-65260000D01*
X166266000Y-66820000D02*
X166266000Y-67931000D01*
X166306000Y-64166000D02*
X166306000Y-65260000D01*
X166306000Y-66820000D02*
X166306000Y-67914000D01*
X166346000Y-64184000D02*
X166346000Y-65260000D01*
X166346000Y-66820000D02*
X166346000Y-67896000D01*
X166386000Y-64203000D02*
X166386000Y-65260000D01*
X166386000Y-66820000D02*
X166386000Y-67877000D01*
X166426000Y-64223000D02*
X166426000Y-65260000D01*
X166426000Y-66820000D02*
X166426000Y-67857000D01*
X166466000Y-64244000D02*
X166466000Y-65260000D01*
X166466000Y-66820000D02*
X166466000Y-67836000D01*
X166506000Y-64267000D02*
X166506000Y-65260000D01*
X166506000Y-66820000D02*
X166506000Y-67813000D01*
X166546000Y-64290000D02*
X166546000Y-65260000D01*
X166546000Y-66820000D02*
X166546000Y-67790000D01*
X166586000Y-64315000D02*
X166586000Y-65260000D01*
X166586000Y-66820000D02*
X166586000Y-67765000D01*
X166626000Y-64341000D02*
X166626000Y-65260000D01*
X166626000Y-66820000D02*
X166626000Y-67739000D01*
X166666000Y-64368000D02*
X166666000Y-65260000D01*
X166666000Y-66820000D02*
X166666000Y-67712000D01*
X166706000Y-64397000D02*
X166706000Y-65260000D01*
X166706000Y-66820000D02*
X166706000Y-67683000D01*
X166746000Y-64427000D02*
X166746000Y-65260000D01*
X166746000Y-66820000D02*
X166746000Y-67653000D01*
X166786000Y-64459000D02*
X166786000Y-65260000D01*
X166786000Y-66820000D02*
X166786000Y-67621000D01*
X166826000Y-64493000D02*
X166826000Y-65260000D01*
X166826000Y-66820000D02*
X166826000Y-67587000D01*
X166866000Y-64528000D02*
X166866000Y-65260000D01*
X166866000Y-66820000D02*
X166866000Y-67552000D01*
X166906000Y-64565000D02*
X166906000Y-65260000D01*
X166906000Y-66820000D02*
X166906000Y-67515000D01*
X166946000Y-64604000D02*
X166946000Y-65260000D01*
X166946000Y-66820000D02*
X166946000Y-67476000D01*
X166986000Y-64645000D02*
X166986000Y-65260000D01*
X166986000Y-66820000D02*
X166986000Y-67435000D01*
X167026000Y-64689000D02*
X167026000Y-65260000D01*
X167026000Y-66820000D02*
X167026000Y-67391000D01*
X167066000Y-64735000D02*
X167066000Y-65260000D01*
X167066000Y-66820000D02*
X167066000Y-67345000D01*
X167106000Y-64784000D02*
X167106000Y-65260000D01*
X167106000Y-66820000D02*
X167106000Y-67296000D01*
X167146000Y-64836000D02*
X167146000Y-65260000D01*
X167146000Y-66820000D02*
X167146000Y-67244000D01*
X167186000Y-64892000D02*
X167186000Y-65260000D01*
X167186000Y-66820000D02*
X167186000Y-67188000D01*
X167226000Y-64952000D02*
X167226000Y-65260000D01*
X167226000Y-66820000D02*
X167226000Y-67128000D01*
X167266000Y-65017000D02*
X167266000Y-67063000D01*
X167306000Y-65088000D02*
X167306000Y-66992000D01*
X167346000Y-65166000D02*
X167346000Y-66914000D01*
X167386000Y-65254000D02*
X167386000Y-66826000D01*
X167426000Y-65354000D02*
X167426000Y-66726000D01*
X167466000Y-65473000D02*
X167466000Y-66607000D01*
X167506000Y-65625000D02*
X167506000Y-66455000D01*
X167546000Y-65875000D02*
X167546000Y-66205000D01*
X162765000Y-66040000D02*
X163665000Y-66040000D01*
X163215000Y-65590000D02*
X163215000Y-66490000D01*
D15*
X120015000Y-117475000D02*
X122555000Y-121285000D01*
X122555000Y-121285000D02*
X140335000Y-121285000D01*
X140335000Y-121285000D02*
X140335000Y-100965000D01*
X140335000Y-100965000D02*
X120015000Y-100965000D01*
X113665000Y-94615000D02*
X113665000Y-127635000D01*
X113665000Y-127635000D02*
X146685000Y-127635000D01*
X146685000Y-127635000D02*
X146685000Y-94615000D01*
X146685000Y-94615000D02*
X113665000Y-94615000D01*
X120015000Y-100965000D02*
X120015000Y-117475000D01*
D14*
X163262000Y-106299000D02*
X163262000Y-129219000D01*
X163262000Y-129219000D02*
X168462000Y-129219000D01*
X168462000Y-129219000D02*
X168462000Y-103699000D01*
X168462000Y-103699000D02*
X165862000Y-103699000D01*
X165862000Y-103699000D02*
X165862000Y-106299000D01*
X165862000Y-106299000D02*
X163262000Y-106299000D01*
X163262000Y-105029000D02*
X163262000Y-103699000D01*
X163262000Y-103699000D02*
X164592000Y-103699000D01*
D10*
G36*
X153600150Y-110255050D02*
X153904950Y-110255050D01*
X153904950Y-110216950D01*
X153600150Y-110216950D01*
X153600150Y-110255050D01*
G37*
G36*
X157219650Y-110255050D02*
X157638750Y-110255050D01*
X157638750Y-110216950D01*
X157219650Y-110216950D01*
X157219650Y-110255050D01*
G37*
G36*
X153371550Y-110216950D02*
X154171650Y-110216950D01*
X154171650Y-110178850D01*
X153371550Y-110178850D01*
X153371550Y-110216950D01*
G37*
G36*
X156991050Y-110216950D02*
X157791150Y-110216950D01*
X157791150Y-110178850D01*
X156991050Y-110178850D01*
X156991050Y-110216950D01*
G37*
G36*
X153257250Y-110178850D02*
X154324050Y-110178850D01*
X154324050Y-110140750D01*
X153257250Y-110140750D01*
X153257250Y-110178850D01*
G37*
G36*
X156838650Y-110178850D02*
X157905450Y-110178850D01*
X157905450Y-110140750D01*
X156838650Y-110140750D01*
X156838650Y-110178850D01*
G37*
G36*
X153181050Y-110140750D02*
X154476450Y-110140750D01*
X154476450Y-110102650D01*
X153181050Y-110102650D01*
X153181050Y-110140750D01*
G37*
G36*
X156686250Y-110140750D02*
X157981650Y-110140750D01*
X157981650Y-110102650D01*
X156686250Y-110102650D01*
X156686250Y-110140750D01*
G37*
G36*
X153142950Y-110102650D02*
X154628850Y-110102650D01*
X154628850Y-110064550D01*
X153142950Y-110064550D01*
X153142950Y-110102650D01*
G37*
G36*
X156571950Y-110102650D02*
X158057850Y-110102650D01*
X158057850Y-110064550D01*
X156571950Y-110064550D01*
X156571950Y-110102650D01*
G37*
G36*
X153066750Y-110064550D02*
X154781250Y-110064550D01*
X154781250Y-110026450D01*
X153066750Y-110026450D01*
X153066750Y-110064550D01*
G37*
G36*
X156419550Y-110064550D02*
X158134050Y-110064550D01*
X158134050Y-110026450D01*
X156419550Y-110026450D01*
X156419550Y-110064550D01*
G37*
G36*
X153028650Y-110026450D02*
X154895550Y-110026450D01*
X154895550Y-109988350D01*
X153028650Y-109988350D01*
X153028650Y-110026450D01*
G37*
G36*
X156267150Y-110026450D02*
X158172150Y-110026450D01*
X158172150Y-109988350D01*
X156267150Y-109988350D01*
X156267150Y-110026450D01*
G37*
G36*
X152952450Y-109988350D02*
X155086050Y-109988350D01*
X155086050Y-109950250D01*
X152952450Y-109950250D01*
X152952450Y-109988350D01*
G37*
G36*
X156114750Y-109988350D02*
X158248350Y-109988350D01*
X158248350Y-109950250D01*
X156114750Y-109950250D01*
X156114750Y-109988350D01*
G37*
G36*
X152914350Y-109950250D02*
X155276550Y-109950250D01*
X155276550Y-109912150D01*
X152914350Y-109912150D01*
X152914350Y-109950250D01*
G37*
G36*
X155886150Y-109950250D02*
X158286450Y-109950250D01*
X158286450Y-109912150D01*
X155886150Y-109912150D01*
X155886150Y-109950250D01*
G37*
G36*
X152876250Y-109912150D02*
X158324550Y-109912150D01*
X158324550Y-109874050D01*
X152876250Y-109874050D01*
X152876250Y-109912150D01*
G37*
G36*
X152838150Y-109874050D02*
X158362650Y-109874050D01*
X158362650Y-109835950D01*
X152838150Y-109835950D01*
X152838150Y-109874050D01*
G37*
G36*
X152800050Y-109835950D02*
X158400750Y-109835950D01*
X158400750Y-109797850D01*
X152800050Y-109797850D01*
X152800050Y-109835950D01*
G37*
G36*
X152761950Y-109797850D02*
X158438850Y-109797850D01*
X158438850Y-109759750D01*
X152761950Y-109759750D01*
X152761950Y-109797850D01*
G37*
G36*
X152761950Y-109759750D02*
X158476950Y-109759750D01*
X158476950Y-109721650D01*
X152761950Y-109721650D01*
X152761950Y-109759750D01*
G37*
G36*
X152723850Y-109721650D02*
X158476950Y-109721650D01*
X158476950Y-109683550D01*
X152723850Y-109683550D01*
X152723850Y-109721650D01*
G37*
G36*
X152685750Y-109683550D02*
X158515050Y-109683550D01*
X158515050Y-109645450D01*
X152685750Y-109645450D01*
X152685750Y-109683550D01*
G37*
G36*
X152685750Y-109645450D02*
X158553150Y-109645450D01*
X158553150Y-109607350D01*
X152685750Y-109607350D01*
X152685750Y-109645450D01*
G37*
G36*
X152647650Y-109607350D02*
X158553150Y-109607350D01*
X158553150Y-109569250D01*
X152647650Y-109569250D01*
X152647650Y-109607350D01*
G37*
G36*
X152647650Y-109569250D02*
X158591250Y-109569250D01*
X158591250Y-109531150D01*
X152647650Y-109531150D01*
X152647650Y-109569250D01*
G37*
G36*
X152609550Y-109531150D02*
X158591250Y-109531150D01*
X158591250Y-109493050D01*
X152609550Y-109493050D01*
X152609550Y-109531150D01*
G37*
G36*
X152609550Y-109493050D02*
X158629350Y-109493050D01*
X158629350Y-109454950D01*
X152609550Y-109454950D01*
X152609550Y-109493050D01*
G37*
G36*
X152571450Y-109454950D02*
X158629350Y-109454950D01*
X158629350Y-109416850D01*
X152571450Y-109416850D01*
X152571450Y-109454950D01*
G37*
G36*
X152571450Y-109416850D02*
X158667450Y-109416850D01*
X158667450Y-109378750D01*
X152571450Y-109378750D01*
X152571450Y-109416850D01*
G37*
G36*
X152571450Y-109378750D02*
X158667450Y-109378750D01*
X158667450Y-109340650D01*
X152571450Y-109340650D01*
X152571450Y-109378750D01*
G37*
G36*
X152533350Y-109340650D02*
X158667450Y-109340650D01*
X158667450Y-109302550D01*
X152533350Y-109302550D01*
X152533350Y-109340650D01*
G37*
G36*
X152533350Y-109302550D02*
X158705550Y-109302550D01*
X158705550Y-109264450D01*
X152533350Y-109264450D01*
X152533350Y-109302550D01*
G37*
G36*
X152533350Y-109264450D02*
X158705550Y-109264450D01*
X158705550Y-109226350D01*
X152533350Y-109226350D01*
X152533350Y-109264450D01*
G37*
G36*
X152533350Y-109226350D02*
X158705550Y-109226350D01*
X158705550Y-109188250D01*
X152533350Y-109188250D01*
X152533350Y-109226350D01*
G37*
G36*
X152495250Y-109188250D02*
X158705550Y-109188250D01*
X158705550Y-109150150D01*
X152495250Y-109150150D01*
X152495250Y-109188250D01*
G37*
G36*
X152495250Y-109150150D02*
X158705550Y-109150150D01*
X158705550Y-109112050D01*
X152495250Y-109112050D01*
X152495250Y-109150150D01*
G37*
G36*
X152495250Y-109112050D02*
X158743650Y-109112050D01*
X158743650Y-109073950D01*
X152495250Y-109073950D01*
X152495250Y-109112050D01*
G37*
G36*
X152495250Y-109073950D02*
X158743650Y-109073950D01*
X158743650Y-109035850D01*
X152495250Y-109035850D01*
X152495250Y-109073950D01*
G37*
G36*
X152495250Y-109035850D02*
X158743650Y-109035850D01*
X158743650Y-108997750D01*
X152495250Y-108997750D01*
X152495250Y-109035850D01*
G37*
G36*
X152495250Y-108997750D02*
X158743650Y-108997750D01*
X158743650Y-108959650D01*
X152495250Y-108959650D01*
X152495250Y-108997750D01*
G37*
G36*
X152495250Y-108959650D02*
X158743650Y-108959650D01*
X158743650Y-108921550D01*
X152495250Y-108921550D01*
X152495250Y-108959650D01*
G37*
G36*
X152495250Y-108921550D02*
X158743650Y-108921550D01*
X158743650Y-108883450D01*
X152495250Y-108883450D01*
X152495250Y-108921550D01*
G37*
G36*
X152495250Y-108883450D02*
X158743650Y-108883450D01*
X158743650Y-108845350D01*
X152495250Y-108845350D01*
X152495250Y-108883450D01*
G37*
G36*
X152495250Y-108845350D02*
X158743650Y-108845350D01*
X158743650Y-108807250D01*
X152495250Y-108807250D01*
X152495250Y-108845350D01*
G37*
G36*
X152495250Y-108807250D02*
X158743650Y-108807250D01*
X158743650Y-108769150D01*
X152495250Y-108769150D01*
X152495250Y-108807250D01*
G37*
G36*
X152495250Y-108769150D02*
X158743650Y-108769150D01*
X158743650Y-108731050D01*
X152495250Y-108731050D01*
X152495250Y-108769150D01*
G37*
G36*
X152495250Y-108731050D02*
X158705550Y-108731050D01*
X158705550Y-108692950D01*
X152495250Y-108692950D01*
X152495250Y-108731050D01*
G37*
G36*
X152495250Y-108692950D02*
X158705550Y-108692950D01*
X158705550Y-108654850D01*
X152495250Y-108654850D01*
X152495250Y-108692950D01*
G37*
G36*
X152533350Y-108654850D02*
X158705550Y-108654850D01*
X158705550Y-108616750D01*
X152533350Y-108616750D01*
X152533350Y-108654850D01*
G37*
G36*
X152533350Y-108616750D02*
X158705550Y-108616750D01*
X158705550Y-108578650D01*
X152533350Y-108578650D01*
X152533350Y-108616750D01*
G37*
G36*
X152533350Y-108578650D02*
X158705550Y-108578650D01*
X158705550Y-108540550D01*
X152533350Y-108540550D01*
X152533350Y-108578650D01*
G37*
G36*
X152533350Y-108540550D02*
X158667450Y-108540550D01*
X158667450Y-108502450D01*
X152533350Y-108502450D01*
X152533350Y-108540550D01*
G37*
G36*
X152533350Y-108502450D02*
X158667450Y-108502450D01*
X158667450Y-108464350D01*
X152533350Y-108464350D01*
X152533350Y-108502450D01*
G37*
G36*
X152571450Y-108464350D02*
X158667450Y-108464350D01*
X158667450Y-108426250D01*
X152571450Y-108426250D01*
X152571450Y-108464350D01*
G37*
G36*
X152571450Y-108426250D02*
X158667450Y-108426250D01*
X158667450Y-108388150D01*
X152571450Y-108388150D01*
X152571450Y-108426250D01*
G37*
G36*
X152571450Y-108388150D02*
X158629350Y-108388150D01*
X158629350Y-108350050D01*
X152571450Y-108350050D01*
X152571450Y-108388150D01*
G37*
G36*
X152609550Y-108350050D02*
X158629350Y-108350050D01*
X158629350Y-108311950D01*
X152609550Y-108311950D01*
X152609550Y-108350050D01*
G37*
G36*
X152609550Y-108311950D02*
X158591250Y-108311950D01*
X158591250Y-108273850D01*
X152609550Y-108273850D01*
X152609550Y-108311950D01*
G37*
G36*
X152647650Y-108273850D02*
X158591250Y-108273850D01*
X158591250Y-108235750D01*
X152647650Y-108235750D01*
X152647650Y-108273850D01*
G37*
G36*
X152647650Y-108235750D02*
X158591250Y-108235750D01*
X158591250Y-108197650D01*
X152647650Y-108197650D01*
X152647650Y-108235750D01*
G37*
G36*
X152647650Y-108197650D02*
X158553150Y-108197650D01*
X158553150Y-108159550D01*
X152647650Y-108159550D01*
X152647650Y-108197650D01*
G37*
G36*
X152685750Y-108159550D02*
X158553150Y-108159550D01*
X158553150Y-108121450D01*
X152685750Y-108121450D01*
X152685750Y-108159550D01*
G37*
G36*
X152685750Y-108121450D02*
X158515050Y-108121450D01*
X158515050Y-108083350D01*
X152685750Y-108083350D01*
X152685750Y-108121450D01*
G37*
G36*
X152723850Y-108083350D02*
X158515050Y-108083350D01*
X158515050Y-108045250D01*
X152723850Y-108045250D01*
X152723850Y-108083350D01*
G37*
G36*
X152723850Y-108045250D02*
X158476950Y-108045250D01*
X158476950Y-108007150D01*
X152723850Y-108007150D01*
X152723850Y-108045250D01*
G37*
G36*
X152761950Y-108007150D02*
X158438850Y-108007150D01*
X158438850Y-107969050D01*
X152761950Y-107969050D01*
X152761950Y-108007150D01*
G37*
G36*
X152800050Y-107969050D02*
X158438850Y-107969050D01*
X158438850Y-107930950D01*
X152800050Y-107930950D01*
X152800050Y-107969050D01*
G37*
G36*
X152800050Y-107930950D02*
X158400750Y-107930950D01*
X158400750Y-107892850D01*
X152800050Y-107892850D01*
X152800050Y-107930950D01*
G37*
G36*
X152838150Y-107892850D02*
X158400750Y-107892850D01*
X158400750Y-107854750D01*
X152838150Y-107854750D01*
X152838150Y-107892850D01*
G37*
G36*
X152838150Y-107854750D02*
X158362650Y-107854750D01*
X158362650Y-107816650D01*
X152838150Y-107816650D01*
X152838150Y-107854750D01*
G37*
G36*
X152876250Y-107816650D02*
X158324550Y-107816650D01*
X158324550Y-107778550D01*
X152876250Y-107778550D01*
X152876250Y-107816650D01*
G37*
G36*
X152914350Y-107778550D02*
X158286450Y-107778550D01*
X158286450Y-107740450D01*
X152914350Y-107740450D01*
X152914350Y-107778550D01*
G37*
G36*
X152952450Y-107740450D02*
X158286450Y-107740450D01*
X158286450Y-107702350D01*
X152952450Y-107702350D01*
X152952450Y-107740450D01*
G37*
G36*
X152952450Y-107702350D02*
X158248350Y-107702350D01*
X158248350Y-107664250D01*
X152952450Y-107664250D01*
X152952450Y-107702350D01*
G37*
G36*
X152990550Y-107664250D02*
X158210250Y-107664250D01*
X158210250Y-107626150D01*
X152990550Y-107626150D01*
X152990550Y-107664250D01*
G37*
G36*
X153028650Y-107626150D02*
X158172150Y-107626150D01*
X158172150Y-107588050D01*
X153028650Y-107588050D01*
X153028650Y-107626150D01*
G37*
G36*
X153066750Y-107588050D02*
X158134050Y-107588050D01*
X158134050Y-107549950D01*
X153066750Y-107549950D01*
X153066750Y-107588050D01*
G37*
G36*
X153104850Y-107549950D02*
X158095950Y-107549950D01*
X158095950Y-107511850D01*
X153104850Y-107511850D01*
X153104850Y-107549950D01*
G37*
G36*
X153142950Y-107511850D02*
X158057850Y-107511850D01*
X158057850Y-107473750D01*
X153142950Y-107473750D01*
X153142950Y-107511850D01*
G37*
G36*
X153181050Y-107473750D02*
X158019750Y-107473750D01*
X158019750Y-107435650D01*
X153181050Y-107435650D01*
X153181050Y-107473750D01*
G37*
G36*
X153219150Y-107435650D02*
X157981650Y-107435650D01*
X157981650Y-107397550D01*
X153219150Y-107397550D01*
X153219150Y-107435650D01*
G37*
G36*
X153257250Y-107397550D02*
X157943550Y-107397550D01*
X157943550Y-107359450D01*
X153257250Y-107359450D01*
X153257250Y-107397550D01*
G37*
G36*
X153295350Y-107359450D02*
X157905450Y-107359450D01*
X157905450Y-107321350D01*
X153295350Y-107321350D01*
X153295350Y-107359450D01*
G37*
G36*
X153333450Y-107321350D02*
X157867350Y-107321350D01*
X157867350Y-107283250D01*
X153333450Y-107283250D01*
X153333450Y-107321350D01*
G37*
G36*
X153371550Y-107283250D02*
X157829250Y-107283250D01*
X157829250Y-107245150D01*
X153371550Y-107245150D01*
X153371550Y-107283250D01*
G37*
G36*
X153409650Y-107245150D02*
X157791150Y-107245150D01*
X157791150Y-107207050D01*
X153409650Y-107207050D01*
X153409650Y-107245150D01*
G37*
G36*
X153447750Y-107207050D02*
X157753050Y-107207050D01*
X157753050Y-107168950D01*
X153447750Y-107168950D01*
X153447750Y-107207050D01*
G37*
G36*
X153485850Y-107168950D02*
X157714950Y-107168950D01*
X157714950Y-107130850D01*
X153485850Y-107130850D01*
X153485850Y-107168950D01*
G37*
G36*
X153523950Y-107130850D02*
X157676850Y-107130850D01*
X157676850Y-107092750D01*
X153523950Y-107092750D01*
X153523950Y-107130850D01*
G37*
G36*
X153562050Y-107092750D02*
X157638750Y-107092750D01*
X157638750Y-107054650D01*
X153562050Y-107054650D01*
X153562050Y-107092750D01*
G37*
G36*
X153600150Y-107054650D02*
X157600650Y-107054650D01*
X157600650Y-107016550D01*
X153600150Y-107016550D01*
X153600150Y-107054650D01*
G37*
G36*
X153638250Y-107016550D02*
X157562550Y-107016550D01*
X157562550Y-106978450D01*
X153638250Y-106978450D01*
X153638250Y-107016550D01*
G37*
G36*
X153676350Y-106978450D02*
X157524450Y-106978450D01*
X157524450Y-106940350D01*
X153676350Y-106940350D01*
X153676350Y-106978450D01*
G37*
G36*
X153714450Y-106940350D02*
X157524450Y-106940350D01*
X157524450Y-106902250D01*
X153714450Y-106902250D01*
X153714450Y-106940350D01*
G37*
G36*
X153752550Y-106902250D02*
X157486350Y-106902250D01*
X157486350Y-106864150D01*
X153752550Y-106864150D01*
X153752550Y-106902250D01*
G37*
G36*
X153752550Y-106864150D02*
X157448250Y-106864150D01*
X157448250Y-106826050D01*
X153752550Y-106826050D01*
X153752550Y-106864150D01*
G37*
G36*
X153790650Y-106826050D02*
X157410150Y-106826050D01*
X157410150Y-106787950D01*
X153790650Y-106787950D01*
X153790650Y-106826050D01*
G37*
G36*
X152228550Y-106787950D02*
X152685750Y-106787950D01*
X152685750Y-106749850D01*
X152228550Y-106749850D01*
X152228550Y-106787950D01*
G37*
G36*
X153828750Y-106787950D02*
X157372050Y-106787950D01*
X157372050Y-106749850D01*
X153828750Y-106749850D01*
X153828750Y-106787950D01*
G37*
G36*
X158591250Y-106787950D02*
X159086550Y-106787950D01*
X159086550Y-106749850D01*
X158591250Y-106749850D01*
X158591250Y-106787950D01*
G37*
G36*
X152114250Y-106749850D02*
X152800050Y-106749850D01*
X152800050Y-106711750D01*
X152114250Y-106711750D01*
X152114250Y-106749850D01*
G37*
G36*
X153866850Y-106749850D02*
X157372050Y-106749850D01*
X157372050Y-106711750D01*
X153866850Y-106711750D01*
X153866850Y-106749850D01*
G37*
G36*
X158515050Y-106749850D02*
X159200850Y-106749850D01*
X159200850Y-106711750D01*
X158515050Y-106711750D01*
X158515050Y-106749850D01*
G37*
G36*
X152038050Y-106711750D02*
X152876250Y-106711750D01*
X152876250Y-106673650D01*
X152038050Y-106673650D01*
X152038050Y-106711750D01*
G37*
G36*
X153866850Y-106711750D02*
X157333950Y-106711750D01*
X157333950Y-106673650D01*
X153866850Y-106673650D01*
X153866850Y-106711750D01*
G37*
G36*
X158438850Y-106711750D02*
X159315150Y-106711750D01*
X159315150Y-106673650D01*
X158438850Y-106673650D01*
X158438850Y-106711750D01*
G37*
G36*
X151961850Y-106673650D02*
X152914350Y-106673650D01*
X152914350Y-106635550D01*
X151961850Y-106635550D01*
X151961850Y-106673650D01*
G37*
G36*
X153904950Y-106673650D02*
X157295850Y-106673650D01*
X157295850Y-106635550D01*
X153904950Y-106635550D01*
X153904950Y-106673650D01*
G37*
G36*
X158362650Y-106673650D02*
X159391350Y-106673650D01*
X159391350Y-106635550D01*
X158362650Y-106635550D01*
X158362650Y-106673650D01*
G37*
G36*
X151885650Y-106635550D02*
X152990550Y-106635550D01*
X152990550Y-106597450D01*
X151885650Y-106597450D01*
X151885650Y-106635550D01*
G37*
G36*
X153943050Y-106635550D02*
X157295850Y-106635550D01*
X157295850Y-106597450D01*
X153943050Y-106597450D01*
X153943050Y-106635550D01*
G37*
G36*
X158324550Y-106635550D02*
X159429450Y-106635550D01*
X159429450Y-106597450D01*
X158324550Y-106597450D01*
X158324550Y-106635550D01*
G37*
G36*
X151847550Y-106597450D02*
X153028650Y-106597450D01*
X153028650Y-106559350D01*
X151847550Y-106559350D01*
X151847550Y-106597450D01*
G37*
G36*
X153981150Y-106597450D02*
X157257750Y-106597450D01*
X157257750Y-106559350D01*
X153981150Y-106559350D01*
X153981150Y-106597450D01*
G37*
G36*
X158286450Y-106597450D02*
X159505650Y-106597450D01*
X159505650Y-106559350D01*
X158286450Y-106559350D01*
X158286450Y-106597450D01*
G37*
G36*
X151809450Y-106559350D02*
X153066750Y-106559350D01*
X153066750Y-106521250D01*
X151809450Y-106521250D01*
X151809450Y-106559350D01*
G37*
G36*
X153981150Y-106559350D02*
X157219650Y-106559350D01*
X157219650Y-106521250D01*
X153981150Y-106521250D01*
X153981150Y-106559350D01*
G37*
G36*
X158248350Y-106559350D02*
X159543750Y-106559350D01*
X159543750Y-106521250D01*
X158248350Y-106521250D01*
X158248350Y-106559350D01*
G37*
G36*
X151771350Y-106521250D02*
X153066750Y-106521250D01*
X153066750Y-106483150D01*
X151771350Y-106483150D01*
X151771350Y-106521250D01*
G37*
G36*
X154019250Y-106521250D02*
X157219650Y-106521250D01*
X157219650Y-106483150D01*
X154019250Y-106483150D01*
X154019250Y-106521250D01*
G37*
G36*
X158210250Y-106521250D02*
X159581850Y-106521250D01*
X159581850Y-106483150D01*
X158210250Y-106483150D01*
X158210250Y-106521250D01*
G37*
G36*
X151733250Y-106483150D02*
X153104850Y-106483150D01*
X153104850Y-106445050D01*
X151733250Y-106445050D01*
X151733250Y-106483150D01*
G37*
G36*
X154057350Y-106483150D02*
X157181550Y-106483150D01*
X157181550Y-106445050D01*
X154057350Y-106445050D01*
X154057350Y-106483150D01*
G37*
G36*
X158172150Y-106483150D02*
X159619950Y-106483150D01*
X159619950Y-106445050D01*
X158172150Y-106445050D01*
X158172150Y-106483150D01*
G37*
G36*
X151695150Y-106445050D02*
X153142950Y-106445050D01*
X153142950Y-106406950D01*
X151695150Y-106406950D01*
X151695150Y-106445050D01*
G37*
G36*
X154057350Y-106445050D02*
X157143450Y-106445050D01*
X157143450Y-106406950D01*
X154057350Y-106406950D01*
X154057350Y-106445050D01*
G37*
G36*
X158172150Y-106445050D02*
X159658050Y-106445050D01*
X159658050Y-106406950D01*
X158172150Y-106406950D01*
X158172150Y-106445050D01*
G37*
G36*
X151657050Y-106406950D02*
X153181050Y-106406950D01*
X153181050Y-106368850D01*
X151657050Y-106368850D01*
X151657050Y-106406950D01*
G37*
G36*
X154095450Y-106406950D02*
X157143450Y-106406950D01*
X157143450Y-106368850D01*
X154095450Y-106368850D01*
X154095450Y-106406950D01*
G37*
G36*
X158134050Y-106406950D02*
X159696150Y-106406950D01*
X159696150Y-106368850D01*
X158134050Y-106368850D01*
X158134050Y-106406950D01*
G37*
G36*
X151618950Y-106368850D02*
X153181050Y-106368850D01*
X153181050Y-106330750D01*
X151618950Y-106330750D01*
X151618950Y-106368850D01*
G37*
G36*
X154133550Y-106368850D02*
X157105350Y-106368850D01*
X157105350Y-106330750D01*
X154133550Y-106330750D01*
X154133550Y-106368850D01*
G37*
G36*
X158134050Y-106368850D02*
X159734250Y-106368850D01*
X159734250Y-106330750D01*
X158134050Y-106330750D01*
X158134050Y-106368850D01*
G37*
G36*
X151580850Y-106330750D02*
X153219150Y-106330750D01*
X153219150Y-106292650D01*
X151580850Y-106292650D01*
X151580850Y-106330750D01*
G37*
G36*
X154171650Y-106330750D02*
X157105350Y-106330750D01*
X157105350Y-106292650D01*
X154171650Y-106292650D01*
X154171650Y-106330750D01*
G37*
G36*
X158095950Y-106330750D02*
X159772350Y-106330750D01*
X159772350Y-106292650D01*
X158095950Y-106292650D01*
X158095950Y-106330750D01*
G37*
G36*
X151542750Y-106292650D02*
X153219150Y-106292650D01*
X153219150Y-106254550D01*
X151542750Y-106254550D01*
X151542750Y-106292650D01*
G37*
G36*
X154171650Y-106292650D02*
X157067250Y-106292650D01*
X157067250Y-106254550D01*
X154171650Y-106254550D01*
X154171650Y-106292650D01*
G37*
G36*
X158095950Y-106292650D02*
X159810450Y-106292650D01*
X159810450Y-106254550D01*
X158095950Y-106254550D01*
X158095950Y-106292650D01*
G37*
G36*
X151542750Y-106254550D02*
X153219150Y-106254550D01*
X153219150Y-106216450D01*
X151542750Y-106216450D01*
X151542750Y-106254550D01*
G37*
G36*
X154209750Y-106254550D02*
X157029150Y-106254550D01*
X157029150Y-106216450D01*
X154209750Y-106216450D01*
X154209750Y-106254550D01*
G37*
G36*
X158057850Y-106254550D02*
X159848550Y-106254550D01*
X159848550Y-106216450D01*
X158057850Y-106216450D01*
X158057850Y-106254550D01*
G37*
G36*
X151504650Y-106216450D02*
X153257250Y-106216450D01*
X153257250Y-106178350D01*
X151504650Y-106178350D01*
X151504650Y-106216450D01*
G37*
G36*
X154247850Y-106216450D02*
X157029150Y-106216450D01*
X157029150Y-106178350D01*
X154247850Y-106178350D01*
X154247850Y-106216450D01*
G37*
G36*
X158057850Y-106216450D02*
X159848550Y-106216450D01*
X159848550Y-106178350D01*
X158057850Y-106178350D01*
X158057850Y-106216450D01*
G37*
G36*
X151466550Y-106178350D02*
X153257250Y-106178350D01*
X153257250Y-106140250D01*
X151466550Y-106140250D01*
X151466550Y-106178350D01*
G37*
G36*
X154247850Y-106178350D02*
X156991050Y-106178350D01*
X156991050Y-106140250D01*
X154247850Y-106140250D01*
X154247850Y-106178350D01*
G37*
G36*
X158057850Y-106178350D02*
X159886650Y-106178350D01*
X159886650Y-106140250D01*
X158057850Y-106140250D01*
X158057850Y-106178350D01*
G37*
G36*
X151466550Y-106140250D02*
X153257250Y-106140250D01*
X153257250Y-106102150D01*
X151466550Y-106102150D01*
X151466550Y-106140250D01*
G37*
G36*
X154285950Y-106140250D02*
X156952950Y-106140250D01*
X156952950Y-106102150D01*
X154285950Y-106102150D01*
X154285950Y-106140250D01*
G37*
G36*
X158019750Y-106140250D02*
X159924750Y-106140250D01*
X159924750Y-106102150D01*
X158019750Y-106102150D01*
X158019750Y-106140250D01*
G37*
G36*
X151428450Y-106102150D02*
X153295350Y-106102150D01*
X153295350Y-106064050D01*
X151428450Y-106064050D01*
X151428450Y-106102150D01*
G37*
G36*
X154324050Y-106102150D02*
X156952950Y-106102150D01*
X156952950Y-106064050D01*
X154324050Y-106064050D01*
X154324050Y-106102150D01*
G37*
G36*
X158019750Y-106102150D02*
X159924750Y-106102150D01*
X159924750Y-106064050D01*
X158019750Y-106064050D01*
X158019750Y-106102150D01*
G37*
G36*
X151428450Y-106064050D02*
X153295350Y-106064050D01*
X153295350Y-106025950D01*
X151428450Y-106025950D01*
X151428450Y-106064050D01*
G37*
G36*
X154362150Y-106064050D02*
X156914850Y-106064050D01*
X156914850Y-106025950D01*
X154362150Y-106025950D01*
X154362150Y-106064050D01*
G37*
G36*
X158019750Y-106064050D02*
X159962850Y-106064050D01*
X159962850Y-106025950D01*
X158019750Y-106025950D01*
X158019750Y-106064050D01*
G37*
G36*
X151390350Y-106025950D02*
X153295350Y-106025950D01*
X153295350Y-105987850D01*
X151390350Y-105987850D01*
X151390350Y-106025950D01*
G37*
G36*
X154362150Y-106025950D02*
X156876750Y-106025950D01*
X156876750Y-105987850D01*
X154362150Y-105987850D01*
X154362150Y-106025950D01*
G37*
G36*
X158019750Y-106025950D02*
X159962850Y-106025950D01*
X159962850Y-105987850D01*
X158019750Y-105987850D01*
X158019750Y-106025950D01*
G37*
G36*
X151390350Y-105987850D02*
X153295350Y-105987850D01*
X153295350Y-105949750D01*
X151390350Y-105949750D01*
X151390350Y-105987850D01*
G37*
G36*
X154400250Y-105987850D02*
X156876750Y-105987850D01*
X156876750Y-105949750D01*
X154400250Y-105949750D01*
X154400250Y-105987850D01*
G37*
G36*
X158019750Y-105987850D02*
X160000950Y-105987850D01*
X160000950Y-105949750D01*
X158019750Y-105949750D01*
X158019750Y-105987850D01*
G37*
G36*
X151352250Y-105949750D02*
X153295350Y-105949750D01*
X153295350Y-105911650D01*
X151352250Y-105911650D01*
X151352250Y-105949750D01*
G37*
G36*
X154438350Y-105949750D02*
X156838650Y-105949750D01*
X156838650Y-105911650D01*
X154438350Y-105911650D01*
X154438350Y-105949750D01*
G37*
G36*
X158019750Y-105949750D02*
X160000950Y-105949750D01*
X160000950Y-105911650D01*
X158019750Y-105911650D01*
X158019750Y-105949750D01*
G37*
G36*
X151352250Y-105911650D02*
X153295350Y-105911650D01*
X153295350Y-105873550D01*
X151352250Y-105873550D01*
X151352250Y-105911650D01*
G37*
G36*
X154476450Y-105911650D02*
X156800550Y-105911650D01*
X156800550Y-105873550D01*
X154476450Y-105873550D01*
X154476450Y-105911650D01*
G37*
G36*
X157981650Y-105911650D02*
X160039050Y-105911650D01*
X160039050Y-105873550D01*
X157981650Y-105873550D01*
X157981650Y-105911650D01*
G37*
G36*
X151352250Y-105873550D02*
X153295350Y-105873550D01*
X153295350Y-105835450D01*
X151352250Y-105835450D01*
X151352250Y-105873550D01*
G37*
G36*
X154514550Y-105873550D02*
X156762450Y-105873550D01*
X156762450Y-105835450D01*
X154514550Y-105835450D01*
X154514550Y-105873550D01*
G37*
G36*
X157981650Y-105873550D02*
X160039050Y-105873550D01*
X160039050Y-105835450D01*
X157981650Y-105835450D01*
X157981650Y-105873550D01*
G37*
G36*
X151314150Y-105835450D02*
X153295350Y-105835450D01*
X153295350Y-105797350D01*
X151314150Y-105797350D01*
X151314150Y-105835450D01*
G37*
G36*
X154514550Y-105835450D02*
X156724350Y-105835450D01*
X156724350Y-105797350D01*
X154514550Y-105797350D01*
X154514550Y-105835450D01*
G37*
G36*
X157981650Y-105835450D02*
X160039050Y-105835450D01*
X160039050Y-105797350D01*
X157981650Y-105797350D01*
X157981650Y-105835450D01*
G37*
G36*
X151314150Y-105797350D02*
X153295350Y-105797350D01*
X153295350Y-105759250D01*
X151314150Y-105759250D01*
X151314150Y-105797350D01*
G37*
G36*
X154552650Y-105797350D02*
X156724350Y-105797350D01*
X156724350Y-105759250D01*
X154552650Y-105759250D01*
X154552650Y-105797350D01*
G37*
G36*
X157981650Y-105797350D02*
X160077150Y-105797350D01*
X160077150Y-105759250D01*
X157981650Y-105759250D01*
X157981650Y-105797350D01*
G37*
G36*
X151314150Y-105759250D02*
X153295350Y-105759250D01*
X153295350Y-105721150D01*
X151314150Y-105721150D01*
X151314150Y-105759250D01*
G37*
G36*
X154590750Y-105759250D02*
X156686250Y-105759250D01*
X156686250Y-105721150D01*
X154590750Y-105721150D01*
X154590750Y-105759250D01*
G37*
G36*
X157981650Y-105759250D02*
X160077150Y-105759250D01*
X160077150Y-105721150D01*
X157981650Y-105721150D01*
X157981650Y-105759250D01*
G37*
G36*
X151276050Y-105721150D02*
X153295350Y-105721150D01*
X153295350Y-105683050D01*
X151276050Y-105683050D01*
X151276050Y-105721150D01*
G37*
G36*
X154628850Y-105721150D02*
X156648150Y-105721150D01*
X156648150Y-105683050D01*
X154628850Y-105683050D01*
X154628850Y-105721150D01*
G37*
G36*
X158019750Y-105721150D02*
X160077150Y-105721150D01*
X160077150Y-105683050D01*
X158019750Y-105683050D01*
X158019750Y-105721150D01*
G37*
G36*
X151276050Y-105683050D02*
X153295350Y-105683050D01*
X153295350Y-105644950D01*
X151276050Y-105644950D01*
X151276050Y-105683050D01*
G37*
G36*
X154666950Y-105683050D02*
X156610050Y-105683050D01*
X156610050Y-105644950D01*
X154666950Y-105644950D01*
X154666950Y-105683050D01*
G37*
G36*
X158019750Y-105683050D02*
X160115250Y-105683050D01*
X160115250Y-105644950D01*
X158019750Y-105644950D01*
X158019750Y-105683050D01*
G37*
G36*
X151276050Y-105644950D02*
X153295350Y-105644950D01*
X153295350Y-105606850D01*
X151276050Y-105606850D01*
X151276050Y-105644950D01*
G37*
G36*
X154705050Y-105644950D02*
X156571950Y-105644950D01*
X156571950Y-105606850D01*
X154705050Y-105606850D01*
X154705050Y-105644950D01*
G37*
G36*
X158019750Y-105644950D02*
X160115250Y-105644950D01*
X160115250Y-105606850D01*
X158019750Y-105606850D01*
X158019750Y-105644950D01*
G37*
G36*
X151276050Y-105606850D02*
X153295350Y-105606850D01*
X153295350Y-105568750D01*
X151276050Y-105568750D01*
X151276050Y-105606850D01*
G37*
G36*
X154743150Y-105606850D02*
X156533850Y-105606850D01*
X156533850Y-105568750D01*
X154743150Y-105568750D01*
X154743150Y-105606850D01*
G37*
G36*
X158019750Y-105606850D02*
X160115250Y-105606850D01*
X160115250Y-105568750D01*
X158019750Y-105568750D01*
X158019750Y-105606850D01*
G37*
G36*
X151276050Y-105568750D02*
X153295350Y-105568750D01*
X153295350Y-105530650D01*
X151276050Y-105530650D01*
X151276050Y-105568750D01*
G37*
G36*
X154781250Y-105568750D02*
X156457650Y-105568750D01*
X156457650Y-105530650D01*
X154781250Y-105530650D01*
X154781250Y-105568750D01*
G37*
G36*
X158019750Y-105568750D02*
X160115250Y-105568750D01*
X160115250Y-105530650D01*
X158019750Y-105530650D01*
X158019750Y-105568750D01*
G37*
G36*
X151237950Y-105530650D02*
X153295350Y-105530650D01*
X153295350Y-105492550D01*
X151237950Y-105492550D01*
X151237950Y-105530650D01*
G37*
G36*
X154857450Y-105530650D02*
X156419550Y-105530650D01*
X156419550Y-105492550D01*
X154857450Y-105492550D01*
X154857450Y-105530650D01*
G37*
G36*
X158019750Y-105530650D02*
X160115250Y-105530650D01*
X160115250Y-105492550D01*
X158019750Y-105492550D01*
X158019750Y-105530650D01*
G37*
G36*
X151237950Y-105492550D02*
X153295350Y-105492550D01*
X153295350Y-105454450D01*
X151237950Y-105454450D01*
X151237950Y-105492550D01*
G37*
G36*
X154895550Y-105492550D02*
X156381450Y-105492550D01*
X156381450Y-105454450D01*
X154895550Y-105454450D01*
X154895550Y-105492550D01*
G37*
G36*
X158019750Y-105492550D02*
X160153350Y-105492550D01*
X160153350Y-105454450D01*
X158019750Y-105454450D01*
X158019750Y-105492550D01*
G37*
G36*
X151237950Y-105454450D02*
X153257250Y-105454450D01*
X153257250Y-105416350D01*
X151237950Y-105416350D01*
X151237950Y-105454450D01*
G37*
G36*
X154971750Y-105454450D02*
X156305250Y-105454450D01*
X156305250Y-105416350D01*
X154971750Y-105416350D01*
X154971750Y-105454450D01*
G37*
G36*
X158057850Y-105454450D02*
X160153350Y-105454450D01*
X160153350Y-105416350D01*
X158057850Y-105416350D01*
X158057850Y-105454450D01*
G37*
G36*
X151237950Y-105416350D02*
X153257250Y-105416350D01*
X153257250Y-105378250D01*
X151237950Y-105378250D01*
X151237950Y-105416350D01*
G37*
G36*
X155009850Y-105416350D02*
X156229050Y-105416350D01*
X156229050Y-105378250D01*
X155009850Y-105378250D01*
X155009850Y-105416350D01*
G37*
G36*
X158057850Y-105416350D02*
X160153350Y-105416350D01*
X160153350Y-105378250D01*
X158057850Y-105378250D01*
X158057850Y-105416350D01*
G37*
G36*
X151237950Y-105378250D02*
X153257250Y-105378250D01*
X153257250Y-105340150D01*
X151237950Y-105340150D01*
X151237950Y-105378250D01*
G37*
G36*
X155086050Y-105378250D02*
X156114750Y-105378250D01*
X156114750Y-105340150D01*
X155086050Y-105340150D01*
X155086050Y-105378250D01*
G37*
G36*
X158057850Y-105378250D02*
X160153350Y-105378250D01*
X160153350Y-105340150D01*
X158057850Y-105340150D01*
X158057850Y-105378250D01*
G37*
G36*
X151237950Y-105340150D02*
X153257250Y-105340150D01*
X153257250Y-105302050D01*
X151237950Y-105302050D01*
X151237950Y-105340150D01*
G37*
G36*
X155200350Y-105340150D02*
X156000450Y-105340150D01*
X156000450Y-105302050D01*
X155200350Y-105302050D01*
X155200350Y-105340150D01*
G37*
G36*
X158095950Y-105340150D02*
X160153350Y-105340150D01*
X160153350Y-105302050D01*
X158095950Y-105302050D01*
X158095950Y-105340150D01*
G37*
G36*
X151237950Y-105302050D02*
X153219150Y-105302050D01*
X153219150Y-105263950D01*
X151237950Y-105263950D01*
X151237950Y-105302050D01*
G37*
G36*
X155352750Y-105302050D02*
X155809950Y-105302050D01*
X155809950Y-105263950D01*
X155352750Y-105263950D01*
X155352750Y-105302050D01*
G37*
G36*
X158095950Y-105302050D02*
X160153350Y-105302050D01*
X160153350Y-105263950D01*
X158095950Y-105263950D01*
X158095950Y-105302050D01*
G37*
G36*
X151237950Y-105263950D02*
X153219150Y-105263950D01*
X153219150Y-105225850D01*
X151237950Y-105225850D01*
X151237950Y-105263950D01*
G37*
G36*
X158095950Y-105263950D02*
X160153350Y-105263950D01*
X160153350Y-105225850D01*
X158095950Y-105225850D01*
X158095950Y-105263950D01*
G37*
G36*
X151237950Y-105225850D02*
X153219150Y-105225850D01*
X153219150Y-105187750D01*
X151237950Y-105187750D01*
X151237950Y-105225850D01*
G37*
G36*
X158134050Y-105225850D02*
X160153350Y-105225850D01*
X160153350Y-105187750D01*
X158134050Y-105187750D01*
X158134050Y-105225850D01*
G37*
G36*
X151237950Y-105187750D02*
X153181050Y-105187750D01*
X153181050Y-105149650D01*
X151237950Y-105149650D01*
X151237950Y-105187750D01*
G37*
G36*
X158134050Y-105187750D02*
X160153350Y-105187750D01*
X160153350Y-105149650D01*
X158134050Y-105149650D01*
X158134050Y-105187750D01*
G37*
G36*
X151276050Y-105149650D02*
X153181050Y-105149650D01*
X153181050Y-105111550D01*
X151276050Y-105111550D01*
X151276050Y-105149650D01*
G37*
G36*
X158172150Y-105149650D02*
X160153350Y-105149650D01*
X160153350Y-105111550D01*
X158172150Y-105111550D01*
X158172150Y-105149650D01*
G37*
G36*
X151276050Y-105111550D02*
X153142950Y-105111550D01*
X153142950Y-105073450D01*
X151276050Y-105073450D01*
X151276050Y-105111550D01*
G37*
G36*
X158172150Y-105111550D02*
X160115250Y-105111550D01*
X160115250Y-105073450D01*
X158172150Y-105073450D01*
X158172150Y-105111550D01*
G37*
G36*
X151276050Y-105073450D02*
X153142950Y-105073450D01*
X153142950Y-105035350D01*
X151276050Y-105035350D01*
X151276050Y-105073450D01*
G37*
G36*
X158210250Y-105073450D02*
X160115250Y-105073450D01*
X160115250Y-105035350D01*
X158210250Y-105035350D01*
X158210250Y-105073450D01*
G37*
G36*
X151276050Y-105035350D02*
X153104850Y-105035350D01*
X153104850Y-104997250D01*
X151276050Y-104997250D01*
X151276050Y-105035350D01*
G37*
G36*
X158210250Y-105035350D02*
X160115250Y-105035350D01*
X160115250Y-104997250D01*
X158210250Y-104997250D01*
X158210250Y-105035350D01*
G37*
G36*
X151276050Y-104997250D02*
X153104850Y-104997250D01*
X153104850Y-104959150D01*
X151276050Y-104959150D01*
X151276050Y-104997250D01*
G37*
G36*
X156686250Y-104997250D02*
X157219650Y-104997250D01*
X157219650Y-104959150D01*
X156686250Y-104959150D01*
X156686250Y-104997250D01*
G37*
G36*
X158248350Y-104997250D02*
X160115250Y-104997250D01*
X160115250Y-104959150D01*
X158248350Y-104959150D01*
X158248350Y-104997250D01*
G37*
G36*
X151314150Y-104959150D02*
X153066750Y-104959150D01*
X153066750Y-104921050D01*
X151314150Y-104921050D01*
X151314150Y-104959150D01*
G37*
G36*
X154095450Y-104959150D02*
X154514550Y-104959150D01*
X154514550Y-104921050D01*
X154095450Y-104921050D01*
X154095450Y-104959150D01*
G37*
G36*
X156610050Y-104959150D02*
X157295850Y-104959150D01*
X157295850Y-104921050D01*
X156610050Y-104921050D01*
X156610050Y-104959150D01*
G37*
G36*
X158286450Y-104959150D02*
X160115250Y-104959150D01*
X160115250Y-104921050D01*
X158286450Y-104921050D01*
X158286450Y-104959150D01*
G37*
G36*
X151314150Y-104921050D02*
X153066750Y-104921050D01*
X153066750Y-104882950D01*
X151314150Y-104882950D01*
X151314150Y-104921050D01*
G37*
G36*
X153981150Y-104921050D02*
X154628850Y-104921050D01*
X154628850Y-104882950D01*
X153981150Y-104882950D01*
X153981150Y-104921050D01*
G37*
G36*
X156533850Y-104921050D02*
X157372050Y-104921050D01*
X157372050Y-104882950D01*
X156533850Y-104882950D01*
X156533850Y-104921050D01*
G37*
G36*
X158286450Y-104921050D02*
X160077150Y-104921050D01*
X160077150Y-104882950D01*
X158286450Y-104882950D01*
X158286450Y-104921050D01*
G37*
G36*
X151314150Y-104882950D02*
X153028650Y-104882950D01*
X153028650Y-104844850D01*
X151314150Y-104844850D01*
X151314150Y-104882950D01*
G37*
G36*
X153904950Y-104882950D02*
X154705050Y-104882950D01*
X154705050Y-104844850D01*
X153904950Y-104844850D01*
X153904950Y-104882950D01*
G37*
G36*
X156457650Y-104882950D02*
X157448250Y-104882950D01*
X157448250Y-104844850D01*
X156457650Y-104844850D01*
X156457650Y-104882950D01*
G37*
G36*
X158324550Y-104882950D02*
X160077150Y-104882950D01*
X160077150Y-104844850D01*
X158324550Y-104844850D01*
X158324550Y-104882950D01*
G37*
G36*
X151352250Y-104844850D02*
X152990550Y-104844850D01*
X152990550Y-104806750D01*
X151352250Y-104806750D01*
X151352250Y-104844850D01*
G37*
G36*
X153828750Y-104844850D02*
X154781250Y-104844850D01*
X154781250Y-104806750D01*
X153828750Y-104806750D01*
X153828750Y-104844850D01*
G37*
G36*
X156419550Y-104844850D02*
X157524450Y-104844850D01*
X157524450Y-104806750D01*
X156419550Y-104806750D01*
X156419550Y-104844850D01*
G37*
G36*
X158362650Y-104844850D02*
X160077150Y-104844850D01*
X160077150Y-104806750D01*
X158362650Y-104806750D01*
X158362650Y-104844850D01*
G37*
G36*
X151352250Y-104806750D02*
X152952450Y-104806750D01*
X152952450Y-104768650D01*
X151352250Y-104768650D01*
X151352250Y-104806750D01*
G37*
G36*
X153752550Y-104806750D02*
X154819350Y-104806750D01*
X154819350Y-104768650D01*
X153752550Y-104768650D01*
X153752550Y-104806750D01*
G37*
G36*
X156381450Y-104806750D02*
X157562550Y-104806750D01*
X157562550Y-104768650D01*
X156381450Y-104768650D01*
X156381450Y-104806750D01*
G37*
G36*
X158362650Y-104806750D02*
X160039050Y-104806750D01*
X160039050Y-104768650D01*
X158362650Y-104768650D01*
X158362650Y-104806750D01*
G37*
G36*
X151390350Y-104768650D02*
X152952450Y-104768650D01*
X152952450Y-104730550D01*
X151390350Y-104730550D01*
X151390350Y-104768650D01*
G37*
G36*
X153714450Y-104768650D02*
X154857450Y-104768650D01*
X154857450Y-104730550D01*
X153714450Y-104730550D01*
X153714450Y-104768650D01*
G37*
G36*
X156343350Y-104768650D02*
X157600650Y-104768650D01*
X157600650Y-104730550D01*
X156343350Y-104730550D01*
X156343350Y-104768650D01*
G37*
G36*
X158400750Y-104768650D02*
X160039050Y-104768650D01*
X160039050Y-104730550D01*
X158400750Y-104730550D01*
X158400750Y-104768650D01*
G37*
G36*
X151390350Y-104730550D02*
X152914350Y-104730550D01*
X152914350Y-104692450D01*
X151390350Y-104692450D01*
X151390350Y-104730550D01*
G37*
G36*
X153676350Y-104730550D02*
X154895550Y-104730550D01*
X154895550Y-104692450D01*
X153676350Y-104692450D01*
X153676350Y-104730550D01*
G37*
G36*
X156305250Y-104730550D02*
X157638750Y-104730550D01*
X157638750Y-104692450D01*
X156305250Y-104692450D01*
X156305250Y-104730550D01*
G37*
G36*
X158438850Y-104730550D02*
X160000950Y-104730550D01*
X160000950Y-104692450D01*
X158438850Y-104692450D01*
X158438850Y-104730550D01*
G37*
G36*
X151428450Y-104692450D02*
X152876250Y-104692450D01*
X152876250Y-104654350D01*
X151428450Y-104654350D01*
X151428450Y-104692450D01*
G37*
G36*
X153638250Y-104692450D02*
X154933650Y-104692450D01*
X154933650Y-104654350D01*
X153638250Y-104654350D01*
X153638250Y-104692450D01*
G37*
G36*
X156267150Y-104692450D02*
X157714950Y-104692450D01*
X157714950Y-104654350D01*
X156267150Y-104654350D01*
X156267150Y-104692450D01*
G37*
G36*
X158476950Y-104692450D02*
X159962850Y-104692450D01*
X159962850Y-104654350D01*
X158476950Y-104654350D01*
X158476950Y-104692450D01*
G37*
G36*
X151428450Y-104654350D02*
X152838150Y-104654350D01*
X152838150Y-104616250D01*
X151428450Y-104616250D01*
X151428450Y-104654350D01*
G37*
G36*
X153600150Y-104654350D02*
X154971750Y-104654350D01*
X154971750Y-104616250D01*
X153600150Y-104616250D01*
X153600150Y-104654350D01*
G37*
G36*
X156229050Y-104654350D02*
X157714950Y-104654350D01*
X157714950Y-104616250D01*
X156229050Y-104616250D01*
X156229050Y-104654350D01*
G37*
G36*
X158515050Y-104654350D02*
X159962850Y-104654350D01*
X159962850Y-104616250D01*
X158515050Y-104616250D01*
X158515050Y-104654350D01*
G37*
G36*
X151466550Y-104616250D02*
X152800050Y-104616250D01*
X152800050Y-104578150D01*
X151466550Y-104578150D01*
X151466550Y-104616250D01*
G37*
G36*
X153562050Y-104616250D02*
X155009850Y-104616250D01*
X155009850Y-104578150D01*
X153562050Y-104578150D01*
X153562050Y-104616250D01*
G37*
G36*
X156229050Y-104616250D02*
X157753050Y-104616250D01*
X157753050Y-104578150D01*
X156229050Y-104578150D01*
X156229050Y-104616250D01*
G37*
G36*
X158553150Y-104616250D02*
X159924750Y-104616250D01*
X159924750Y-104578150D01*
X158553150Y-104578150D01*
X158553150Y-104616250D01*
G37*
G36*
X151504650Y-104578150D02*
X152761950Y-104578150D01*
X152761950Y-104540050D01*
X151504650Y-104540050D01*
X151504650Y-104578150D01*
G37*
G36*
X153523950Y-104578150D02*
X155047950Y-104578150D01*
X155047950Y-104540050D01*
X153523950Y-104540050D01*
X153523950Y-104578150D01*
G37*
G36*
X156190950Y-104578150D02*
X157791150Y-104578150D01*
X157791150Y-104540050D01*
X156190950Y-104540050D01*
X156190950Y-104578150D01*
G37*
G36*
X158629350Y-104578150D02*
X159886650Y-104578150D01*
X159886650Y-104540050D01*
X158629350Y-104540050D01*
X158629350Y-104578150D01*
G37*
G36*
X151542750Y-104540050D02*
X152685750Y-104540050D01*
X152685750Y-104501950D01*
X151542750Y-104501950D01*
X151542750Y-104540050D01*
G37*
G36*
X153485850Y-104540050D02*
X155047950Y-104540050D01*
X155047950Y-104501950D01*
X153485850Y-104501950D01*
X153485850Y-104540050D01*
G37*
G36*
X156152850Y-104540050D02*
X157829250Y-104540050D01*
X157829250Y-104501950D01*
X156152850Y-104501950D01*
X156152850Y-104540050D01*
G37*
G36*
X158667450Y-104540050D02*
X159848550Y-104540050D01*
X159848550Y-104501950D01*
X158667450Y-104501950D01*
X158667450Y-104540050D01*
G37*
G36*
X151580850Y-104501950D02*
X152647650Y-104501950D01*
X152647650Y-104463850D01*
X151580850Y-104463850D01*
X151580850Y-104501950D01*
G37*
G36*
X153447750Y-104501950D02*
X155086050Y-104501950D01*
X155086050Y-104463850D01*
X153447750Y-104463850D01*
X153447750Y-104501950D01*
G37*
G36*
X156152850Y-104501950D02*
X157867350Y-104501950D01*
X157867350Y-104463850D01*
X156152850Y-104463850D01*
X156152850Y-104501950D01*
G37*
G36*
X158705550Y-104501950D02*
X159810450Y-104501950D01*
X159810450Y-104463850D01*
X158705550Y-104463850D01*
X158705550Y-104501950D01*
G37*
G36*
X151618950Y-104463850D02*
X152571450Y-104463850D01*
X152571450Y-104425750D01*
X151618950Y-104425750D01*
X151618950Y-104463850D01*
G37*
G36*
X153447750Y-104463850D02*
X155086050Y-104463850D01*
X155086050Y-104425750D01*
X153447750Y-104425750D01*
X153447750Y-104463850D01*
G37*
G36*
X156114750Y-104463850D02*
X157905450Y-104463850D01*
X157905450Y-104425750D01*
X156114750Y-104425750D01*
X156114750Y-104463850D01*
G37*
G36*
X158781750Y-104463850D02*
X159772350Y-104463850D01*
X159772350Y-104425750D01*
X158781750Y-104425750D01*
X158781750Y-104463850D01*
G37*
G36*
X151695150Y-104425750D02*
X152533350Y-104425750D01*
X152533350Y-104387650D01*
X151695150Y-104387650D01*
X151695150Y-104425750D01*
G37*
G36*
X153409650Y-104425750D02*
X155124150Y-104425750D01*
X155124150Y-104387650D01*
X153409650Y-104387650D01*
X153409650Y-104425750D01*
G37*
G36*
X156114750Y-104425750D02*
X157905450Y-104425750D01*
X157905450Y-104387650D01*
X156114750Y-104387650D01*
X156114750Y-104425750D01*
G37*
G36*
X158857950Y-104425750D02*
X159696150Y-104425750D01*
X159696150Y-104387650D01*
X158857950Y-104387650D01*
X158857950Y-104425750D01*
G37*
G36*
X151771350Y-104387650D02*
X152419050Y-104387650D01*
X152419050Y-104349550D01*
X151771350Y-104349550D01*
X151771350Y-104387650D01*
G37*
G36*
X153371550Y-104387650D02*
X155124150Y-104387650D01*
X155124150Y-104349550D01*
X153371550Y-104349550D01*
X153371550Y-104387650D01*
G37*
G36*
X156114750Y-104387650D02*
X157943550Y-104387650D01*
X157943550Y-104349550D01*
X156114750Y-104349550D01*
X156114750Y-104387650D01*
G37*
G36*
X158972250Y-104387650D02*
X159619950Y-104387650D01*
X159619950Y-104349550D01*
X158972250Y-104349550D01*
X158972250Y-104387650D01*
G37*
G36*
X151847550Y-104349550D02*
X152342850Y-104349550D01*
X152342850Y-104311450D01*
X151847550Y-104311450D01*
X151847550Y-104349550D01*
G37*
G36*
X153371550Y-104349550D02*
X155162250Y-104349550D01*
X155162250Y-104311450D01*
X153371550Y-104311450D01*
X153371550Y-104349550D01*
G37*
G36*
X156076650Y-104349550D02*
X157943550Y-104349550D01*
X157943550Y-104311450D01*
X156076650Y-104311450D01*
X156076650Y-104349550D01*
G37*
G36*
X159086550Y-104349550D02*
X159505650Y-104349550D01*
X159505650Y-104311450D01*
X159086550Y-104311450D01*
X159086550Y-104349550D01*
G37*
G36*
X153333450Y-104311450D02*
X155162250Y-104311450D01*
X155162250Y-104273350D01*
X153333450Y-104273350D01*
X153333450Y-104311450D01*
G37*
G36*
X156076650Y-104311450D02*
X157981650Y-104311450D01*
X157981650Y-104273350D01*
X156076650Y-104273350D01*
X156076650Y-104311450D01*
G37*
G36*
X153333450Y-104273350D02*
X155200350Y-104273350D01*
X155200350Y-104235250D01*
X153333450Y-104235250D01*
X153333450Y-104273350D01*
G37*
G36*
X156038550Y-104273350D02*
X158019750Y-104273350D01*
X158019750Y-104235250D01*
X156038550Y-104235250D01*
X156038550Y-104273350D01*
G37*
G36*
X153295350Y-104235250D02*
X155200350Y-104235250D01*
X155200350Y-104197150D01*
X153295350Y-104197150D01*
X153295350Y-104235250D01*
G37*
G36*
X156038550Y-104235250D02*
X158019750Y-104235250D01*
X158019750Y-104197150D01*
X156038550Y-104197150D01*
X156038550Y-104235250D01*
G37*
G36*
X153295350Y-104197150D02*
X155200350Y-104197150D01*
X155200350Y-104159050D01*
X153295350Y-104159050D01*
X153295350Y-104197150D01*
G37*
G36*
X156038550Y-104197150D02*
X158019750Y-104197150D01*
X158019750Y-104159050D01*
X156038550Y-104159050D01*
X156038550Y-104197150D01*
G37*
G36*
X153257250Y-104159050D02*
X155200350Y-104159050D01*
X155200350Y-104120950D01*
X153257250Y-104120950D01*
X153257250Y-104159050D01*
G37*
G36*
X156038550Y-104159050D02*
X158057850Y-104159050D01*
X158057850Y-104120950D01*
X156038550Y-104120950D01*
X156038550Y-104159050D01*
G37*
G36*
X153257250Y-104120950D02*
X155238450Y-104120950D01*
X155238450Y-104082850D01*
X153257250Y-104082850D01*
X153257250Y-104120950D01*
G37*
G36*
X156000450Y-104120950D02*
X158057850Y-104120950D01*
X158057850Y-104082850D01*
X156000450Y-104082850D01*
X156000450Y-104120950D01*
G37*
G36*
X153219150Y-104082850D02*
X155238450Y-104082850D01*
X155238450Y-104044750D01*
X153219150Y-104044750D01*
X153219150Y-104082850D01*
G37*
G36*
X156000450Y-104082850D02*
X158095950Y-104082850D01*
X158095950Y-104044750D01*
X156000450Y-104044750D01*
X156000450Y-104082850D01*
G37*
G36*
X153219150Y-104044750D02*
X155238450Y-104044750D01*
X155238450Y-104006650D01*
X153219150Y-104006650D01*
X153219150Y-104044750D01*
G37*
G36*
X156000450Y-104044750D02*
X158095950Y-104044750D01*
X158095950Y-104006650D01*
X156000450Y-104006650D01*
X156000450Y-104044750D01*
G37*
G36*
X153219150Y-104006650D02*
X155238450Y-104006650D01*
X155238450Y-103968550D01*
X153219150Y-103968550D01*
X153219150Y-104006650D01*
G37*
G36*
X156000450Y-104006650D02*
X158134050Y-104006650D01*
X158134050Y-103968550D01*
X156000450Y-103968550D01*
X156000450Y-104006650D01*
G37*
G36*
X153181050Y-103968550D02*
X155238450Y-103968550D01*
X155238450Y-103930450D01*
X153181050Y-103930450D01*
X153181050Y-103968550D01*
G37*
G36*
X156000450Y-103968550D02*
X158134050Y-103968550D01*
X158134050Y-103930450D01*
X156000450Y-103930450D01*
X156000450Y-103968550D01*
G37*
G36*
X153181050Y-103930450D02*
X155276550Y-103930450D01*
X155276550Y-103892350D01*
X153181050Y-103892350D01*
X153181050Y-103930450D01*
G37*
G36*
X156000450Y-103930450D02*
X158134050Y-103930450D01*
X158134050Y-103892350D01*
X156000450Y-103892350D01*
X156000450Y-103930450D01*
G37*
G36*
X153181050Y-103892350D02*
X155276550Y-103892350D01*
X155276550Y-103854250D01*
X153181050Y-103854250D01*
X153181050Y-103892350D01*
G37*
G36*
X156000450Y-103892350D02*
X158134050Y-103892350D01*
X158134050Y-103854250D01*
X156000450Y-103854250D01*
X156000450Y-103892350D01*
G37*
G36*
X153181050Y-103854250D02*
X155276550Y-103854250D01*
X155276550Y-103816150D01*
X153181050Y-103816150D01*
X153181050Y-103854250D01*
G37*
G36*
X156000450Y-103854250D02*
X158172150Y-103854250D01*
X158172150Y-103816150D01*
X156000450Y-103816150D01*
X156000450Y-103854250D01*
G37*
G36*
X153142950Y-103816150D02*
X155276550Y-103816150D01*
X155276550Y-103778050D01*
X153142950Y-103778050D01*
X153142950Y-103816150D01*
G37*
G36*
X156000450Y-103816150D02*
X158172150Y-103816150D01*
X158172150Y-103778050D01*
X156000450Y-103778050D01*
X156000450Y-103816150D01*
G37*
G36*
X153142950Y-103778050D02*
X155276550Y-103778050D01*
X155276550Y-103739950D01*
X153142950Y-103739950D01*
X153142950Y-103778050D01*
G37*
G36*
X156000450Y-103778050D02*
X158172150Y-103778050D01*
X158172150Y-103739950D01*
X156000450Y-103739950D01*
X156000450Y-103778050D01*
G37*
G36*
X153142950Y-103739950D02*
X155276550Y-103739950D01*
X155276550Y-103701850D01*
X153142950Y-103701850D01*
X153142950Y-103739950D01*
G37*
G36*
X156000450Y-103739950D02*
X158172150Y-103739950D01*
X158172150Y-103701850D01*
X156000450Y-103701850D01*
X156000450Y-103739950D01*
G37*
G36*
X153142950Y-103701850D02*
X155276550Y-103701850D01*
X155276550Y-103663750D01*
X153142950Y-103663750D01*
X153142950Y-103701850D01*
G37*
G36*
X156000450Y-103701850D02*
X158210250Y-103701850D01*
X158210250Y-103663750D01*
X156000450Y-103663750D01*
X156000450Y-103701850D01*
G37*
G36*
X153142950Y-103663750D02*
X155276550Y-103663750D01*
X155276550Y-103625650D01*
X153142950Y-103625650D01*
X153142950Y-103663750D01*
G37*
G36*
X156000450Y-103663750D02*
X158210250Y-103663750D01*
X158210250Y-103625650D01*
X156000450Y-103625650D01*
X156000450Y-103663750D01*
G37*
G36*
X153142950Y-103625650D02*
X155276550Y-103625650D01*
X155276550Y-103587550D01*
X153142950Y-103587550D01*
X153142950Y-103625650D01*
G37*
G36*
X156000450Y-103625650D02*
X158210250Y-103625650D01*
X158210250Y-103587550D01*
X156000450Y-103587550D01*
X156000450Y-103625650D01*
G37*
G36*
X153104850Y-103587550D02*
X155276550Y-103587550D01*
X155276550Y-103549450D01*
X153104850Y-103549450D01*
X153104850Y-103587550D01*
G37*
G36*
X156000450Y-103587550D02*
X158210250Y-103587550D01*
X158210250Y-103549450D01*
X156000450Y-103549450D01*
X156000450Y-103587550D01*
G37*
G36*
X153104850Y-103549450D02*
X155276550Y-103549450D01*
X155276550Y-103511350D01*
X153104850Y-103511350D01*
X153104850Y-103549450D01*
G37*
G36*
X156000450Y-103549450D02*
X158210250Y-103549450D01*
X158210250Y-103511350D01*
X156000450Y-103511350D01*
X156000450Y-103549450D01*
G37*
G36*
X153104850Y-103511350D02*
X155276550Y-103511350D01*
X155276550Y-103473250D01*
X153104850Y-103473250D01*
X153104850Y-103511350D01*
G37*
G36*
X156000450Y-103511350D02*
X158210250Y-103511350D01*
X158210250Y-103473250D01*
X156000450Y-103473250D01*
X156000450Y-103511350D01*
G37*
G36*
X153104850Y-103473250D02*
X155276550Y-103473250D01*
X155276550Y-103435150D01*
X153104850Y-103435150D01*
X153104850Y-103473250D01*
G37*
G36*
X156000450Y-103473250D02*
X158210250Y-103473250D01*
X158210250Y-103435150D01*
X156000450Y-103435150D01*
X156000450Y-103473250D01*
G37*
G36*
X153104850Y-103435150D02*
X155238450Y-103435150D01*
X155238450Y-103397050D01*
X153104850Y-103397050D01*
X153104850Y-103435150D01*
G37*
G36*
X156000450Y-103435150D02*
X158210250Y-103435150D01*
X158210250Y-103397050D01*
X156000450Y-103397050D01*
X156000450Y-103435150D01*
G37*
G36*
X153104850Y-103397050D02*
X155238450Y-103397050D01*
X155238450Y-103358950D01*
X153104850Y-103358950D01*
X153104850Y-103397050D01*
G37*
G36*
X156000450Y-103397050D02*
X158210250Y-103397050D01*
X158210250Y-103358950D01*
X156000450Y-103358950D01*
X156000450Y-103397050D01*
G37*
G36*
X153104850Y-103358950D02*
X155238450Y-103358950D01*
X155238450Y-103320850D01*
X153104850Y-103320850D01*
X153104850Y-103358950D01*
G37*
G36*
X156038550Y-103358950D02*
X158210250Y-103358950D01*
X158210250Y-103320850D01*
X156038550Y-103320850D01*
X156038550Y-103358950D01*
G37*
G36*
X153104850Y-103320850D02*
X155238450Y-103320850D01*
X155238450Y-103282750D01*
X153104850Y-103282750D01*
X153104850Y-103320850D01*
G37*
G36*
X156038550Y-103320850D02*
X158210250Y-103320850D01*
X158210250Y-103282750D01*
X156038550Y-103282750D01*
X156038550Y-103320850D01*
G37*
G36*
X153104850Y-103282750D02*
X155238450Y-103282750D01*
X155238450Y-103244650D01*
X153104850Y-103244650D01*
X153104850Y-103282750D01*
G37*
G36*
X156038550Y-103282750D02*
X158210250Y-103282750D01*
X158210250Y-103244650D01*
X156038550Y-103244650D01*
X156038550Y-103282750D01*
G37*
G36*
X153104850Y-103244650D02*
X155200350Y-103244650D01*
X155200350Y-103206550D01*
X153104850Y-103206550D01*
X153104850Y-103244650D01*
G37*
G36*
X156038550Y-103244650D02*
X158210250Y-103244650D01*
X158210250Y-103206550D01*
X156038550Y-103206550D01*
X156038550Y-103244650D01*
G37*
G36*
X153104850Y-103206550D02*
X155200350Y-103206550D01*
X155200350Y-103168450D01*
X153104850Y-103168450D01*
X153104850Y-103206550D01*
G37*
G36*
X156076650Y-103206550D02*
X158210250Y-103206550D01*
X158210250Y-103168450D01*
X156076650Y-103168450D01*
X156076650Y-103206550D01*
G37*
G36*
X153142950Y-103168450D02*
X155200350Y-103168450D01*
X155200350Y-103130350D01*
X153142950Y-103130350D01*
X153142950Y-103168450D01*
G37*
G36*
X156076650Y-103168450D02*
X158210250Y-103168450D01*
X158210250Y-103130350D01*
X156076650Y-103130350D01*
X156076650Y-103168450D01*
G37*
G36*
X153142950Y-103130350D02*
X155200350Y-103130350D01*
X155200350Y-103092250D01*
X153142950Y-103092250D01*
X153142950Y-103130350D01*
G37*
G36*
X156076650Y-103130350D02*
X158210250Y-103130350D01*
X158210250Y-103092250D01*
X156076650Y-103092250D01*
X156076650Y-103130350D01*
G37*
G36*
X153142950Y-103092250D02*
X155162250Y-103092250D01*
X155162250Y-103054150D01*
X153142950Y-103054150D01*
X153142950Y-103092250D01*
G37*
G36*
X156114750Y-103092250D02*
X158210250Y-103092250D01*
X158210250Y-103054150D01*
X156114750Y-103054150D01*
X156114750Y-103092250D01*
G37*
G36*
X153142950Y-103054150D02*
X155162250Y-103054150D01*
X155162250Y-103016050D01*
X153142950Y-103016050D01*
X153142950Y-103054150D01*
G37*
G36*
X156114750Y-103054150D02*
X158210250Y-103054150D01*
X158210250Y-103016050D01*
X156114750Y-103016050D01*
X156114750Y-103054150D01*
G37*
G36*
X153142950Y-103016050D02*
X155162250Y-103016050D01*
X155162250Y-102977950D01*
X153142950Y-102977950D01*
X153142950Y-103016050D01*
G37*
G36*
X156114750Y-103016050D02*
X158210250Y-103016050D01*
X158210250Y-102977950D01*
X156114750Y-102977950D01*
X156114750Y-103016050D01*
G37*
G36*
X153142950Y-102977950D02*
X155124150Y-102977950D01*
X155124150Y-102939850D01*
X153142950Y-102939850D01*
X153142950Y-102977950D01*
G37*
G36*
X156152850Y-102977950D02*
X158172150Y-102977950D01*
X158172150Y-102939850D01*
X156152850Y-102939850D01*
X156152850Y-102977950D01*
G37*
G36*
X153181050Y-102939850D02*
X155124150Y-102939850D01*
X155124150Y-102901750D01*
X153181050Y-102901750D01*
X153181050Y-102939850D01*
G37*
G36*
X156152850Y-102939850D02*
X158172150Y-102939850D01*
X158172150Y-102901750D01*
X156152850Y-102901750D01*
X156152850Y-102939850D01*
G37*
G36*
X153181050Y-102901750D02*
X155086050Y-102901750D01*
X155086050Y-102863650D01*
X153181050Y-102863650D01*
X153181050Y-102901750D01*
G37*
G36*
X156190950Y-102901750D02*
X158172150Y-102901750D01*
X158172150Y-102863650D01*
X156190950Y-102863650D01*
X156190950Y-102901750D01*
G37*
G36*
X153181050Y-102863650D02*
X155086050Y-102863650D01*
X155086050Y-102825550D01*
X153181050Y-102825550D01*
X153181050Y-102863650D01*
G37*
G36*
X156190950Y-102863650D02*
X158172150Y-102863650D01*
X158172150Y-102825550D01*
X156190950Y-102825550D01*
X156190950Y-102863650D01*
G37*
G36*
X153219150Y-102825550D02*
X155047950Y-102825550D01*
X155047950Y-102787450D01*
X153219150Y-102787450D01*
X153219150Y-102825550D01*
G37*
G36*
X156229050Y-102825550D02*
X158134050Y-102825550D01*
X158134050Y-102787450D01*
X156229050Y-102787450D01*
X156229050Y-102825550D01*
G37*
G36*
X153219150Y-102787450D02*
X155047950Y-102787450D01*
X155047950Y-102749350D01*
X153219150Y-102749350D01*
X153219150Y-102787450D01*
G37*
G36*
X156229050Y-102787450D02*
X158134050Y-102787450D01*
X158134050Y-102749350D01*
X156229050Y-102749350D01*
X156229050Y-102787450D01*
G37*
G36*
X153219150Y-102749350D02*
X155009850Y-102749350D01*
X155009850Y-102711250D01*
X153219150Y-102711250D01*
X153219150Y-102749350D01*
G37*
G36*
X156267150Y-102749350D02*
X158134050Y-102749350D01*
X158134050Y-102711250D01*
X156267150Y-102711250D01*
X156267150Y-102749350D01*
G37*
G36*
X153257250Y-102711250D02*
X155009850Y-102711250D01*
X155009850Y-102673150D01*
X153257250Y-102673150D01*
X153257250Y-102711250D01*
G37*
G36*
X156305250Y-102711250D02*
X158095950Y-102711250D01*
X158095950Y-102673150D01*
X156305250Y-102673150D01*
X156305250Y-102711250D01*
G37*
G36*
X153257250Y-102673150D02*
X154971750Y-102673150D01*
X154971750Y-102635050D01*
X153257250Y-102635050D01*
X153257250Y-102673150D01*
G37*
G36*
X156305250Y-102673150D02*
X158095950Y-102673150D01*
X158095950Y-102635050D01*
X156305250Y-102635050D01*
X156305250Y-102673150D01*
G37*
G36*
X153295350Y-102635050D02*
X154933650Y-102635050D01*
X154933650Y-102596950D01*
X153295350Y-102596950D01*
X153295350Y-102635050D01*
G37*
G36*
X156343350Y-102635050D02*
X158057850Y-102635050D01*
X158057850Y-102596950D01*
X156343350Y-102596950D01*
X156343350Y-102635050D01*
G37*
G36*
X153295350Y-102596950D02*
X154933650Y-102596950D01*
X154933650Y-102558850D01*
X153295350Y-102558850D01*
X153295350Y-102596950D01*
G37*
G36*
X156381450Y-102596950D02*
X158057850Y-102596950D01*
X158057850Y-102558850D01*
X156381450Y-102558850D01*
X156381450Y-102596950D01*
G37*
G36*
X153333450Y-102558850D02*
X154895550Y-102558850D01*
X154895550Y-102520750D01*
X153333450Y-102520750D01*
X153333450Y-102558850D01*
G37*
G36*
X156381450Y-102558850D02*
X158019750Y-102558850D01*
X158019750Y-102520750D01*
X156381450Y-102520750D01*
X156381450Y-102558850D01*
G37*
G36*
X153371550Y-102520750D02*
X154857450Y-102520750D01*
X154857450Y-102482650D01*
X153371550Y-102482650D01*
X153371550Y-102520750D01*
G37*
G36*
X156419550Y-102520750D02*
X158019750Y-102520750D01*
X158019750Y-102482650D01*
X156419550Y-102482650D01*
X156419550Y-102520750D01*
G37*
G36*
X153371550Y-102482650D02*
X154819350Y-102482650D01*
X154819350Y-102444550D01*
X153371550Y-102444550D01*
X153371550Y-102482650D01*
G37*
G36*
X156457650Y-102482650D02*
X157981650Y-102482650D01*
X157981650Y-102444550D01*
X156457650Y-102444550D01*
X156457650Y-102482650D01*
G37*
G36*
X153409650Y-102444550D02*
X154781250Y-102444550D01*
X154781250Y-102406450D01*
X153409650Y-102406450D01*
X153409650Y-102444550D01*
G37*
G36*
X156495750Y-102444550D02*
X157943550Y-102444550D01*
X157943550Y-102406450D01*
X156495750Y-102406450D01*
X156495750Y-102444550D01*
G37*
G36*
X153447750Y-102406450D02*
X154743150Y-102406450D01*
X154743150Y-102368350D01*
X153447750Y-102368350D01*
X153447750Y-102406450D01*
G37*
G36*
X156533850Y-102406450D02*
X157905450Y-102406450D01*
X157905450Y-102368350D01*
X156533850Y-102368350D01*
X156533850Y-102406450D01*
G37*
G36*
X153485850Y-102368350D02*
X154705050Y-102368350D01*
X154705050Y-102330250D01*
X153485850Y-102330250D01*
X153485850Y-102368350D01*
G37*
G36*
X156571950Y-102368350D02*
X157905450Y-102368350D01*
X157905450Y-102330250D01*
X156571950Y-102330250D01*
X156571950Y-102368350D01*
G37*
G36*
X153523950Y-102330250D02*
X154666950Y-102330250D01*
X154666950Y-102292150D01*
X153523950Y-102292150D01*
X153523950Y-102330250D01*
G37*
G36*
X156610050Y-102330250D02*
X157867350Y-102330250D01*
X157867350Y-102292150D01*
X156610050Y-102292150D01*
X156610050Y-102330250D01*
G37*
G36*
X153562050Y-102292150D02*
X154590750Y-102292150D01*
X154590750Y-102254050D01*
X153562050Y-102254050D01*
X153562050Y-102292150D01*
G37*
G36*
X156686250Y-102292150D02*
X157791150Y-102292150D01*
X157791150Y-102254050D01*
X156686250Y-102254050D01*
X156686250Y-102292150D01*
G37*
G36*
X153638250Y-102254050D02*
X154552650Y-102254050D01*
X154552650Y-102215950D01*
X153638250Y-102215950D01*
X153638250Y-102254050D01*
G37*
G36*
X156724350Y-102254050D02*
X157753050Y-102254050D01*
X157753050Y-102215950D01*
X156724350Y-102215950D01*
X156724350Y-102254050D01*
G37*
G36*
X153676350Y-102215950D02*
X154476450Y-102215950D01*
X154476450Y-102177850D01*
X153676350Y-102177850D01*
X153676350Y-102215950D01*
G37*
G36*
X156800550Y-102215950D02*
X157714950Y-102215950D01*
X157714950Y-102177850D01*
X156800550Y-102177850D01*
X156800550Y-102215950D01*
G37*
G36*
X153752550Y-102177850D02*
X154400250Y-102177850D01*
X154400250Y-102139750D01*
X153752550Y-102139750D01*
X153752550Y-102177850D01*
G37*
G36*
X156876750Y-102177850D02*
X157638750Y-102177850D01*
X157638750Y-102139750D01*
X156876750Y-102139750D01*
X156876750Y-102177850D01*
G37*
G36*
X153866850Y-102139750D02*
X154285950Y-102139750D01*
X154285950Y-102101650D01*
X153866850Y-102101650D01*
X153866850Y-102139750D01*
G37*
G36*
X156952950Y-102139750D02*
X157562550Y-102139750D01*
X157562550Y-102101650D01*
X156952950Y-102101650D01*
X156952950Y-102139750D01*
G37*
G36*
X157105350Y-102101650D02*
X157410150Y-102101650D01*
X157410150Y-102063550D01*
X157105350Y-102063550D01*
X157105350Y-102101650D01*
G37*
D16*
X116353167Y-34679467D02*
X116353167Y-36046833D01*
X116433600Y-36207700D01*
X116514033Y-36288133D01*
X116674900Y-36368567D01*
X116996633Y-36368567D01*
X117157500Y-36288133D01*
X117237933Y-36207700D01*
X117318367Y-36046833D01*
X117318367Y-34679467D01*
X119007466Y-36368567D02*
X118042266Y-36368567D01*
X118524866Y-36368567D02*
X118524866Y-34679467D01*
X118364000Y-34920767D01*
X118203133Y-35081633D01*
X118042266Y-35162067D01*
X122394133Y-73338267D02*
X122474567Y-73096967D01*
X122474567Y-72694800D01*
X122394133Y-72533933D01*
X122313700Y-72453500D01*
X122152833Y-72373067D01*
X121991967Y-72373067D01*
X121831100Y-72453500D01*
X121750667Y-72533933D01*
X121670233Y-72694800D01*
X121589800Y-73016533D01*
X121509367Y-73177400D01*
X121428933Y-73257833D01*
X121268067Y-73338267D01*
X121107200Y-73338267D01*
X120946333Y-73257833D01*
X120865900Y-73177400D01*
X120785467Y-73016533D01*
X120785467Y-72614367D01*
X120865900Y-72373067D01*
X122394133Y-71729600D02*
X122474567Y-71488300D01*
X122474567Y-71086133D01*
X122394133Y-70925266D01*
X122313700Y-70844833D01*
X122152833Y-70764400D01*
X121991967Y-70764400D01*
X121831100Y-70844833D01*
X121750667Y-70925266D01*
X121670233Y-71086133D01*
X121589800Y-71407866D01*
X121509367Y-71568733D01*
X121428933Y-71649166D01*
X121268067Y-71729600D01*
X121107200Y-71729600D01*
X120946333Y-71649166D01*
X120865900Y-71568733D01*
X120785467Y-71407866D01*
X120785467Y-71005700D01*
X120865900Y-70764400D01*
X120785467Y-70281799D02*
X120785467Y-69316599D01*
X122474567Y-69799199D02*
X120785467Y-69799199D01*
X120785467Y-68914433D02*
X120785467Y-67868800D01*
X121428933Y-68431833D01*
X121428933Y-68190533D01*
X121509367Y-68029666D01*
X121589800Y-67949233D01*
X121750667Y-67868800D01*
X122152833Y-67868800D01*
X122313700Y-67949233D01*
X122394133Y-68029666D01*
X122474567Y-68190533D01*
X122474567Y-68673133D01*
X122394133Y-68834000D01*
X122313700Y-68914433D01*
X122474567Y-67064466D02*
X122474567Y-66742733D01*
X122394133Y-66581866D01*
X122313700Y-66501433D01*
X122072400Y-66340566D01*
X121750667Y-66260133D01*
X121107200Y-66260133D01*
X120946333Y-66340566D01*
X120865900Y-66420999D01*
X120785467Y-66581866D01*
X120785467Y-66903599D01*
X120865900Y-67064466D01*
X120946333Y-67144899D01*
X121107200Y-67225333D01*
X121509367Y-67225333D01*
X121670233Y-67144899D01*
X121750667Y-67064466D01*
X121831100Y-66903599D01*
X121831100Y-66581866D01*
X121750667Y-66420999D01*
X121670233Y-66340566D01*
X121509367Y-66260133D01*
X122394133Y-65616666D02*
X122474567Y-65375366D01*
X122474567Y-64973199D01*
X122394133Y-64812332D01*
X122313700Y-64731899D01*
X122152833Y-64651466D01*
X121991967Y-64651466D01*
X121831100Y-64731899D01*
X121750667Y-64812332D01*
X121670233Y-64973199D01*
X121589800Y-65294932D01*
X121509367Y-65455799D01*
X121428933Y-65536232D01*
X121268067Y-65616666D01*
X121107200Y-65616666D01*
X120946333Y-65536232D01*
X120865900Y-65455799D01*
X120785467Y-65294932D01*
X120785467Y-64892766D01*
X120865900Y-64651466D01*
X121589800Y-63364532D02*
X121589800Y-63927565D01*
X122474567Y-63927565D02*
X120785467Y-63927565D01*
X120785467Y-63123232D01*
X120785467Y-62158032D02*
X120785467Y-61997165D01*
X120865900Y-61836299D01*
X120946333Y-61755865D01*
X121107200Y-61675432D01*
X121428933Y-61594999D01*
X121831100Y-61594999D01*
X122152833Y-61675432D01*
X122313700Y-61755865D01*
X122394133Y-61836299D01*
X122474567Y-61997165D01*
X122474567Y-62158032D01*
X122394133Y-62318899D01*
X122313700Y-62399332D01*
X122152833Y-62479765D01*
X121831100Y-62560199D01*
X121428933Y-62560199D01*
X121107200Y-62479765D01*
X120946333Y-62399332D01*
X120865900Y-62318899D01*
X120785467Y-62158032D01*
X121348500Y-60147198D02*
X122474567Y-60147198D01*
X120705033Y-60549365D02*
X121911533Y-60951532D01*
X121911533Y-59905898D01*
X120785467Y-58940698D02*
X120785467Y-58779831D01*
X120865900Y-58618965D01*
X120946333Y-58538531D01*
X121107200Y-58458098D01*
X121428933Y-58377665D01*
X121831100Y-58377665D01*
X122152833Y-58458098D01*
X122313700Y-58538531D01*
X122394133Y-58618965D01*
X122474567Y-58779831D01*
X122474567Y-58940698D01*
X122394133Y-59101565D01*
X122313700Y-59181998D01*
X122152833Y-59262431D01*
X121831100Y-59342865D01*
X121428933Y-59342865D01*
X121107200Y-59262431D01*
X120946333Y-59181998D01*
X120865900Y-59101565D01*
X120785467Y-58940698D01*
X121831100Y-57653764D02*
X121831100Y-56366831D01*
X120785467Y-55723364D02*
X120785467Y-54597297D01*
X122474567Y-55321197D01*
X120785467Y-53632097D02*
X120785467Y-53471230D01*
X120865900Y-53310364D01*
X120946333Y-53229930D01*
X121107200Y-53149497D01*
X121428933Y-53069064D01*
X121831100Y-53069064D01*
X122152833Y-53149497D01*
X122313700Y-53229930D01*
X122394133Y-53310364D01*
X122474567Y-53471230D01*
X122474567Y-53632097D01*
X122394133Y-53792964D01*
X122313700Y-53873397D01*
X122152833Y-53953830D01*
X121831100Y-54034264D01*
X121428933Y-54034264D01*
X121107200Y-53953830D01*
X120946333Y-53873397D01*
X120865900Y-53792964D01*
X120785467Y-53632097D01*
X121831100Y-52345163D02*
X121831100Y-51058230D01*
X121348500Y-49529996D02*
X122474567Y-49529996D01*
X120705033Y-49932163D02*
X121911533Y-50334330D01*
X121911533Y-49288696D01*
X122313700Y-47680029D02*
X122394133Y-47760463D01*
X122474567Y-48001763D01*
X122474567Y-48162629D01*
X122394133Y-48403929D01*
X122233267Y-48564796D01*
X122072400Y-48645229D01*
X121750667Y-48725663D01*
X121509367Y-48725663D01*
X121187633Y-48645229D01*
X121026767Y-48564796D01*
X120865900Y-48403929D01*
X120785467Y-48162629D01*
X120785467Y-48001763D01*
X120865900Y-47760463D01*
X120946333Y-47680029D01*
X121831100Y-46956129D02*
X121831100Y-45669196D01*
X122474567Y-44864862D02*
X120785467Y-44864862D01*
X120785467Y-44221396D01*
X120865900Y-44060529D01*
X120946333Y-43980096D01*
X121107200Y-43899662D01*
X121348500Y-43899662D01*
X121509367Y-43980096D01*
X121589800Y-44060529D01*
X121670233Y-44221396D01*
X121670233Y-44864862D01*
X122474567Y-43175762D02*
X120785467Y-43175762D01*
X121589800Y-43175762D02*
X121589800Y-42210562D01*
X122474567Y-42210562D02*
X120785467Y-42210562D01*
X121589800Y-41406229D02*
X121589800Y-40843196D01*
X122474567Y-40601896D02*
X122474567Y-41406229D01*
X120785467Y-41406229D01*
X120785467Y-40601896D01*
D17*
X92731167Y-35949467D02*
X92731167Y-37316833D01*
X92811600Y-37477700D01*
X92892033Y-37558133D01*
X93052900Y-37638567D01*
X93374633Y-37638567D01*
X93535500Y-37558133D01*
X93615933Y-37477700D01*
X93696367Y-37316833D01*
X93696367Y-35949467D01*
X94420266Y-36110333D02*
X94500700Y-36029900D01*
X94661566Y-35949467D01*
X95063733Y-35949467D01*
X95224600Y-36029900D01*
X95305033Y-36110333D01*
X95385466Y-36271200D01*
X95385466Y-36432067D01*
X95305033Y-36673367D01*
X94339833Y-37638567D01*
X95385466Y-37638567D01*
X97290467Y-70628933D02*
X97290467Y-70950667D01*
X97370900Y-71111533D01*
X97451333Y-71191967D01*
X97692633Y-71352833D01*
X98014367Y-71433267D01*
X98657833Y-71433267D01*
X98818700Y-71352833D01*
X98899133Y-71272400D01*
X98979567Y-71111533D01*
X98979567Y-70789800D01*
X98899133Y-70628933D01*
X98818700Y-70548500D01*
X98657833Y-70468067D01*
X98255667Y-70468067D01*
X98094800Y-70548500D01*
X98014367Y-70628933D01*
X97933933Y-70789800D01*
X97933933Y-71111533D01*
X98014367Y-71272400D01*
X98094800Y-71352833D01*
X98255667Y-71433267D01*
X98014367Y-69502866D02*
X97933933Y-69663733D01*
X97853500Y-69744166D01*
X97692633Y-69824600D01*
X97612200Y-69824600D01*
X97451333Y-69744166D01*
X97370900Y-69663733D01*
X97290467Y-69502866D01*
X97290467Y-69181133D01*
X97370900Y-69020266D01*
X97451333Y-68939833D01*
X97612200Y-68859400D01*
X97692633Y-68859400D01*
X97853500Y-68939833D01*
X97933933Y-69020266D01*
X98014367Y-69181133D01*
X98014367Y-69502866D01*
X98094800Y-69663733D01*
X98175233Y-69744166D01*
X98336100Y-69824600D01*
X98657833Y-69824600D01*
X98818700Y-69744166D01*
X98899133Y-69663733D01*
X98979567Y-69502866D01*
X98979567Y-69181133D01*
X98899133Y-69020266D01*
X98818700Y-68939833D01*
X98657833Y-68859400D01*
X98336100Y-68859400D01*
X98175233Y-68939833D01*
X98094800Y-69020266D01*
X98014367Y-69181133D01*
X97290467Y-67813766D02*
X97290467Y-67652899D01*
X97370900Y-67492033D01*
X97451333Y-67411599D01*
X97612200Y-67331166D01*
X97933933Y-67250733D01*
X98336100Y-67250733D01*
X98657833Y-67331166D01*
X98818700Y-67411599D01*
X98899133Y-67492033D01*
X98979567Y-67652899D01*
X98979567Y-67813766D01*
X98899133Y-67974633D01*
X98818700Y-68055066D01*
X98657833Y-68135499D01*
X98336100Y-68215933D01*
X97933933Y-68215933D01*
X97612200Y-68135499D01*
X97451333Y-68055066D01*
X97370900Y-67974633D01*
X97290467Y-67813766D01*
X97290467Y-66205099D02*
X97290467Y-66044232D01*
X97370900Y-65883366D01*
X97451333Y-65802932D01*
X97612200Y-65722499D01*
X97933933Y-65642066D01*
X98336100Y-65642066D01*
X98657833Y-65722499D01*
X98818700Y-65802932D01*
X98899133Y-65883366D01*
X98979567Y-66044232D01*
X98979567Y-66205099D01*
X98899133Y-66365966D01*
X98818700Y-66446399D01*
X98657833Y-66526832D01*
X98336100Y-66607266D01*
X97933933Y-66607266D01*
X97612200Y-66526832D01*
X97451333Y-66446399D01*
X97370900Y-66365966D01*
X97290467Y-66205099D01*
X98014367Y-64676865D02*
X97933933Y-64837732D01*
X97853500Y-64918165D01*
X97692633Y-64998599D01*
X97612200Y-64998599D01*
X97451333Y-64918165D01*
X97370900Y-64837732D01*
X97290467Y-64676865D01*
X97290467Y-64355132D01*
X97370900Y-64194265D01*
X97451333Y-64113832D01*
X97612200Y-64033399D01*
X97692633Y-64033399D01*
X97853500Y-64113832D01*
X97933933Y-64194265D01*
X98014367Y-64355132D01*
X98014367Y-64676865D01*
X98094800Y-64837732D01*
X98175233Y-64918165D01*
X98336100Y-64998599D01*
X98657833Y-64998599D01*
X98818700Y-64918165D01*
X98899133Y-64837732D01*
X98979567Y-64676865D01*
X98979567Y-64355132D01*
X98899133Y-64194265D01*
X98818700Y-64113832D01*
X98657833Y-64033399D01*
X98336100Y-64033399D01*
X98175233Y-64113832D01*
X98094800Y-64194265D01*
X98014367Y-64355132D01*
X98979567Y-63309498D02*
X97290467Y-63309498D01*
X97290467Y-62907332D01*
X97370900Y-62666032D01*
X97531767Y-62505165D01*
X97692633Y-62424732D01*
X98014367Y-62344298D01*
X98255667Y-62344298D01*
X98577400Y-62424732D01*
X98738267Y-62505165D01*
X98899133Y-62666032D01*
X98979567Y-62907332D01*
X98979567Y-63309498D01*
D16*
X140483167Y-35314467D02*
X140483167Y-36681833D01*
X140563600Y-36842700D01*
X140644033Y-36923133D01*
X140804900Y-37003567D01*
X141126633Y-37003567D01*
X141287500Y-36923133D01*
X141367933Y-36842700D01*
X141448367Y-36681833D01*
X141448367Y-35314467D01*
X142091833Y-35314467D02*
X143137466Y-35314467D01*
X142574433Y-35957933D01*
X142815733Y-35957933D01*
X142976600Y-36038367D01*
X143057033Y-36118800D01*
X143137466Y-36279667D01*
X143137466Y-36681833D01*
X143057033Y-36842700D01*
X142976600Y-36923133D01*
X142815733Y-37003567D01*
X142333133Y-37003567D01*
X142172266Y-36923133D01*
X142091833Y-36842700D01*
X146375967Y-65083267D02*
X146375967Y-64278933D01*
X146858567Y-65244133D02*
X145169467Y-64681100D01*
X146858567Y-64118067D01*
X146778133Y-63635467D02*
X146858567Y-63394167D01*
X146858567Y-62992000D01*
X146778133Y-62831133D01*
X146697700Y-62750700D01*
X146536833Y-62670267D01*
X146375967Y-62670267D01*
X146215100Y-62750700D01*
X146134667Y-62831133D01*
X146054233Y-62992000D01*
X145973800Y-63313733D01*
X145893367Y-63474600D01*
X145812933Y-63555033D01*
X145652067Y-63635467D01*
X145491200Y-63635467D01*
X145330333Y-63555033D01*
X145249900Y-63474600D01*
X145169467Y-63313733D01*
X145169467Y-62911567D01*
X145249900Y-62670267D01*
X145169467Y-61222466D02*
X145169467Y-61544200D01*
X145249900Y-61705066D01*
X145330333Y-61785500D01*
X145571633Y-61946366D01*
X145893367Y-62026800D01*
X146536833Y-62026800D01*
X146697700Y-61946366D01*
X146778133Y-61865933D01*
X146858567Y-61705066D01*
X146858567Y-61383333D01*
X146778133Y-61222466D01*
X146697700Y-61142033D01*
X146536833Y-61061600D01*
X146134667Y-61061600D01*
X145973800Y-61142033D01*
X145893367Y-61222466D01*
X145812933Y-61383333D01*
X145812933Y-61705066D01*
X145893367Y-61865933D01*
X145973800Y-61946366D01*
X146134667Y-62026800D01*
X146697700Y-59372499D02*
X146778133Y-59452933D01*
X146858567Y-59694233D01*
X146858567Y-59855099D01*
X146778133Y-60096399D01*
X146617267Y-60257266D01*
X146456400Y-60337699D01*
X146134667Y-60418133D01*
X145893367Y-60418133D01*
X145571633Y-60337699D01*
X145410767Y-60257266D01*
X145249900Y-60096399D01*
X145169467Y-59855099D01*
X145169467Y-59694233D01*
X145249900Y-59452933D01*
X145330333Y-59372499D01*
X145732500Y-57924699D02*
X146858567Y-57924699D01*
X145089033Y-58326866D02*
X146295533Y-58729033D01*
X146295533Y-57683399D01*
X145169467Y-56718199D02*
X145169467Y-56557332D01*
X145249900Y-56396466D01*
X145330333Y-56316032D01*
X145491200Y-56235599D01*
X145812933Y-56155166D01*
X146215100Y-56155166D01*
X146536833Y-56235599D01*
X146697700Y-56316032D01*
X146778133Y-56396466D01*
X146858567Y-56557332D01*
X146858567Y-56718199D01*
X146778133Y-56879066D01*
X146697700Y-56959499D01*
X146536833Y-57039932D01*
X146215100Y-57120366D01*
X145812933Y-57120366D01*
X145491200Y-57039932D01*
X145330333Y-56959499D01*
X145249900Y-56879066D01*
X145169467Y-56718199D01*
X145169467Y-55109532D02*
X145169467Y-54948665D01*
X145249900Y-54787799D01*
X145330333Y-54707365D01*
X145491200Y-54626932D01*
X145812933Y-54546499D01*
X146215100Y-54546499D01*
X146536833Y-54626932D01*
X146697700Y-54707365D01*
X146778133Y-54787799D01*
X146858567Y-54948665D01*
X146858567Y-55109532D01*
X146778133Y-55270399D01*
X146697700Y-55350832D01*
X146536833Y-55431265D01*
X146215100Y-55511699D01*
X145812933Y-55511699D01*
X145491200Y-55431265D01*
X145330333Y-55350832D01*
X145249900Y-55270399D01*
X145169467Y-55109532D01*
X145893367Y-53581298D02*
X145812933Y-53742165D01*
X145732500Y-53822598D01*
X145571633Y-53903032D01*
X145491200Y-53903032D01*
X145330333Y-53822598D01*
X145249900Y-53742165D01*
X145169467Y-53581298D01*
X145169467Y-53259565D01*
X145249900Y-53098698D01*
X145330333Y-53018265D01*
X145491200Y-52937832D01*
X145571633Y-52937832D01*
X145732500Y-53018265D01*
X145812933Y-53098698D01*
X145893367Y-53259565D01*
X145893367Y-53581298D01*
X145973800Y-53742165D01*
X146054233Y-53822598D01*
X146215100Y-53903032D01*
X146536833Y-53903032D01*
X146697700Y-53822598D01*
X146778133Y-53742165D01*
X146858567Y-53581298D01*
X146858567Y-53259565D01*
X146778133Y-53098698D01*
X146697700Y-53018265D01*
X146536833Y-52937832D01*
X146215100Y-52937832D01*
X146054233Y-53018265D01*
X145973800Y-53098698D01*
X145893367Y-53259565D01*
D18*
X151671262Y-115957048D02*
X151671262Y-116933738D01*
X151728714Y-117048643D01*
X151786167Y-117106095D01*
X151901071Y-117163548D01*
X152130881Y-117163548D01*
X152245786Y-117106095D01*
X152303238Y-117048643D01*
X152360690Y-116933738D01*
X152360690Y-115957048D01*
X153509738Y-115957048D02*
X152935214Y-115957048D01*
X152877762Y-116531571D01*
X152935214Y-116474119D01*
X153050119Y-116416667D01*
X153337381Y-116416667D01*
X153452285Y-116474119D01*
X153509738Y-116531571D01*
X153567190Y-116646476D01*
X153567190Y-116933738D01*
X153509738Y-117048643D01*
X153452285Y-117106095D01*
X153337381Y-117163548D01*
X153050119Y-117163548D01*
X152935214Y-117106095D01*
X152877762Y-117048643D01*
X148850048Y-131599214D02*
X148850048Y-132173738D01*
X149424571Y-132231190D01*
X149367119Y-132173738D01*
X149309667Y-132058833D01*
X149309667Y-131771571D01*
X149367119Y-131656667D01*
X149424571Y-131599214D01*
X149539476Y-131541762D01*
X149826738Y-131541762D01*
X149941643Y-131599214D01*
X149999095Y-131656667D01*
X150056548Y-131771571D01*
X150056548Y-132058833D01*
X149999095Y-132173738D01*
X149941643Y-132231190D01*
X148850048Y-131197047D02*
X150056548Y-130794881D01*
X148850048Y-130392714D01*
X150056548Y-129071309D02*
X148850048Y-129071309D01*
X148850048Y-128784047D01*
X148907500Y-128611690D01*
X149022405Y-128496785D01*
X149137310Y-128439333D01*
X149367119Y-128381881D01*
X149539476Y-128381881D01*
X149769286Y-128439333D01*
X149884190Y-128496785D01*
X149999095Y-128611690D01*
X150056548Y-128784047D01*
X150056548Y-129071309D01*
X149941643Y-127175381D02*
X149999095Y-127232833D01*
X150056548Y-127405190D01*
X150056548Y-127520095D01*
X149999095Y-127692452D01*
X149884190Y-127807357D01*
X149769286Y-127864809D01*
X149539476Y-127922261D01*
X149367119Y-127922261D01*
X149137310Y-127864809D01*
X149022405Y-127807357D01*
X148907500Y-127692452D01*
X148850048Y-127520095D01*
X148850048Y-127405190D01*
X148907500Y-127232833D01*
X148964952Y-127175381D01*
D15*
X91781334Y-113227381D02*
X91448000Y-112751190D01*
X91209905Y-113227381D02*
X91209905Y-112227381D01*
X91590858Y-112227381D01*
X91686096Y-112275000D01*
X91733715Y-112322619D01*
X91781334Y-112417857D01*
X91781334Y-112560714D01*
X91733715Y-112655952D01*
X91686096Y-112703571D01*
X91590858Y-112751190D01*
X91209905Y-112751190D01*
X92733715Y-113227381D02*
X92162286Y-113227381D01*
X92448000Y-113227381D02*
X92448000Y-112227381D01*
X92352762Y-112370238D01*
X92257524Y-112465476D01*
X92162286Y-112513095D01*
X120722381Y-87161666D02*
X120246190Y-87495000D01*
X120722381Y-87733095D02*
X119722381Y-87733095D01*
X119722381Y-87352142D01*
X119770000Y-87256904D01*
X119817619Y-87209285D01*
X119912857Y-87161666D01*
X120055714Y-87161666D01*
X120150952Y-87209285D01*
X120198571Y-87256904D01*
X120246190Y-87352142D01*
X120246190Y-87733095D01*
X119817619Y-86780714D02*
X119770000Y-86733095D01*
X119722381Y-86637857D01*
X119722381Y-86399761D01*
X119770000Y-86304523D01*
X119817619Y-86256904D01*
X119912857Y-86209285D01*
X120008095Y-86209285D01*
X120150952Y-86256904D01*
X120722381Y-86828333D01*
X120722381Y-86209285D01*
X141677381Y-87161666D02*
X141201190Y-87495000D01*
X141677381Y-87733095D02*
X140677381Y-87733095D01*
X140677381Y-87352142D01*
X140725000Y-87256904D01*
X140772619Y-87209285D01*
X140867857Y-87161666D01*
X141010714Y-87161666D01*
X141105952Y-87209285D01*
X141153571Y-87256904D01*
X141201190Y-87352142D01*
X141201190Y-87733095D01*
X140677381Y-86828333D02*
X140677381Y-86209285D01*
X141058333Y-86542619D01*
X141058333Y-86399761D01*
X141105952Y-86304523D01*
X141153571Y-86256904D01*
X141248810Y-86209285D01*
X141486905Y-86209285D01*
X141582143Y-86256904D01*
X141629762Y-86304523D01*
X141677381Y-86399761D01*
X141677381Y-86685476D01*
X141629762Y-86780714D01*
X141582143Y-86828333D01*
X136597381Y-87161666D02*
X136121190Y-87495000D01*
X136597381Y-87733095D02*
X135597381Y-87733095D01*
X135597381Y-87352142D01*
X135645000Y-87256904D01*
X135692619Y-87209285D01*
X135787857Y-87161666D01*
X135930714Y-87161666D01*
X136025952Y-87209285D01*
X136073571Y-87256904D01*
X136121190Y-87352142D01*
X136121190Y-87733095D01*
X135930714Y-86304523D02*
X136597381Y-86304523D01*
X135549762Y-86542619D02*
X136264048Y-86780714D01*
X136264048Y-86161666D01*
X115007381Y-87161666D02*
X114531190Y-87495000D01*
X115007381Y-87733095D02*
X114007381Y-87733095D01*
X114007381Y-87352142D01*
X114055000Y-87256904D01*
X114102619Y-87209285D01*
X114197857Y-87161666D01*
X114340714Y-87161666D01*
X114435952Y-87209285D01*
X114483571Y-87256904D01*
X114531190Y-87352142D01*
X114531190Y-87733095D01*
X114007381Y-86256904D02*
X114007381Y-86733095D01*
X114483571Y-86780714D01*
X114435952Y-86733095D01*
X114388333Y-86637857D01*
X114388333Y-86399761D01*
X114435952Y-86304523D01*
X114483571Y-86256904D01*
X114578810Y-86209285D01*
X114816905Y-86209285D01*
X114912143Y-86256904D01*
X114959762Y-86304523D01*
X115007381Y-86399761D01*
X115007381Y-86637857D01*
X114959762Y-86733095D01*
X114912143Y-86780714D01*
X97234476Y-115065381D02*
X97901143Y-116065381D01*
X97901143Y-115065381D02*
X97234476Y-116065381D01*
X98805905Y-116065381D02*
X98234476Y-116065381D01*
X98520190Y-116065381D02*
X98520190Y-115065381D01*
X98424952Y-115208238D01*
X98329714Y-115303476D01*
X98234476Y-115351095D01*
X131717381Y-87733095D02*
X130717381Y-87733095D01*
X130717381Y-87495000D01*
X130765000Y-87352142D01*
X130860238Y-87256904D01*
X130955476Y-87209285D01*
X131145952Y-87161666D01*
X131288810Y-87161666D01*
X131479286Y-87209285D01*
X131574524Y-87256904D01*
X131669762Y-87352142D01*
X131717381Y-87495000D01*
X131717381Y-87733095D01*
X131717381Y-86209285D02*
X131717381Y-86780714D01*
X131717381Y-86495000D02*
X130717381Y-86495000D01*
X130860238Y-86590238D01*
X130955476Y-86685476D01*
X131003095Y-86780714D01*
X126637381Y-87733095D02*
X125637381Y-87733095D01*
X125637381Y-87495000D01*
X125685000Y-87352142D01*
X125780238Y-87256904D01*
X125875476Y-87209285D01*
X126065952Y-87161666D01*
X126208810Y-87161666D01*
X126399286Y-87209285D01*
X126494524Y-87256904D01*
X126589762Y-87352142D01*
X126637381Y-87495000D01*
X126637381Y-87733095D01*
X125732619Y-86780714D02*
X125685000Y-86733095D01*
X125637381Y-86637857D01*
X125637381Y-86399761D01*
X125685000Y-86304523D01*
X125732619Y-86256904D01*
X125827857Y-86209285D01*
X125923095Y-86209285D01*
X126065952Y-86256904D01*
X126637381Y-86828333D01*
X126637381Y-86209285D01*
X147153334Y-87447381D02*
X146820000Y-86971190D01*
X146581905Y-87447381D02*
X146581905Y-86447381D01*
X146962858Y-86447381D01*
X147058096Y-86495000D01*
X147105715Y-86542619D01*
X147153334Y-86637857D01*
X147153334Y-86780714D01*
X147105715Y-86875952D01*
X147058096Y-86923571D01*
X146962858Y-86971190D01*
X146581905Y-86971190D01*
X148010477Y-86447381D02*
X147820000Y-86447381D01*
X147724762Y-86495000D01*
X147677143Y-86542619D01*
X147581905Y-86685476D01*
X147534286Y-86875952D01*
X147534286Y-87256905D01*
X147581905Y-87352143D01*
X147629524Y-87399762D01*
X147724762Y-87447381D01*
X147915239Y-87447381D01*
X148010477Y-87399762D01*
X148058096Y-87352143D01*
X148105715Y-87256905D01*
X148105715Y-87018810D01*
X148058096Y-86923571D01*
X148010477Y-86875952D01*
X147915239Y-86828333D01*
X147724762Y-86828333D01*
X147629524Y-86875952D01*
X147581905Y-86923571D01*
X147534286Y-87018810D01*
X98368381Y-111291666D02*
X97892190Y-111625000D01*
X98368381Y-111863095D02*
X97368381Y-111863095D01*
X97368381Y-111482142D01*
X97416000Y-111386904D01*
X97463619Y-111339285D01*
X97558857Y-111291666D01*
X97701714Y-111291666D01*
X97796952Y-111339285D01*
X97844571Y-111386904D01*
X97892190Y-111482142D01*
X97892190Y-111863095D01*
X97368381Y-110958333D02*
X97368381Y-110291666D01*
X98368381Y-110720238D01*
X159218334Y-57857381D02*
X158885000Y-57381190D01*
X158646905Y-57857381D02*
X158646905Y-56857381D01*
X159027858Y-56857381D01*
X159123096Y-56905000D01*
X159170715Y-56952619D01*
X159218334Y-57047857D01*
X159218334Y-57190714D01*
X159170715Y-57285952D01*
X159123096Y-57333571D01*
X159027858Y-57381190D01*
X158646905Y-57381190D01*
X159789762Y-57285952D02*
X159694524Y-57238333D01*
X159646905Y-57190714D01*
X159599286Y-57095476D01*
X159599286Y-57047857D01*
X159646905Y-56952619D01*
X159694524Y-56905000D01*
X159789762Y-56857381D01*
X159980239Y-56857381D01*
X160075477Y-56905000D01*
X160123096Y-56952619D01*
X160170715Y-57047857D01*
X160170715Y-57095476D01*
X160123096Y-57190714D01*
X160075477Y-57238333D01*
X159980239Y-57285952D01*
X159789762Y-57285952D01*
X159694524Y-57333571D01*
X159646905Y-57381190D01*
X159599286Y-57476429D01*
X159599286Y-57666905D01*
X159646905Y-57762143D01*
X159694524Y-57809762D01*
X159789762Y-57857381D01*
X159980239Y-57857381D01*
X160075477Y-57809762D01*
X160123096Y-57762143D01*
X160170715Y-57666905D01*
X160170715Y-57476429D01*
X160123096Y-57381190D01*
X160075477Y-57333571D01*
X159980239Y-57285952D01*
X159218334Y-62937381D02*
X158885000Y-62461190D01*
X158646905Y-62937381D02*
X158646905Y-61937381D01*
X159027858Y-61937381D01*
X159123096Y-61985000D01*
X159170715Y-62032619D01*
X159218334Y-62127857D01*
X159218334Y-62270714D01*
X159170715Y-62365952D01*
X159123096Y-62413571D01*
X159027858Y-62461190D01*
X158646905Y-62461190D01*
X159694524Y-62937381D02*
X159885000Y-62937381D01*
X159980239Y-62889762D01*
X160027858Y-62842143D01*
X160123096Y-62699286D01*
X160170715Y-62508810D01*
X160170715Y-62127857D01*
X160123096Y-62032619D01*
X160075477Y-61985000D01*
X159980239Y-61937381D01*
X159789762Y-61937381D01*
X159694524Y-61985000D01*
X159646905Y-62032619D01*
X159599286Y-62127857D01*
X159599286Y-62365952D01*
X159646905Y-62461190D01*
X159694524Y-62508810D01*
X159789762Y-62556429D01*
X159980239Y-62556429D01*
X160075477Y-62508810D01*
X160123096Y-62461190D01*
X160170715Y-62365952D01*
X164540095Y-71366381D02*
X164540095Y-72175905D01*
X164587714Y-72271143D01*
X164635333Y-72318762D01*
X164730571Y-72366381D01*
X164921048Y-72366381D01*
X165016286Y-72318762D01*
X165063905Y-72271143D01*
X165111524Y-72175905D01*
X165111524Y-71366381D01*
X165492476Y-71366381D02*
X166159143Y-71366381D01*
X165730571Y-72366381D01*
X164973095Y-33952381D02*
X164973095Y-34761905D01*
X165020714Y-34857143D01*
X165068333Y-34904762D01*
X165163571Y-34952381D01*
X165354048Y-34952381D01*
X165449286Y-34904762D01*
X165496905Y-34857143D01*
X165544524Y-34761905D01*
X165544524Y-33952381D01*
X166449286Y-33952381D02*
X166258809Y-33952381D01*
X166163571Y-34000000D01*
X166115952Y-34047619D01*
X166020714Y-34190476D01*
X165973095Y-34380952D01*
X165973095Y-34761905D01*
X166020714Y-34857143D01*
X166068333Y-34904762D01*
X166163571Y-34952381D01*
X166354048Y-34952381D01*
X166449286Y-34904762D01*
X166496905Y-34857143D01*
X166544524Y-34761905D01*
X166544524Y-34523810D01*
X166496905Y-34428571D01*
X166449286Y-34380952D01*
X166354048Y-34333333D01*
X166163571Y-34333333D01*
X166068333Y-34380952D01*
X166020714Y-34428571D01*
X165973095Y-34523810D01*
X165020667Y-97032381D02*
X165020667Y-97746667D01*
X164973047Y-97889524D01*
X164877809Y-97984762D01*
X164734952Y-98032381D01*
X164639714Y-98032381D01*
X166020667Y-98032381D02*
X165449238Y-98032381D01*
X165734952Y-98032381D02*
X165734952Y-97032381D01*
X165639714Y-97175238D01*
X165544476Y-97270476D01*
X165449238Y-97318095D01*
X92495714Y-99639381D02*
X92495714Y-98639381D01*
X92495714Y-99020333D02*
X92590952Y-98972714D01*
X92781429Y-98972714D01*
X92876667Y-99020333D01*
X92924286Y-99067952D01*
X92971905Y-99163190D01*
X92971905Y-99448905D01*
X92924286Y-99544143D01*
X92876667Y-99591762D01*
X92781429Y-99639381D01*
X92590952Y-99639381D01*
X92495714Y-99591762D01*
X165298334Y-63337143D02*
X165250715Y-63384762D01*
X165107858Y-63432381D01*
X165012620Y-63432381D01*
X164869762Y-63384762D01*
X164774524Y-63289524D01*
X164726905Y-63194286D01*
X164679286Y-63003810D01*
X164679286Y-62860952D01*
X164726905Y-62670476D01*
X164774524Y-62575238D01*
X164869762Y-62480000D01*
X165012620Y-62432381D01*
X165107858Y-62432381D01*
X165250715Y-62480000D01*
X165298334Y-62527619D01*
X166250715Y-63432381D02*
X165679286Y-63432381D01*
X165965000Y-63432381D02*
X165965000Y-62432381D01*
X165869762Y-62575238D01*
X165774524Y-62670476D01*
X165679286Y-62718095D01*
X129413095Y-108037381D02*
X129413095Y-108846905D01*
X129460714Y-108942143D01*
X129508333Y-108989762D01*
X129603571Y-109037381D01*
X129794048Y-109037381D01*
X129889286Y-108989762D01*
X129936905Y-108942143D01*
X129984524Y-108846905D01*
X129984524Y-108037381D01*
X130603571Y-108465952D02*
X130508333Y-108418333D01*
X130460714Y-108370714D01*
X130413095Y-108275476D01*
X130413095Y-108227857D01*
X130460714Y-108132619D01*
X130508333Y-108085000D01*
X130603571Y-108037381D01*
X130794048Y-108037381D01*
X130889286Y-108085000D01*
X130936905Y-108132619D01*
X130984524Y-108227857D01*
X130984524Y-108275476D01*
X130936905Y-108370714D01*
X130889286Y-108418333D01*
X130794048Y-108465952D01*
X130603571Y-108465952D01*
X130508333Y-108513571D01*
X130460714Y-108561190D01*
X130413095Y-108656429D01*
X130413095Y-108846905D01*
X130460714Y-108942143D01*
X130508333Y-108989762D01*
X130603571Y-109037381D01*
X130794048Y-109037381D01*
X130889286Y-108989762D01*
X130936905Y-108942143D01*
X130984524Y-108846905D01*
X130984524Y-108656429D01*
X130936905Y-108561190D01*
X130889286Y-108513571D01*
X130794048Y-108465952D01*
X165528667Y-102151381D02*
X165528667Y-102865667D01*
X165481047Y-103008524D01*
X165385809Y-103103762D01*
X165242952Y-103151381D01*
X165147714Y-103151381D01*
X165957238Y-102246619D02*
X166004857Y-102199000D01*
X166100095Y-102151381D01*
X166338191Y-102151381D01*
X166433429Y-102199000D01*
X166481048Y-102246619D01*
X166528667Y-102341857D01*
X166528667Y-102437095D01*
X166481048Y-102579952D01*
X165909619Y-103151381D01*
X166528667Y-103151381D01*
D19*
X153282832Y-111608930D02*
X153282832Y-110836770D01*
X153282832Y-111572161D02*
X153209293Y-111608930D01*
X153062215Y-111608930D01*
X152988676Y-111572161D01*
X152951907Y-111535391D01*
X152915137Y-111461852D01*
X152915137Y-111241235D01*
X152951907Y-111167696D01*
X152988676Y-111130927D01*
X153062215Y-111094157D01*
X153209293Y-111094157D01*
X153282832Y-111130927D01*
X153981453Y-111608930D02*
X153981453Y-111204466D01*
X153944684Y-111130927D01*
X153871145Y-111094157D01*
X153724067Y-111094157D01*
X153650528Y-111130927D01*
X153981453Y-111572161D02*
X153907914Y-111608930D01*
X153724067Y-111608930D01*
X153650528Y-111572161D01*
X153613758Y-111498622D01*
X153613758Y-111425083D01*
X153650528Y-111351544D01*
X153724067Y-111314774D01*
X153907914Y-111314774D01*
X153981453Y-111278005D01*
X154459457Y-111608930D02*
X154385918Y-111572161D01*
X154349149Y-111498622D01*
X154349149Y-110836770D01*
X154753614Y-111608930D02*
X154753614Y-111094157D01*
X154753614Y-110836770D02*
X154716844Y-110873540D01*
X154753614Y-110910310D01*
X154790383Y-110873540D01*
X154753614Y-110836770D01*
X154753614Y-110910310D01*
X155121309Y-111535391D02*
X155158078Y-111572161D01*
X155121309Y-111608930D01*
X155084539Y-111572161D01*
X155121309Y-111535391D01*
X155121309Y-111608930D01*
X155819929Y-111572161D02*
X155746390Y-111608930D01*
X155599312Y-111608930D01*
X155525773Y-111572161D01*
X155489004Y-111535391D01*
X155452234Y-111461852D01*
X155452234Y-111241235D01*
X155489004Y-111167696D01*
X155525773Y-111130927D01*
X155599312Y-111094157D01*
X155746390Y-111094157D01*
X155819929Y-111130927D01*
X156261163Y-111608930D02*
X156187624Y-111572161D01*
X156150855Y-111535391D01*
X156114085Y-111461852D01*
X156114085Y-111241235D01*
X156150855Y-111167696D01*
X156187624Y-111130927D01*
X156261163Y-111094157D01*
X156371472Y-111094157D01*
X156445011Y-111130927D01*
X156481780Y-111167696D01*
X156518550Y-111241235D01*
X156518550Y-111461852D01*
X156481780Y-111535391D01*
X156445011Y-111572161D01*
X156371472Y-111608930D01*
X156261163Y-111608930D01*
X156849476Y-111608930D02*
X156849476Y-111094157D01*
X156849476Y-111167696D02*
X156886245Y-111130927D01*
X156959784Y-111094157D01*
X157070093Y-111094157D01*
X157143632Y-111130927D01*
X157180401Y-111204466D01*
X157180401Y-111608930D01*
X157180401Y-111204466D02*
X157217171Y-111130927D01*
X157290710Y-111094157D01*
X157401018Y-111094157D01*
X157474558Y-111130927D01*
X157511327Y-111204466D01*
X157511327Y-111608930D01*
X157879023Y-111535391D02*
X157915792Y-111572161D01*
X157879023Y-111608930D01*
X157842253Y-111572161D01*
X157879023Y-111535391D01*
X157879023Y-111608930D01*
X158577643Y-111572161D02*
X158504104Y-111608930D01*
X158357026Y-111608930D01*
X158283487Y-111572161D01*
X158246718Y-111535391D01*
X158209948Y-111461852D01*
X158209948Y-111241235D01*
X158246718Y-111167696D01*
X158283487Y-111130927D01*
X158357026Y-111094157D01*
X158504104Y-111094157D01*
X158577643Y-111130927D01*
X159018877Y-111608930D02*
X158945338Y-111572161D01*
X158908569Y-111535391D01*
X158871799Y-111461852D01*
X158871799Y-111241235D01*
X158908569Y-111167696D01*
X158945338Y-111130927D01*
X159018877Y-111094157D01*
X159129186Y-111094157D01*
X159202725Y-111130927D01*
X159239494Y-111167696D01*
X159276264Y-111241235D01*
X159276264Y-111461852D01*
X159239494Y-111535391D01*
X159202725Y-111572161D01*
X159129186Y-111608930D01*
X159018877Y-111608930D01*
M02*
